<?xml version="1.0" encoding="utf-8"?>
<!-- Generator: Adobe Illustrator 27.0.1, SVG Export Plug-In . SVG Version: 6.00 Build 0)  -->
<svg version="1.1" id="Layer_1" xmlns="http://www.w3.org/2000/svg" xmlns:xlink="http://www.w3.org/1999/xlink" x="0px" y="0px"
	 width="500px" height="382.8px" viewBox="0 0 500 382.8" style="enable-background:new 0 0 500 382.8;" xml:space="preserve">
<style type="text/css">
	.st0{fill:#0B2256;}
	.st1{fill:#FCF10B;}
</style>
<g>
	<path class="st0" d="M492.3,72.7c4.8-7.4,7.7-16.3,7.7-25.8c0-25.8-20.9-47-47-47c-24.8,0-45.2,19.4-46.7,43.9H19.4
		c-0.5,0-10.2,0-14.5,3.6C-0.7,52.1,0,60.5,0,60.7v174.6c0,1.3-1.5,31.1,14.3,49.3c16.3,18.6,52.6,18.9,54.1,18.9H331l166.4,79.4
		V97.2C497.4,96.7,496.9,85,492.3,72.7"/>
	<path class="st1" d="M76.3,145.5c0-7.1,4.1-10.7,12.5-10.7c8.4,0,12.5,3.6,12.5,10.7v86.3h31.4v-86.3c0-19.9-2.6-28.3-16.3-31.4
		c-3.1-0.8-7.1-1.3-11.5-1.5c-4.6-0.3-10-0.3-16.1,0.5c-8.4,1-12.5,3.6-12.5,10.7V80.6H45v151.1h31.4V145.5z"/>
	<path class="st1" d="M239.7,113.1h-31.4v86.3c0,7.1-4.1,10.7-12.5,10.7c-8.4,0-12.5-3.6-12.5-10.7v-86.3h-31.4v86.3
		c0,13.5,4.6,24.8,16.1,29.9c4.1,1.8,8.7,2.6,16.8,3.1c3.1,0.3,6.1,0.3,10.5,0c8.4-0.3,13.3-4.3,13.3-11.5v21.7v6.9l31.4-0.3v-136
		H239.7z"/>
	<path class="st1" d="M290,220.8c0,7.1,4.3,10.5,12.5,11.2c5.4,0.5,11,0.8,15.3,0.5c3.3-0.3,5.9-0.3,8.7-0.8
		c14.5-2.3,19.9-11.5,19.9-32.7v-53.8c0-18.6-5.4-27.3-19.7-30.6c-2.8-0.8-5.1-1.3-8.7-1.5c-2.3-0.3-5.1-0.5-7.7-0.5
		c-2.3,0-5.4,0.3-7.9,0.5c-8.4,1-12.5,3.6-12.5,10.7v-10.7h-31.4v136H290V220.8z M290,145.5c0-7.1,4.1-10.7,12.5-10.7
		c8.4,0,12.5,3.6,12.5,10.7v53.8c0,7.1-4.1,10.7-12.5,10.7c-8.4,0-12.5-3.6-12.5-10.7V145.5z"/>
	<path class="st1" d="M409.4,231.7c29.3,0,43.9-10.7,43.9-32.4V194h-31.4v5.4c0,7.1-4.1,10.7-12.5,10.7s-12.5-3.6-12.5-10.7V183
		h56.4v-37.8c0-21.4-14.5-32.4-43.9-32.4s-43.9,10.7-43.9,32.4v53.8C365.2,220.8,380.1,231.7,409.4,231.7 M396.6,145.5
		c0-7.1,4.1-10.7,12.5-10.7c8.4,0,12.5,3.6,12.5,10.7v16.1h-25V145.5z"/>
	<path class="st1" d="M458.7,13.3c-1.8-0.3-3.6-0.5-5.4-0.5c-16.6,0-30.6,12-33.4,28.3c-2.8,16.6,7.9,33.2,24.2,37.8l4.3,1.3
		l-3.6,28.6l31.6-37.8c5.4-5.1,8.9-11.7,10.2-19.1C489.5,33.7,477,16.3,458.7,13.3 M453.3,57.2c-5.6,0-10.5-4.6-10.5-10.5
		c0-5.6,4.6-10.5,10.5-10.5c5.9,0,10.5,4.6,10.5,10.5C463.8,52.3,458.9,57.2,453.3,57.2"/>
</g>
</svg>
