<?xml version="1.0" encoding="UTF-8" standalone="no"?>
<!-- Created with Inkscape (http://www.inkscape.org/) -->

<svg
   version="1.1"
   id="svg1"
   width="492.73196"
   height="171.12708"
   viewBox="0 0 492.73196 171.12707"
   sodipodi:docname="KCN_2_-_Logo.svg"
   inkscape:version="1.3 (0e150ed6c4, 2023-07-21)"
   xml:space="preserve"
   xmlns:inkscape="http://www.inkscape.org/namespaces/inkscape"
   xmlns:sodipodi="http://sodipodi.sourceforge.net/DTD/sodipodi-0.dtd"
   xmlns:xlink="http://www.w3.org/1999/xlink"
   xmlns="http://www.w3.org/2000/svg"
   xmlns:svg="http://www.w3.org/2000/svg"><defs
     id="defs1"><linearGradient
       id="linearGradient31"
       inkscape:collect="always"><stop
         style="stop-color:#545b94;stop-opacity:1;"
         offset="0"
         id="stop28" /><stop
         style="stop-color:#3d4688;stop-opacity:1;"
         offset="0.25762585"
         id="stop29" /><stop
         style="stop-color:#2f3670;stop-opacity:1;"
         offset="0.62569696"
         id="stop30" /><stop
         style="stop-color:#1d1854;stop-opacity:1;"
         offset="1"
         id="stop31" /></linearGradient><linearGradient
       id="linearGradient27"
       inkscape:collect="always"><stop
         style="stop-color:#545b94;stop-opacity:1;"
         offset="0"
         id="stop24" /><stop
         style="stop-color:#3d4688;stop-opacity:1;"
         offset="0.28633547"
         id="stop25" /><stop
         style="stop-color:#2f3670;stop-opacity:1;"
         offset="0.61149037"
         id="stop26" /><stop
         style="stop-color:#1d1854;stop-opacity:1;"
         offset="1"
         id="stop27" /></linearGradient><linearGradient
       id="linearGradient79"
       inkscape:collect="always"><stop
         style="stop-color:#545b94;stop-opacity:1;"
         offset="0"
         id="stop79" /><stop
         style="stop-color:#3d4688;stop-opacity:1;"
         offset="0.25762585"
         id="stop8" /><stop
         style="stop-color:#2f3670;stop-opacity:1;"
         offset="0.62569696"
         id="stop9" /><stop
         style="stop-color:#1d1854;stop-opacity:1;"
         offset="1"
         id="stop80" /></linearGradient><linearGradient
       inkscape:collect="always"
       xlink:href="#linearGradient79"
       id="linearGradient80"
       x1="116.68927"
       y1="489.04141"
       x2="116.9711"
       y2="437.19653"
       gradientUnits="userSpaceOnUse"
       gradientTransform="matrix(1.0943332,0,0,0.9785584,-1.7912126,-378.40933)" /><linearGradient
       inkscape:collect="always"
       xlink:href="#linearGradient4"
       id="linearGradient5"
       x1="28.595638"
       y1="156.00278"
       x2="28.413088"
       y2="97.756882"
       gradientUnits="userSpaceOnUse"
       gradientTransform="matrix(0.99728622,0,0,0.99325683,1.2649783,0.18448885)" /><linearGradient
       id="linearGradient4"
       inkscape:collect="always"><stop
         style="stop-color:#545b94;stop-opacity:1;"
         offset="0"
         id="stop4" /><stop
         style="stop-color:#3d4688;stop-opacity:1;"
         offset="0.28633547"
         id="stop7" /><stop
         style="stop-color:#2f3670;stop-opacity:1;"
         offset="0.61149037"
         id="stop6" /><stop
         style="stop-color:#1d1854;stop-opacity:1;"
         offset="1"
         id="stop5" /></linearGradient><linearGradient
       inkscape:collect="always"
       xlink:href="#linearGradient31"
       id="linearGradient13"
       gradientUnits="userSpaceOnUse"
       gradientTransform="matrix(1.1100006,0,0,0.96894598,-7.3060585,-374.81469)"
       x1="116.68927"
       y1="489.04141"
       x2="116.46674"
       y2="436.33179" /><linearGradient
       inkscape:collect="always"
       xlink:href="#linearGradient27"
       id="linearGradient14"
       gradientUnits="userSpaceOnUse"
       gradientTransform="matrix(1.0115967,0,0,1.0157981,-4.2064717,-3.3021636)"
       x1="28.595638"
       y1="156.00278"
       x2="28.413088"
       y2="105.26588" /><linearGradient
       inkscape:collect="always"
       xlink:href="#linearGradient18"
       id="linearGradient19"
       x1="406.55753"
       y1="161.12166"
       x2="407.27414"
       y2="87.910248"
       gradientUnits="userSpaceOnUse" /><linearGradient
       id="linearGradient18"
       inkscape:collect="always"><stop
         style="stop-color:#636567;stop-opacity:1;"
         offset="0"
         id="stop18" /><stop
         style="stop-color:#949799;stop-opacity:1;"
         offset="1"
         id="stop19" /></linearGradient><linearGradient
       inkscape:collect="always"
       xlink:href="#linearGradient18"
       id="linearGradient15"
       gradientUnits="userSpaceOnUse"
       gradientTransform="matrix(0.9979805,0,0,1.008041,0.11002811,-2.4830193)"
       x1="4.7731538"
       y1="162.30473"
       x2="5.4766755"
       y2="73.75209" /><linearGradient
       inkscape:collect="always"
       xlink:href="#linearGradient2"
       id="linearGradient3"
       x1="256.75922"
       y1="92.107315"
       x2="256.99387"
       y2="8.1028528"
       gradientUnits="userSpaceOnUse"
       gradientTransform="matrix(0.99780908,0,0,0.66167547,-5.3216844,30.176862)" /><linearGradient
       id="linearGradient2"
       inkscape:collect="always"><stop
         style="stop-color:#ffffff;stop-opacity:1;"
         offset="0"
         id="stop2" /><stop
         style="stop-color:#989a9d;stop-opacity:1;"
         offset="1"
         id="stop3" /></linearGradient><linearGradient
       inkscape:collect="always"
       xlink:href="#linearGradient2"
       id="linearGradient73"
       gradientUnits="userSpaceOnUse"
       gradientTransform="matrix(0.99014118,0,0,0.66426078,-1.7438767,30.696763)"
       x1="256.75922"
       y1="92.107315"
       x2="256.99387"
       y2="8.1028528" /></defs><sodipodi:namedview
     id="namedview1"
     pagecolor="#ffffff"
     bordercolor="#000000"
     borderopacity="0.25"
     inkscape:showpageshadow="2"
     inkscape:pageopacity="0.0"
     inkscape:pagecheckerboard="0"
     inkscape:deskcolor="#d1d1d1"
     showgrid="false"
     inkscape:zoom="3.0474996"
     inkscape:cx="369.1551"
     inkscape:cy="95.159981"
     inkscape:window-width="1920"
     inkscape:window-height="1001"
     inkscape:window-x="-9"
     inkscape:window-y="-9"
     inkscape:window-maximized="1"
     inkscape:current-layer="g1" /><g
     inkscape:groupmode="layer"
     inkscape:label="Image"
     id="g1"
     transform="translate(-0.10628539,0.28322584)"><path
       d="M 341.18688,87.41872 0.12840075,91.777099 V 162.20703 H 386.97379 l -45.44591,-46.04466 -0.0414,-22.872276 -0.003,-1.606318 z"
       style="fill:url(#linearGradient15);fill-rule:evenodd;stroke-width:0.999031"
       id="path71"
       sodipodi:nodetypes="cccccccc" /><path
       d="M 491.83482,91.755903 348.81291,91.56843 c -0.0469,8.284931 -0.0355,16.57066 -0.0459,24.85584 l 46.05252,45.74256 h 97.11453 l 0.004,-68.684277 -0.005,-0.883346 z"
       style="fill:url(#linearGradient19);fill-rule:evenodd;stroke-width:0.99769"
       id="path69"
       sodipodi:nodetypes="cccccccc" /><path
       d="m 341.48286,91.895938 0.11108,-65.048459 H 0.10941582 v 65.048459 z"
       style="fill:url(#linearGradient3);fill-rule:evenodd;stroke-width:0.812541"
       id="path72"
       sodipodi:nodetypes="ccccc" /><path
       d="m 491.93403,92.707225 -0.0235,-65.934931 h -142.735 l -0.37228,65.24512 z"
       style="fill:url(#linearGradient73);fill-rule:evenodd;stroke-width:0.810996"
       id="path70"
       sodipodi:nodetypes="ccccc" /><path
       d="m 335.01478,96.701928 c -0.99643,0.0885 -1.9825,0.273456 -2.98163,0.359541 -14.17379,0.978191 -28.5457,1.715592 -43.03714,2.208169 -14.49142,0.492853 -29.07595,0.739982 -43.67383,0.740032 -14.59853,-3e-5 -29.18371,-0.247157 -43.67578,-0.740032 C 187.15496,98.777061 172.78305,98.03966 158.60926,97.061469 144.43515,96.082751 130.48518,94.865012 116.83565,93.414913 103.18644,91.965083 89.862546,90.285557 76.936816,88.385521 64.010896,86.485761 51.506698,84.368963 39.492597,82.046703 28.164436,79.841444 17.295215,77.456784 6.938027,74.904371 v 80.738099 l 363.687313,-0.5853 -35.65778,-35.47056 z"
       style="opacity:1;fill:url(#linearGradient14);fill-rule:evenodd;stroke-width:0.907252"
       id="path12"
       sodipodi:nodetypes="cccccccccccccc" /><path
       d="m 485.60502,74.272494 c -0.56012,0.156363 -1.12212,0.312207 -1.686,0.467529 -10.7718,2.650838 -22.89271,2.510806 -34.73616,4.781662 -11.84414,2.270728 -24.17145,4.340552 -36.91451,6.198156 -12.74351,1.857892 -25.87955,3.500147 -39.33633,4.917785 -6.0937,0.578267 -11.4603,4.204134 -17.65761,4.69006 l 0.0116,18.518744 41.96801,41.5056 88.56731,0.25 z"
       style="opacity:1;fill:url(#linearGradient5);fill-rule:evenodd;stroke-width:0.89076"
       id="path10"
       sodipodi:nodetypes="cccccccccc" /><path
       d="M 335.01595,97.357611 334.89449,33.525391 6.938027,33.649059 V 76.03254 c 10.356855,2.485948 21.225726,4.808514 32.553523,6.956349 12.013715,2.261791 24.517511,4.323468 37.443015,6.173759 12.925314,1.850559 26.248775,3.48635 39.897555,4.898427 13.64908,1.412339 27.59861,2.598368 41.77226,3.551602 14.17335,0.952718 28.54478,1.67091 43.03575,2.150662 14.49162,0.480041 29.07632,0.720721 43.67438,0.720751 14.59741,-5e-5 29.18146,-0.24073 43.67242,-0.720751 14.49098,-0.479752 28.86242,-1.197944 43.03576,-2.150662 0.9991,-0.08384 1.99686,-0.168867 2.99326,-0.255066 z"
       style="opacity:1;fill:url(#linearGradient13);fill-rule:evenodd;stroke-width:23.1188;stroke-linecap:round;stroke-linejoin:round;paint-order:stroke fill markers"
       id="path13"
       sodipodi:nodetypes="ccccccccccccc" /><path
       d="m 485.60502,74.522256 0.16347,-40.984402 -130.18704,-0.0011 -0.307,62.162968 c 6.19731,-0.488815 12.3462,-1.510221 18.4399,-2.091926 13.45678,-1.426066 26.59282,-3.078085 39.33633,-4.947023 12.74306,-1.868648 25.07037,-3.950778 36.91451,-6.235006 11.84345,-2.284357 23.18207,-4.766621 33.95387,-7.433219 0.56388,-0.156246 1.12588,-0.313017 1.686,-0.470309 z"
       style="opacity:1;fill:url(#linearGradient80);fill-rule:evenodd;stroke-width:23.0686;stroke-linecap:round;stroke-linejoin:round;paint-order:stroke fill markers"
       id="path11"
       sodipodi:nodetypes="cccccccccc" /><path
       id="rect1"
       style="opacity:1;fill:#f4f5f5;fill-opacity:1;fill-rule:evenodd;stroke-width:0.992682"
       d="M 21.281821,16.05169 39.460848,-0.28322584 V 137.89322 H 21.281821 Z"
       sodipodi:nodetypes="ccccc" /><path
       id="rect2"
       style="opacity:1;fill:#f4f5f5;fill-opacity:1;fill-rule:evenodd"
       transform="rotate(47.916449)"
       d="M 89.436383,-21.609359 110.09323,-43.902158 111.39382,4.8558564 110.628,24.963609 110.38374,53.653249 91.863783,41.765103 Z"
       sodipodi:nodetypes="ccccccc" /><path
       id="rect3"
       style="opacity:1;fill:#f4f5f5;fill-opacity:1;fill-rule:evenodd"
       transform="rotate(-41.932093)"
       d="M -24.309227,105.29592 -4.4757538,105.44888 -4.8627413,224.02349 -24.464481,206.0775 Z"
       sodipodi:nodetypes="ccccc" /><ellipse
       style="opacity:1;fill:#f4f5f5;fill-opacity:1;fill-rule:evenodd;stroke-width:17.9855;stroke-linecap:round;stroke-linejoin:round;paint-order:stroke fill markers"
       id="path3"
       cx="115.92236"
       cy="80.978256"
       rx="8.9975834"
       ry="8.9975843" /><ellipse
       style="opacity:1;fill:#f4f5f5;fill-opacity:1;fill-rule:evenodd;stroke-width:17.9855;stroke-linecap:round;stroke-linejoin:round;paint-order:stroke fill markers"
       id="path3-6"
       cx="144.87613"
       cy="80.978256"
       rx="8.9975834"
       ry="8.9975843" /><ellipse
       style="opacity:1;fill:#f4f5f5;fill-opacity:1;fill-rule:evenodd;stroke-width:17.7751;stroke-linecap:round;stroke-linejoin:round;paint-order:stroke fill markers"
       id="path3-4"
       cx="115.92236"
       cy="109.72278"
       rx="8.9975834"
       ry="8.7883377" /><ellipse
       style="opacity:1;fill:#f4f5f5;fill-opacity:1;fill-rule:evenodd;stroke-width:17.8781;stroke-linecap:round;stroke-linejoin:round;paint-order:stroke fill markers"
       id="path3-4-4"
       cx="144.98076"
       cy="109.72278"
       rx="9.1022062"
       ry="8.7883377" /><path
       id="path4"
       style="opacity:1;fill:#f4f5f5;fill-opacity:1;fill-rule:evenodd;stroke-width:18.144;stroke-linecap:round;stroke-linejoin:round;paint-order:stroke fill markers"
       d="m 207.25977,53.775391 c -23.35596,-3e-6 -42.28907,18.846095 -42.28907,42.091797 0,21.962222 16.89968,39.995562 38.46289,41.919922 0.0925,0.008 0.25131,-0.014 0.3436,-0.0116 1.16467,0.0302 2.24667,-0.34585 3.44156,-0.34585 l -0.0762,-16.16797 c -14.13151,7.1e-4 -25.58778,-11.41708 -25.58789,-25.501954 1.1e-4,-14.084876 11.45638,-25.502666 25.58789,-25.501954 7.46671,0.0032 14.55947,3.257108 19.41797,8.908204 L 238.60938,67.617188 C 230.87169,59.11678 219.69205,53.775392 207.25977,53.775391 Z"
       sodipodi:nodetypes="ssssccccccs" /><path
       id="rect6"
       style="opacity:1;fill:#f4f5f5;fill-opacity:1;fill-rule:evenodd;stroke-width:1.16779"
       d="m 203.48075,121.20127 h 53.65439 v 16.62035 l -53.68568,-0.0351 z"
       sodipodi:nodetypes="ccccc" /><rect
       style="opacity:1;fill:#f4f5f5;fill-opacity:1;fill-rule:evenodd;stroke-width:1.00245"
       id="rect8"
       width="18"
       height="76.75"
       x="239.125"
       y="52.25" /><path
       id="rect9"
       style="opacity:1;fill:#f4f5f5;fill-opacity:1;fill-rule:evenodd;stroke-width:0.919524"
       transform="matrix(0.78289888,-0.62214897,0.47620107,0.87933642,0,0)"
       d="m 183.48048,204.07532 20.86505,-0.0955 4.05238,61.59034 -18.16985,25.70089 z"
       sodipodi:nodetypes="ccccc" /><rect
       style="opacity:1;fill:#f4f5f5;fill-opacity:1;fill-rule:evenodd;stroke-width:1.00633"
       id="rect10"
       width="16.558073"
       height="85.318703"
       x="287.63455"
       y="52.450424" /><path
       id="path31"
       style="opacity:1;fill:#ffffff;fill-opacity:1;fill-rule:evenodd;stroke-width:18.4025;stroke-linecap:round;stroke-linejoin:round;paint-order:stroke fill markers"
       d="m 432.43441,47.638649 c -0.90381,-0.01689 -1.80815,-0.01499 -2.71289,0.0039 -38.27206,0.799418 -35.46094,36.320313 -35.46094,36.320313 l 24.08043,-0.470429 c -0.1162,-0.715786 -0.17762,-1.440967 -0.1836,-2.167969 3.3e-4,-7.205079 4.57111,-12.987255 11.14419,-12.986602 13.59719,0.557956 13.32546,13.615496 2.34765,26.267338 l -41.07849,49.86156 46.4574,-21.60351 c 39.91456,-34.888519 32.67801,-58.938356 13.0957,-70.898435 -5.13082,-3.133693 -11.36278,-4.207931 -17.68945,-4.326172 z"
       sodipodi:nodetypes="sscccccccsss" /><path
       id="rect31"
       style="fill:#ffffff;fill-rule:evenodd;stroke-width:1.05468"
       d="m 408.79386,124.95828 26.95521,-2.11403 33.08608,0.44844 v 21.27655 l -78.25531,-0.10746 z"
       sodipodi:nodetypes="cccccc" /></g></svg>
