<?xml version="1.0" encoding="UTF-8"?><svg id="Layer_2" xmlns="http://www.w3.org/2000/svg" viewBox="0 0 612.97 304.85"><defs><style>.cls-1{fill:#000;}.cls-1,.cls-2,.cls-3{stroke-width:0px;}.cls-2{fill:#7f90a1;}.cls-3{fill:white;}</style></defs><g id="Layer_1-2"><path class="cls-2" d="m73.35,195.09h539.62v90c0,10.91-8.86,19.77-19.77,19.77H73.35v-109.76h0Z"/><path class="cls-1" d="m444.51,0C438.24,0,432.64,3.92,430.5,9.81l-43.38,119.19-3.91,10.75-3.92-10.75-43.38-119.19C333.77,3.92,328.17,0,321.9,0h-15.91C303.4,0,301.6,2.57,302.49,5l53.28,146.41c1.61,4.42,5.81,7.36,10.51,7.36h33.86c4.7,0,8.9-2.94,10.51-7.36L463.92,5C464.81,2.57,463.01,0,460.42,0h-15.91Z"/><path class="cls-1" d="m283.76,22.36c0-12.35-10.01-22.36-22.36-22.36h-66.57c-12.35,0-22.36,10.01-22.36,22.36v114.04c0,12.35,10.01,22.36,22.36,22.36h7.4V37.22c0-4.12,3.34-7.45,7.45-7.45h74.08v-7.4Z"/><path class="cls-1" d="m491.29,22.36v7.4h91.91v22.33h-95.19c-12.35,0-22.36,10.01-22.36,22.36v61.94c0,12.35,10.01,22.36,22.36,22.36h102.59c12.35,0,22.36-10.01,22.36-22.36V22.36C612.97,10.01,602.95,0,590.6,0h-76.95c-12.35,0-22.36,10.01-22.36,22.36Zm91.91,107.08h-87.78v-41.8c0-4.12,3.34-7.45,7.45-7.45h80.33v49.26Z"/><path class="cls-1" d="m0,22.36v186.88c0,12.35,10.01,22.36,22.36,22.36h7.4v-72.85h94.56c12.35,0,22.36-10.01,22.36-22.36V22.36C146.69,10.01,136.68,0,124.33,0H22.36C10.01,0,0,10.01,0,22.36Zm116.92,106.63H29.77V37.22c0-4.12,3.34-7.45,7.45-7.45h79.7v99.23Z"/><path class="cls-3" d="m357.23,213.79v13.67h-28.07v18.23h24.14v12.64h-24.14v30.56h-15.95v-75.1h44.03Z"/><path class="cls-3" d="m394.21,213.79v75.1h-15.85v-75.1h15.85Z"/><path class="cls-3" d="m434.41,213.79v61.22h25.79v13.88h-41.23v-75.1h15.44Z"/><path class="cls-3" d="m522.88,213.79v13.67h-27.66v16.88h20.82v12.02h-20.82v19.06h28.7v13.47h-44.65v-75.1h43.61Z"/><path class="cls-3" d="m587.21,229.22l-10.77,4.77c-2.18-5.91-6.63-8.7-12.02-8.7-6.22,0-8.5,2.8-8.5,7.15,0,12.43,31.8,11.81,31.8,35.64,0,13.99-9.43,21.86-23.93,21.86-11.6,0-21.86-6.94-24.76-18.03l11.91-4.14c2.17,6.63,7.56,9.74,12.74,9.74,6.32,0,9.12-2.49,9.12-7.56,0-14.3-32.53-12.74-32.53-36.57,0-11.5,8.7-20.61,22.58-20.61,12.64,0,20.51,6.53,24.34,16.47Z"/></g></svg>