<?xml version="1.0" encoding="utf-8"?>
<!-- Generator: Adobe Illustrator 23.1.0, SVG Export Plug-In . SVG Version: 6.00 Build 0)  -->
<svg version="1.1" id="Layer_2" xmlns="http://www.w3.org/2000/svg" xmlns:xlink="http://www.w3.org/1999/xlink" x="0px" y="0px"
	 width="1000px" height="147.0543213px" viewBox="0 0 1000 147.0543213" enable-background="new 0 0 1000 147.0543213"
	 xml:space="preserve">
<path d="M470.1862793,8.4995728v56.2466125c12.3256836,0,20.175293-0.8432655,23.5483398-2.529789
	c3.2436523-1.8164063,5.7739258-4.8657265,7.590332-9.1474648c1.8164063-4.4116249,3.8271484-11.2231522,6.0332031-20.43507
	c5.8388672-21.1484489,21.3427734-29.127943,46.5136719-23.9379997v19.8510838
	c-5.5791016-0.519043-9.9257813,0.1943359-13.0390625,2.1406269c-2.984375,1.9462891-5.1904297,5.4492226-6.6171875,10.5092812
	c-4.5410156,17.2563553-10.25,29.3227692-17.1269531,36.199234l41.6484375,63.0566711v4.28125h-32.890625l-34.2529297-56.0508041
	c-3.5029297,0.9082031-10.6391602,1.3623047-21.4082031,1.3623047v54.6865463h-28.9980774V8.4981079L470.1862793,8.4995728z"/>
<path d="M704.6424561,76.6011658c0,20.7597809-6.4873047,37.6914291-19.4619751,50.7969055
	c-12.9746094,13.1044922-29.7773438,19.65625-50.40625,19.65625c-19.3320313,0-35.7451172-6.2275391-49.2382813-18.6835938
	c-13.3642578-12.5849686-20.0458984-29.8408356-20.0458984-51.7656555c0-14.6616249,3.3085938-27.4414177,9.9257813-38.3403473
	c6.7460938-10.8989315,15.3095703-18.9428806,25.6894531-24.1328239
	c10.5087891-5.1899443,21.9267578-7.7846718,34.2529297-7.7846718c9.0820313,0,17.7099609,1.5571294,25.8837891,4.6709003
	s15.5048828,7.5249071,21.9921875,13.2338934c6.6172485,5.7089863,11.8076782,13.1044998,15.569397,22.1865349
	c3.8925781,9.0820351,5.8388672,19.1377068,5.8388672,30.1655388V76.6011658z M594.8796997,76.6011658
	c0,14.1425858,3.8271484,24.9765778,11.4824219,32.5019684c7.6542969,7.5253983,17.2558594,11.2880936,28.8037109,11.2880936
	c11.4169922,0,21.0185547-3.7626953,28.8037109-11.2880936c7.7841797-7.5253906,11.6767578-18.3593826,11.6767578-32.5019684
	c0-13.7524452-3.8925781-24.3916092-11.6767578-31.9170036c-7.7851563-7.654789-17.3212891-11.4824295-28.609375-11.4824295
	c-11.4169922,0-21.0185547,3.8276405-28.8037109,11.4824295C598.7722778,52.2095566,594.8796997,62.8487206,594.8796997,76.6011658z
	"/>
<path d="M770.6444092,34.6006584l-6.6171875,71.0366516c-1.6865234,17.6455154-6.0976563,29.1279449-13.234375,34.4472809
	c-7.1357422,5.3193359-19.7207031,6.6816406-37.7558594,4.0869141l0.5839844-21.0185623
	c7.9140625,0.7783203,13.234375-0.1298828,15.9589844-2.7246094s4.5410156-7.8496094,5.4492188-15.7636795L745.149292,8.5220337
	h91.6670532v136.2334595h-28.9981079V34.6026115L770.6444092,34.6006584z"/>
<path d="M1000,76.6011658c0,20.7597809-6.4873047,37.6914291-19.4619141,50.7969055
	c-12.9746094,13.1044922-29.7763672,19.65625-50.406311,19.65625c-19.3320313,0-35.7441406-6.2275391-49.2382813-18.6835938
	c-13.3632813-12.5849686-20.0449219-29.8408356-20.0449219-51.7656555c0-14.6616249,3.3076172-27.4414177,9.9248047-38.3403473
	c6.7470703-10.8989315,15.3105469-18.9428806,25.6894531-24.1328239
	c10.5097656-5.1899443,21.9267578-7.7846718,34.2529297-7.7846718c9.0830688,0,17.7109985,1.5571294,25.8848267,4.6709003
	s15.5039063,7.5249071,21.9921875,13.2338934c6.6171875,5.7089863,11.8066406,13.1044998,15.5693359,22.1865349
	C998.0546875,55.5205917,1000,65.5762634,1000,76.6040955V76.6011658z M890.2372437,76.6011658
	c0,14.1425858,3.828125,24.9765778,11.4824219,32.5019684c7.6552734,7.5253983,17.2558594,11.2880936,28.8037109,11.2880936
	c11.4180298,0,21.0195923-3.7626953,28.803772-11.2880936c7.7851563-7.5253906,11.6777344-18.3593826,11.6777344-32.5019684
	c0-13.7524452-3.8925781-24.3916092-11.6777344-31.9170036c-7.7841797-7.654789-17.3203125-11.4824295-28.6084595-11.4824295
	c-11.4179688,0-21.0185547,3.8276405-28.8037109,11.4824295C894.1298218,52.2095566,890.2372437,62.8487206,890.2372437,76.6011658z
	"/>
<path d="M69.0752258,104.6021576c2.7949295,0.25,0.3657227,0.4052734,4.1577225,0.4833984
	c25.2670975,0.4980469,49.4258041-0.6416016,64.836937-9.5380859
	c17.8964996-10.1728592,25.8921051-26.1064606,24.4863434-45.8462181l29.1831207,0.0009766l-24.7417145,94.1772919h56.5864563
	l26.227066-94.1772919h23.4013672c-15.7954102,57.2915306,4.5058594,97.1226044,66.4565735,96.9878387
	c12.89505,0,28.8413391-0.8476563,40.5000305-4.8955078l11.0419922-50.095726
	c-18.2734375,6.4414139-39.128418,7.5703201-44.2866211,6.8105545
	c-20.3779602-3.7421875-28.3296204-28.5097809,0.9165039-46.6362534
	c14.7451172-6.8496132,38.4277344-1.8437538,50.8212891,6.1181641l11.7915344-50.071312
	c-12.0610657-3.9106464-27.1836243-8.4467812-39.179718-7.870121c-0.6049805-0.0151367-1.2094727-0.0454102-1.7817383-0.0454102
	c-23.659668-0.0146484-57.8462219,6.5214877-79.7969055,34.4067535l6.4589844-32.2412262H161.3706818l-6.4350586,21.8984489
	c-8.6572266-18.382822-34.8286285-22.0366325-52.5312729-22.2104607c-17.046402,0-63.647007-0.0776367-63.647007-0.0776367
	L10.5092821,110.1177826l-0.2456055,0.8418045v-0.015625L0,143.8795166h59.5215149L69.0752258,104.6021576z M88.495163,36.0703888
	c0,0,12.4355469-0.0146484,16.1289139-0.0146484c18.5356522,0.4414063,9.4228516,35.3144684-5.755867,34.914566
	c-2.5986328,0-17.3857498-0.2763672-19.1347733-0.4018555L88.495163,36.0703888z"/>
</svg>
