<?xml version="1.0" encoding="utf-8"?>
<!-- Generator: Adobe Illustrator 23.1.0, SVG Export Plug-In . SVG Version: 6.00 Build 0)  -->
<svg version="1.1" id="Layer_2" xmlns="http://www.w3.org/2000/svg" xmlns:xlink="http://www.w3.org/1999/xlink" x="0px" y="0px"
	 width="1000px" height="128.5205231px" viewBox="0 0 1000 128.5205231" enable-background="new 0 0 1000 128.5205231"
	 xml:space="preserve">
<polygon points="399.3842773,31.0610485 368.1743164,31.0610485 368.1743164,9.3637838 454.6274414,9.3637838 
	454.6274414,31.0610485 423.5839844,31.0610485 423.5839844,126.1943512 399.3833008,126.1943512 "/>
<path d="M496.4326172,126.0088043h-25.0351563V9.1811666h49.9033203c12.90625,0,23.03125,4.1723633,30.375,12.5175772
	c7.4550781,8.3447266,11.1826172,18.3584003,11.1826172,30.0415058c0,11.4609375-3.7275391,21.1962891-11.1826172,29.2080078
	c-7.4550781,8.0107422-17.5800781,12.0166016-30.375,12.0166016h-24.8681641V126.0088043z M495.9316406,71.5996246h25.3681641
	c5.2294922,0,9.4580078-1.9462891,12.6845703-5.8408203c3.3378906-4.0058594,5.0068359-8.9013672,5.0068359-14.6875
	c0-5.6743164-1.6132813-10.4033203-4.8398438-14.1860352c-3.2275391-3.8945313-7.5107422-5.8417988-12.8515625-5.8413105
	h-25.3686523L495.9316406,71.5996246z"/>
<polygon points="652.0292969,9.3613424 652.0292969,31.2246227 605.6308594,31.2246227 605.6308594,54.9243317 
	649.0244141,54.9243317 649.0244141,76.7881012 605.6308594,76.7881012 605.6308594,103.4922028 653.3642578,103.4922028 
	653.3642578,126.1904449 580.4306641,126.1904449 580.4306641,9.3628073 "/>
<path d="M694.1289063,38.0605621h-22.03125c-0.4443359-10.1250019,2.9492188-17.802248,10.1806641-23.0317383
	c7.34375-5.3413086,16.4677734-8.0117188,27.3720703-8.0117188c11.7939453,0,21.1962891,3.1157231,28.2060547,9.3466797
	s10.5146484,14.1303711,10.5146484,23.6992207c0,4.6733398-1.2236328,9.0126953-3.671875,13.0180664
	c-2.3369141,4.0058594-5.5634766,7.2324219-9.6806641,9.6806641c13.1298828,6.0078125,19.6943359,15.8554688,19.6943359,29.5410156
	c0,10.9042969-4.0058594,19.6943359-12.0166016,26.3701172c-7.9003906,6.5644531-18.9150391,9.8476563-33.0458984,9.8476563
	c-12.9072266,0-23.1435547-3.2832031-30.7099609-9.8476563c-7.5654297-6.6757813-11.3486328-16.4677734-11.3486328-29.3740234
	h22.53125c0,5.6738281,1.8359375,10.1806641,5.5078125,13.5185547c3.7832031,3.3378906,8.4560547,5.0068359,14.0195313,5.0068359
	c6.0087891,0,10.7929688-1.5576172,14.3535156-4.6738281c3.671875-3.2255859,5.5078125-7.3427734,5.5078125-12.3505859
	c0-4.7841797-1.8916016-8.734375-5.6748047-11.8496094c-3.671875-3.2265625-8.4003906-4.8398438-14.1865234-4.8398438h-8.6787109
	V54.0820465h8.5117188c4.4511719,0.0004883,8.1230469-1.2792969,11.015625-3.8383789
	c3.0039063-2.6704102,4.5058594-5.8974609,4.5058594-9.6806641c0-4.2280273-1.5019531-7.565918-4.5058594-10.0136738
	c-3.0048828-2.4477539-6.6201172-3.671875-10.8486328-3.671875s-7.8994141,1.0014648-11.0146484,3.0043945
	c-3.0048828,1.8916016-4.5068359,4.6176777-4.5068359,8.1777363V38.0605621z"/>
<path d="M887.875,67.7597809c0,17.8027344-5.5634766,32.3232422-16.6904297,43.5605469
	c-11.1269531,11.2382813-25.5351563,16.8574219-43.2265625,16.8574219c-16.5791016,0-30.6542969-5.3408203-42.2255859-16.0224609
	c-11.4609375-10.7929688-17.1914063-25.5908203-17.1914063-44.3955078c0-12.5727539,2.8378906-23.5327148,8.5117188-32.8789063
	c5.7861328-9.3466816,13.1298828-16.2451191,22.03125-20.6958008c9.0117188-4.4501953,18.8037109-6.6757817,29.3740234-6.6757817
	c7.7890625,0,15.1875,1.3354497,22.1972656,4.0053716c7.0107422,2.6704102,13.296875,6.4536123,18.8603516,11.3496084
	c5.6738281,4.8955078,10.125,11.2377949,13.3515625,19.0263691c3.3378906,7.7885742,5.0068359,16.4116211,5.0068359,25.8691406
	H887.875z M793.7412109,67.7597809c0,12.1279297,3.2822266,21.4189453,9.8466797,27.8730469
	c6.5654297,6.453125,14.7988281,9.6806641,24.7011719,9.6796875c9.7919922,0.0009766,18.0253906-3.2265625,24.7011719-9.6796875
	c6.6757813-6.4541016,10.0136719-15.7441406,10.0136719-27.8730469c0-11.793457-3.3378906-20.9174805-10.0136719-27.3710938
	c-6.6757813-6.5649414-14.8535156-9.8471699-24.5341797-9.8471699c-9.7910156,0-18.0253906,3.2822285-24.7011719,9.8471699
	C797.0791016,46.8423004,793.7412109,55.9663239,793.7412109,67.7597809z"/>
<path d="M933.5732422,126.0088043h-25.0341797V9.1811666h49.9023438c12.9072266,0,23.0322266,4.1723633,30.3759766,12.5175772
	C996.2724609,30.0434704,1000,40.0571442,1000,51.7402496c0,11.4609375-3.7275391,21.1962891-11.1826172,29.2080078
	c-7.4550781,8.0107422-17.5800781,12.0166016-30.3759766,12.0166016h-24.8681641V126.0088043z M933.0722656,71.5996246h25.3691406
	c5.2294922,0,9.4570313-1.9462891,12.6835938-5.8408203c3.3378906-4.0058594,5.0078125-8.9013672,5.0078125-14.6875
	c0-5.6743164-1.6142578-10.4033203-4.8408203-14.1860352c-3.2265625-3.8945313-7.5097656-5.8417988-12.8505859-5.8413105
	h-25.3691406V71.5996246z"/>
<path d="M59.2412109,89.7099762c2.3969727,0.2138672,0.3134766,0.3466797,3.565918,0.4140625
	c21.6689453,0.4267578,42.3876953-0.5507813,55.6040039-8.1796875
	c15.3476563-8.7246094,22.2050781-22.3891602,20.9995117-39.3178711L164.4375,42.6269684l-21.21875,80.7636719h48.5283203
	l22.4926758-80.7636719h20.0688477c-13.5463867,49.1318359,3.8642578,83.2929688,56.9936523,83.1787109
	c11.0585938,0,24.7338867-0.7265625,34.7329102-4.1982422l9.4697266-42.9648438
	c-15.6713867,5.5244141-33.5566406,6.4931641-37.9799805,5.8417969
	c-17.4760742-3.2089844-24.2949219-24.4506836,0.7856445-39.9956055
	c12.6459961-5.8745117,32.9560547-1.5810547,43.5844727,5.2470703l10.1132813-42.9414063
	c-10.34375-3.3535154-23.3129883-7.2436523-33.6005859-6.7495117c-0.5185547-0.0097656-1.0371094-0.0449219-1.527832-0.0449219
	c-20.2905273-0.0102539-49.6088867,5.5922852-68.4335938,29.5063477l5.5395508-27.6494141H138.3930664l-5.519043,18.7802734
	C125.449707,4.8725724,103.0053711,1.7387836,87.8227539,1.5893695c-14.6186523,0-54.5839844-0.0683594-54.5839844-0.0683594
	L9.0126953,94.4345856l-0.2104492,0.7207031v-0.0097656L0,123.3906403h51.043457L59.2412109,89.7099762z M75.8959961,30.9360485
	c0,0,10.6640625-0.0102539,13.8320313-0.0102539c15.8964844,0.378418,8.0810547,30.2851582-4.9360352,29.942873
	c-2.2285156,0-14.909668-0.2368164-16.409668-0.3442383L75.8959961,30.9360485z"/>
</svg>
