<?xml version="1.0" encoding="utf-8"?>
<!-- Generator: Adobe Illustrator 23.1.0, SVG Export Plug-In . SVG Version: 6.00 Build 0)  -->
<svg version="1.1" id="Layer_2" xmlns="http://www.w3.org/2000/svg" xmlns:xlink="http://www.w3.org/1999/xlink" x="0px" y="0px"
	 width="1000px" height="129.5708771px" viewBox="0 0 1000 129.5708771" enable-background="new 0 0 1000 129.5708771"
	 xml:space="preserve">
<path d="M536.7214355,127.5884552h-28.3535156l-29.5268555-48.149437
	c-4.3618164,1.0058594-8.6123047,1.5097656-12.7505188,1.5097656v46.6396713h-24.8295898V80.9487839
	c-4.1386719,0-8.3886719-0.5039063-12.7504883-1.5097656l-29.5273743,48.149437h-28.3530273v-3.6914063l36.070343-54.3594055
	c-5.480011-5.2568359-10.1777649-15.8261795-14.0923157-31.7085114
	c-2.3486328-8.3886757-8.2763672-11.8554745-17.7832031-10.4018593V10.48244
	c22.7045898-4.8090849,36.070343,2.0693369,40.0967102,20.6352654c2.7958984,13.4218807,6.934082,21.6420994,12.4150391,24.6621189
	c2.9077148,1.7895546,7.5493164,2.6840858,13.9248047,2.6840858V10.1465015h24.8295898v48.3174057
	c6.4873352,0,11.1846008-0.8945313,14.092804-2.6840858c2.3486328-1.3422852,4.4179688-3.6352539,6.2075195-6.878418
	c1.9013672-3.2436562,3.1875-6.0395546,3.8583984-8.3881874c0.6708984-2.4609413,1.4541016-5.592289,2.3486328-9.3955135
	c3.9150391-18.5664158,17.2246094-25.4448376,39.9296875-20.6352654v16.9448318
	c-9.3955078-1.4536152-15.3232422,2.0131836-17.7841797,10.4018593c-2.125,8.0532265-4.1933594,14.5400467-6.2070313,19.4614372
	c-1.9013672,4.9213867-4.4736328,9.0039101-7.7167969,12.2470741l35.9023438,54.3594055L536.7214355,127.5884552z"/>
<polygon points="627.3709106,60.4888115 560.9362793,127.9331818 553.3864746,127.9331818 553.3864746,10.1591969 
	578.5525513,10.1591969 578.5525513,76.763237 644.4871216,9.654314 652.3718872,9.654314 652.3718872,127.593338 
	627.3738403,127.593338 "/>
<path d="M766.4696045,45.0386086c0,4.3618202-1.0625,8.5000038-3.1875,12.4150467
	c-2.0126953,3.9145508-4.8652344,6.9902382-8.5566406,9.2275429c11.1845703,4.6972656,16.7773438,13.4218826,16.7773438,26.1718903
	c0,10.5136719-3.2998047,18.9580154-9.8984375,25.3330154c-6.5996094,6.2636795-15.7148438,9.3955154-27.3466797,9.3955154
	h-54.5244751V10.3120298h49.8272095c10.9609375,0,19.8525391,3.1318369,26.6748047,9.3950243
	c6.8232422,6.1518574,10.234375,14.596199,10.234375,25.3335075V45.0386086z M727.7147217,31.7846966h-22.984375v26.6753063
	h22.984375c4.25,0,7.6054688-1.1186523,10.0664063-3.3554726c2.5722656-2.2368164,3.9140625-5.3125,4.0263672-9.2275429
	c0.1123047-4.25-1.1181641-7.6616249-3.6914063-10.2338905c-2.5722656-2.5722656-6.0390625-3.8588886-10.4013672-3.8588886
	V31.7846966z M731.4061279,78.9282761h-26.6757813v26.8427811h27.8496094c4.25,0,7.6054688-1.1191406,10.0664063-3.3554688
	c2.4609375-2.3496094,3.8027344-5.5371094,4.0263672-9.5634766c0.2236328-5.1445389-1.5097656-9.0039139-5.2011719-11.5752029
	C739.2352295,79.7114792,735.8797607,78.9282761,731.4061279,78.9282761z"/>
<path d="M905.6688843,68.8384247c0,17.8955154-5.5927734,32.4912262-16.7773438,43.7881088
	s-25.6679688,16.9453201-43.4521484,16.9443436c-16.6650391,0-30.8134766-5.3681641-42.4453735-16.1054764
	c-11.5205078-10.8486404-17.2802734-25.7246246-17.2802734-44.626976c0-12.6386757,2.8515625-23.6552849,8.5566406-33.0507965
	c5.8154297-9.394537,13.1972656-16.3295975,22.1455688-20.8032341c9.0585938-4.474123,18.9013672-6.7109404,29.5263672-6.7109404
	c7.8300781,0,15.2675781,1.3417969,22.3134766,4.0263691c7.046875,2.684083,13.3662109,6.4868183,18.9580078,11.4082088
	c5.7041016,4.9213886,10.1787109,11.2963924,13.421875,19.1259861c3.3554688,7.8295937,5.0322266,16.4975662,5.0322266,26.004406
	H905.6688843z M811.0496826,68.8384247c0,12.1914139,3.2988892,21.5302811,9.8984985,28.0175934
	c6.5986328,6.4873047,14.875,9.7304688,24.8300781,9.7304688c9.8417969,0,18.1191406-3.2431641,24.8291016-9.7304688
	c6.7109375-6.4873123,10.0664063-15.8261795,10.0664063-28.0175934c0-11.8554726-3.3554688-21.0268669-10.0664063-27.5141716
	c-6.7099609-6.5986366-14.9306641-9.8984432-24.6611328-9.8984432c-9.8427734,0-18.1191406,3.2998066-24.8300781,9.8984432
	C814.4052124,47.8110695,811.0496826,56.9824638,811.0496826,68.8384247z"/>
<polygon points="944.46875,31.9389935 913.0956421,31.9389935 913.0956421,10.1289234 1000,10.1289234 1000,31.9389935 
	968.7958984,31.9389935 968.7958984,127.5679474 944.4697266,127.5679474 "/>
<path d="M59.5239563,90.138237c2.4086914,0.2158203,0.3149414,0.3496094,3.5830078,0.4160156
	c21.7724686,0.4287109,42.5903549-0.5527344,55.8696594-8.2177734
	c15.4208984-8.7666092,22.3115387-22.4965935,21.1000977-39.5058784l25.1464996,0.0004883l-21.3198242,81.1489716h48.7597809
	l22.5996246-81.1489716h20.1650543c-13.6108551,49.3657494,3.8828125,83.69487,57.264679,83.5747528
	c11.1118164,0,24.8520508-0.7304688,34.8984375-4.2177811l9.5151367-43.1699371
	c-15.7456055,5.5498047-33.7167969,6.5234375-38.1611328,5.8691406
	c-17.5595703-3.2236328-24.4111633-24.5664177,0.7895508-40.1860542c12.706543-5.9023476,33.1132813-1.5888672,43.7929688,5.2719765
	l10.160675-43.146019c-10.3935852-3.3701191-23.4238586-7.2793007-33.761261-6.7822299
	c-0.5209961-0.0097656-1.0419922-0.0449219-1.534668-0.0449219c-20.3876953-0.0097656-49.8457336,5.6196313-68.7597961,29.6479626
	l5.565918-27.7817516H139.053772l-5.5454102,18.8701267C126.0484009,4.8960114,103.4971237,1.7475721,88.241745,1.5976697
	c-14.6889725,0-54.8447571-0.0688477-54.8447571-0.0688477L9.0551805,94.8833618l-0.2114258,0.7246094v-0.0097656L0,123.9781036
	h51.2895775L59.5239563,90.138237z M76.2583389,31.084013c0,0,10.7158279-0.0102539,13.8979568-0.0102539
	c15.9721756,0.3808594,8.1196289,30.4306774-4.9594803,30.0859509c-2.2392578,0-14.9809647-0.2382813-16.4882889-0.3461914
	L76.2583389,31.084013z"/>
</svg>
