<?xml version="1.0" encoding="utf-8"?>
<!-- Generator: Adobe Illustrator 23.1.0, SVG Export Plug-In . SVG Version: 6.00 Build 0)  -->
<svg version="1.1" id="Layer_2" xmlns="http://www.w3.org/2000/svg" xmlns:xlink="http://www.w3.org/1999/xlink" x="0px" y="0px"
	 width="1000px" height="147.2273712px" viewBox="0 0 1000 147.2273712" enable-background="new 0 0 1000 147.2273712"
	 xml:space="preserve">
<path d="M61.3891602,92.9519806c2.4833984,0.2216797,0.3251953,0.359375,3.6948242,0.4296875
	c22.4526367,0.4423828,43.9208984-0.5703125,57.6162109-8.4755859c15.902832-9.0400391,23.0083008-23.1992188,21.7592773-40.7397461
	l25.9326172,0.0004883L148.40625,127.8533478h50.2807617l23.3061523-83.6865234h20.7949219
	c-14.0366211,50.9111328,4.0039063,86.3066406,59.0561523,86.1865234c11.4584961,0,25.6289063-0.7529297,35.9892578-4.3496094
	l9.8120117-44.5185547c-16.2382813,5.7236328-34.7705078,6.7265625-39.3544922,6.0517578
	c-18.1083984-3.3251953-25.1738281-25.3344727,0.8144531-41.4414063
	c13.1035156-6.0874023,34.1479492-1.6386719,45.1616211,5.4370117L364.7451172,7.03792
	c-10.7182617-3.4746096-24.1557617-7.5058594-34.815918-6.9936523c-0.5375977-0.0097656-1.0751953-0.0400391-1.5834961-0.0400391
	c-21.0244141-0.0097656-51.4057617,5.7954102-70.9111328,30.5742188l5.7402344-28.6494141H143.4023438l-5.71875,19.4594727
	C129.9902344,5.053545,106.734375,1.8059863,91.0019531,1.6521777c-15.1474609,0-56.5610352-0.0693359-56.5610352-0.0693359
	L9.3388672,97.8553009l-0.2182617,0.7470703v-0.0097656L0,127.8592072h52.8911133L61.3891602,92.9519806z M78.6464844,32.0506134
	c0,0,11.050293-0.0102539,14.3320313-0.0102539c16.4716797,0.3925781,8.3735352,31.3813477-5.1147461,31.0263672
	c-2.3095703,0-15.4492188-0.2456055-17.003418-0.3569336L78.6464844,32.0506134z"/>
<path d="M432.496582,31.60042l-6.3852539,60.7460938c-0.8051758,7.8232422-3.5087891,13.2890625-8.1108398,16.3955078h45.3876953
	V31.5999317L432.496582,31.60042z M382.6220703,108.2224884h4.1416016c4.9472656-0.1162109,8.2836914-1.3818359,10.0092773-3.796875
	c1.8408203-2.53125,3.1064453-6.9033203,3.796875-13.1162109l9.4916992-81.9716797h78.6967773v98.8876953h12.9428711v39.0019531
	h-23.1254883v-17.0849609h-71.6210938v17.0849609h-24.3334961L382.6220703,108.2224884z"/>
<path d="M548.2988281,129.9519806h-25.8867188V9.1502247h51.6015625c13.3457031,0,23.8154297,4.3144531,31.4091797,12.9428711
	c7.7080078,8.6289063,11.5625,18.9833965,11.5625,31.0639629c0,11.8500977-3.8544922,21.9169922-11.5625,30.2011719
	c-7.7089844,8.2832031-18.1787109,12.4248047-31.4091797,12.4248047h-25.7138672L548.2988281,129.9519806z M547.78125,73.6912384
	h26.2314453c5.4072266,0,9.7792969-2.0131836,13.1162109-6.0400391c3.4511719-4.1416016,5.1767578-9.2041016,5.1767578-15.1870117
	c0-5.8671875-1.6679688-10.7568359-5.0048828-14.6689453c-3.3359375-4.0268555-7.765625-6.0400372-13.2880859-6.0400372H547.78125
	V73.6912384z"/>
<path d="M699.2021484,110.1023712h-50.2216797l-9.3183594,20.0185547h-26.9228516v-3.4511719L668.3105469,8.2820606H680.21875
	l55.2255859,118.3876953v3.4511719h-26.7490234L699.2021484,110.1023712z M674.1787109,48.4910431l-16.7402344,39.8652344
	h33.4794922L674.1787109,48.4910431z"/>
<polygon points="806.4042969,66.451004 854.8984375,8.9851856 864.2167969,8.9851856 864.2167969,130.1326447 
	838.3310547,130.1326447 838.3310547,64.7263947 807.9570313,102.6931915 804.6777344,102.6931915 774.3046875,64.7259064 
	774.3046875,130.1326447 748.4179688,130.1326447 748.4179688,8.9851856 757.9091797,8.9851856 "/>
<path d="M963.7568359,110.1023712h-50.2207031l-9.3193359,20.0185547h-26.921875v-3.4511719L932.8662109,8.2820606h11.9072266
	L1000,126.669754v3.4511719h-26.75L963.7568359,110.1023712z M938.7333984,48.4910431l-16.7392578,39.8652344h33.4794922
	L938.7333984,48.4910431z"/>
</svg>
