<?xml version="1.0" encoding="utf-8"?>
<!-- Generator: Adobe Illustrator 23.1.0, SVG Export Plug-In . SVG Version: 6.00 Build 0)  -->
<svg version="1.1" id="Layer_2" xmlns="http://www.w3.org/2000/svg" xmlns:xlink="http://www.w3.org/1999/xlink" x="0px" y="0px"
	 width="1000px" height="103.1465378px" viewBox="0 0 1000 103.1465378" enable-background="new 0 0 1000 103.1465378"
	 xml:space="preserve">
<polygon points="275.8935547,7.3213406 344.7006836,7.3213406 344.7006836,92.2637253 326.4980469,92.2637253 
	326.4980469,23.8218327 294.0976563,23.8218327 294.0976563,92.2637253 275.8950195,92.2637253 "/>
<path d="M446.3481445,49.7725182c0,12.9443359-4.0449219,23.5019493-12.1347656,31.6728477
	s-18.5664063,12.2558594-31.4291992,12.2558594c-12.0541992,0-22.2875977-3.8828125-30.7011719-11.6494141
	C363.75,74.2051315,359.5839844,63.4453697,359.5839844,49.7730064c0-9.1416016,2.0629883-17.1098633,6.1884766-23.9052753
	c4.2070313-6.7958984,9.5463867-11.8115273,16.0180664-15.0473671c6.5527344-3.2363281,13.671875-4.8540039,21.3574219-4.8540039
	c5.6630859,0,11.0429688,0.9707031,16.1396484,2.9121094C424.3842773,10.820364,428.9550781,13.5708523,433,17.1304264
	c4.1254883,3.5595703,7.3613281,8.1704102,9.7075195,13.8339844c2.4272461,5.6625996,3.640625,11.9321308,3.640625,18.8085957
	V49.7725182z M377.90625,49.7725182c0,8.8183594,2.3867188,15.5732384,7.159668,20.2656212
	c4.7734375,4.6923828,10.7597656,7.0380859,17.9594727,7.0380859c7.1191406,0,13.105957-2.3457031,17.9594727-7.0380859
	c4.8540039-4.6923828,7.2807617-11.4472618,7.2807617-20.2656212c0-8.5751953-2.4267578-15.2084961-7.2807617-19.9008808
	c-4.8540039-4.7729492-10.800293-7.159668-17.8383789-7.159668c-7.1191406,0-13.1054688,2.3867188-17.9594727,7.159668
	c-4.8540039,4.6923847-7.28125,11.3256855-7.28125,19.9008808H377.90625z"/>
<path d="M487.4995117,23.5718327l-4.1259766,44.2924805c-1.0517578,11.0019531-3.8022461,18.1621094-8.2519531,21.4785156
	c-4.4492188,3.3164063-12.2963867,4.1660156-23.5415039,2.5478516l0.3642578-13.1054688
	c4.9345703,0.4853516,8.2514648-0.0810547,9.9506836-1.6992188c1.6987305-1.6171875,2.831543-4.8945313,3.3974609-9.8291016
	l6.3105469-59.9462891h57.1567383v84.9423828h-18.0810547V23.5708561L487.4995117,23.5718327z"/>
<polygon points="600.5019531,7.3213406 600.5019531,23.218317 566.7675781,23.218317 566.7675781,40.4497643 
	598.3183594,40.4497643 598.3183594,56.3467369 566.7675781,56.3467369 566.7675781,75.7627487 601.4736328,75.7627487 
	601.4736328,92.266655 548.4423828,92.266655 548.4423828,7.3242702 "/>
<polygon points="632.953125,23.0718327 610.2607422,23.0718327 610.2607422,7.2964382 673.1181641,7.2964382 
	673.1181641,23.0718327 650.546875,23.0718327 650.546875,92.2383347 632.9511719,92.2383347 "/>
<path d="M729.0556641,78.1738815h-35.3125l-6.5527344,14.0761719h-18.9306641v-2.4267578l39.0751953-83.2475586h8.3730469
	l38.8310547,83.2475586v2.4267578h-18.8085938L729.0556641,78.1738815z M711.4599609,34.8516197l-11.7705078,28.0322266h23.5419922
	L711.4599609,34.8516197z"/>
<path d="M782.0068359,92.1240768h-18.2021484V7.1816921h36.2832031c9.3847656,0,16.7460938,3.0336914,22.0859375,9.1010742
	c5.4199219,6.0673866,8.1298828,13.3481483,8.1298828,21.8427792c0,8.3325195-2.7099609,15.4106445-8.1298828,21.2358398
	s-12.7822266,8.7373009-22.0859375,8.7373009h-18.0810547V92.1240768z M781.6425781,52.5635338h18.4453125
	c3.8027344,0,6.8769531-1.4155273,9.2226563-4.2470703c2.4267578-2.9121094,3.640625-6.4716797,3.640625-10.6787109
	c0-4.1259766-1.1728516-7.5639668-3.5195313-10.3149433c-2.3457031-2.831543-5.4599609-4.2470703-9.34375-4.2470703h-18.4443359
	L781.6425781,52.5635338z"/>
<path d="M888.109375,78.1738815h-35.3115234l-6.5527344,14.0761719h-18.9306641v-2.4267578l39.0742188-83.2475586h8.3730469
	L913.59375,89.8232956v2.4267578h-18.8095703L888.109375,78.1738815z M870.5146484,34.8516197l-11.7714844,28.0322266h23.5419922
	L870.5146484,34.8516197z"/>
<polygon points="983.8623047,92.2236862 922.7011719,92.2236862 922.7011719,7.2817898 940.9033203,7.2817898 
	940.9033203,75.7236862 971.4833984,75.7236862 971.4833984,7.2817898 989.8066406,7.2817898 989.8066406,76.81353 1000,76.81353 
	1000,103.1465378 983.8603516,103.1465378 "/>
<path d="M43.4375,65.7734909c1.7573242,0.1572266,0.2299805,0.2539063,2.6142578,0.3027344
	c15.8881836,0.3134766,31.0786133-0.4033203,40.7700195-5.9970665
	c11.2524414-6.3964844,16.2807617-16.4150391,15.3964844-28.8276386l18.3496094,0.0004883l-15.5571289,59.2167969h35.5800781
	l16.4916992-59.2167969h14.7143555c-9.9321289,36.0234375,2.8330078,61.0712891,41.7866211,60.9863281
	c8.1079102,0,18.1347656-0.5322266,25.4658203-3.0771484l6.9433594-31.5019493
	c-11.4902344,4.0498047-24.6035156,4.7597656-27.8466797,4.2822266
	c-12.8134766-2.3525391-17.8134766-17.9267578,0.5761719-29.3237305c9.2719727-4.3071308,24.1630859-1.1596699,31.956543,3.8466797
	l7.4140625-31.4843807c-7.5844727-2.4584961-17.0922852-5.3110352-24.6357422-4.9487305
	c-0.3803711-0.0097656-0.7602539-0.0297852-1.1201172-0.0297852c-14.8769531-0.0102539-36.3730469,4.1005859-50.1762695,21.6347694
	l4.0615234-20.272953h-84.7524414L97.4233398,15.132864C91.9799805,3.5742702,75.5239258,1.2764187,64.3916016,1.167532
	c-10.7182617,0-40.0209961-0.0498047-40.0209961-0.0498047L6.6079102,69.2393112l-0.1542969,0.5292969v-0.0107422L0,90.4678268
	h37.4257813L43.4375,65.7734909z M55.6489258,22.6797428c0,0,7.8193359-0.0097656,10.1416016-0.0097656
	c11.6547852,0.277832,5.925293,22.20508-3.6191406,21.9541035c-1.6337891,0-10.9316406-0.1733398-12.03125-0.2524414
	L55.6489258,22.6797428z"/>
</svg>
