<?xml version="1.0" encoding="utf-8"?>
<!-- Generator: Adobe Illustrator 27.0.1, SVG Export Plug-In . SVG Version: 6.00 Build 0)  -->
<svg version="1.1" id="Слой_1" xmlns="http://www.w3.org/2000/svg" xmlns:xlink="http://www.w3.org/1999/xlink" x="0px" y="0px"
	 width="500px" height="56.2px" viewBox="0 0 500 56.2" style="enable-background:new 0 0 500 56.2;" xml:space="preserve">
<style type="text/css">
	.st0{fill-rule:evenodd;clip-rule:evenodd;}
</style>
<g>
	<polygon class="st0" points="469.4,26 453.5,26 453.5,11.8 449.8,11.8 449.8,43.6 453.5,43.6 453.5,29.4 469.4,29.4 469.4,43.6 
		473.1,43.6 473.1,11.8 469.4,11.8 	"/>
	<path class="st0" d="M486.9,11.8h-9.8v31.8h9.8c8.7,0,13.1-5.3,13.1-15.9C500,17.1,495.6,11.8,486.9,11.8z M486.9,40.2h-6.5v-25
		h6.5c6.5,0,9.8,4.2,9.8,12.5C496.7,36,493.5,40.2,486.9,40.2z"/>
	<polygon class="st0" points="207.6,21.4 187.1,21.4 187.1,1 175.7,1 175.7,54.5 187.1,54.5 187.1,31.8 207.6,31.8 207.6,54.5 
		219,54.5 219,1 207.6,1 	"/>
	<path class="st0" d="M250.7,0.5l-24.6,52.4v1.5h11.9l4.1-8.9h22.2l4.2,8.9h11.8v-1.5L256,0.5H250.7z M245.9,36l7.4-17.6l7.4,17.6
		H245.9z"/>
	<path class="st0" d="M307,24.6h-0.4L294.5,1h-12.6v1.5l18.9,33.8l-2.3,4.8c-2.5,5.4-5.8,6.3-11.1,4l-1.5,9.3
		c13.4,5,19.1-0.6,24-11.5L330,2.1V1h-12.1L307,24.6z"/>
	<path class="st0" d="M374.1,13.8c1.1-4,3.4-5.3,7.7-5V1.1c-11.8-2.4-16.4,2.7-18.3,9.4c-1.5,6-2.5,10.1-5.3,11.6
		c-2.1,1.1-6,1-9.2,1V1h-11.4v53.5H349V33c2.4,0,6.3,0,8.4-0.5l13.4,22h12.9v-1.7L367.4,28C370.7,24.7,372.5,19.9,374.1,13.8z"/>
	<path class="st0" d="M410.6,0.5L386,52.9v1.5h11.9l4.1-8.9h22.2l4.2,8.9h11.8v-1.5L415.9,0.5H410.6z M405.8,36l7.4-17.6l7.4,17.6
		H405.8z"/>
	<path class="st0" d="M130,0.8c-10.2,2.4-16.3,7.3-21,13.2c-0.1,0.1-0.1,0.1-0.2,0.2L112,0.7l-49.5,0L60,11.5
		c0,0-3.3-10.8-18.6-10.8c-12.1,0-27.4,0-27.4,0L0,54h22.4l3.8-14.5c0,0,7.4,0.2,13.7-0.1c6.2-0.3,13.9-2.6,18.3-9
		c3.4-5.1,3.5-12,3.5-12h10.8l-9.6,35.8h22l9.6-35.9l11,0.1c0,0-2.8,5.8-3.6,12.1c-2.5,21.1,18.3,26.3,30.3,25
		c5-0.5,11.6-2.1,11.6-2.1l4.5-18.9c0,0-7.9,2.8-13.8,2.9c-5.9,0.1-10.7-2.6-10-8c0.7-5.6,5.5-10,11.3-10.8
		c8.4-1.1,15.2,3.3,15.2,3.3l4.5-19C149.2-0.1,136.7-0.7,130,0.8z M41.7,23.6c-2.8,3.8-9.4,2.9-12,3l3.6-13.4c0,0,2.2,0,5.4,0.1
		C43.7,13.4,44.7,19.6,41.7,23.6z"/>
</g>
</svg>
