<?xml version="1.0" encoding="UTF-8"?>
<svg version="1.1" xmlns="http://www.w3.org/2000/svg" width="180" height="180">
<path d="M0 0 C59.4 0 118.8 0 180 0 C180 59.4 180 118.8 180 180 C120.6 180 61.2 180 0 180 C0 120.6 0 61.2 0 0 Z " fill="#FEFEFE" transform="translate(0,0)"/>
<path d="M0 0 C8.76869476 5.25397 12.89852374 10.88697748 16.0859375 20.44921875 C17.26438255 25.74169965 17.37811182 31.31734135 16.8359375 36.69921875 C16.1759375 37.68921875 15.5159375 38.67921875 14.8359375 39.69921875 C12.07882481 40.2442294 9.49441204 40.6247164 6.7109375 40.88671875 C5.95683594 40.96857422 5.20273438 41.05042969 4.42578125 41.13476562 C2.56377143 41.33510845 0.69997939 41.51875911 -1.1640625 41.69921875 C0.02096011 47.19844427 0.02096011 47.19844427 3.9609375 51.01171875 C4.9096875 51.56859375 5.8584375 52.12546875 6.8359375 52.69921875 C6.8359375 53.35921875 6.8359375 54.01921875 6.8359375 54.69921875 C7.4959375 54.69921875 8.1559375 54.69921875 8.8359375 54.69921875 C14.60139501 65.17484913 14.39179003 77.32999085 11.2109375 88.63671875 C5.23762652 105.37031465 -6.60366421 117.19258075 -22.4140625 124.88671875 C-34.91978741 130.37452509 -47.89556337 134.69053092 -61.2265625 129.69140625 C-64.1172353 128.21110203 -66.04811083 126.12633978 -68.1640625 123.69921875 C-71.54821164 121.44311932 -74.21275743 120.87226952 -78.1640625 119.94921875 C-88.42113549 117.37536965 -97.08946734 112.52258532 -105.1640625 105.69921875 C-106.13085938 104.89291016 -106.13085938 104.89291016 -107.1171875 104.0703125 C-118.92897485 93.30484489 -125.1519798 78.33768328 -127.1640625 62.69921875 C-127.26297975 44.4984439 -122.50802135 28.0353825 -109.8984375 14.375 C-102.10635059 6.84615926 -94.29186612 1.60512076 -84.1640625 -2.30078125 C-83.31714844 -2.64109375 -82.47023437 -2.98140625 -81.59765625 -3.33203125 C-70.81723868 -6.97611606 -57.56884944 -6.39629019 -46.5390625 -4.11328125 C-41.55042049 -3.10018168 -38.45343454 -3.85028652 -33.7265625 -5.5546875 C-22.34015381 -8.86993759 -10.09606484 -5.35947915 0 0 Z " fill="#C9E3FC" transform="translate(145.1640625,27.30078125)"/>
<path d="M0 0 C0.83539307 -0.00563965 1.67078613 -0.0112793 2.53149414 -0.01708984 C8.19936576 0.04884813 13.39676786 0.87159793 18.875 2.3125 C18.875 6.3125 18.875 6.3125 16.75 8.5 C16.29496094 8.92796875 15.83992188 9.3559375 15.37109375 9.796875 C9.19301831 16.05560417 6.8472359 22.90648725 4.9296875 31.37109375 C3.875 34.3125 3.875 34.3125 1.8203125 35.53515625 C1.17835937 35.79167969 0.53640625 36.04820313 -0.125 36.3125 C-0.455 37.3025 -0.785 38.2925 -1.125 39.3125 C-1.785 39.3125 -2.445 39.3125 -3.125 39.3125 C-2.63 45.7475 -2.63 45.7475 -2.125 52.3125 C0.35 51.8175 0.35 51.8175 2.875 51.3125 C5.40993372 52.93485758 6.21096769 54.94843883 7.625 57.625 C13.83725505 68.59459535 26.04328905 71.29808259 37.44140625 74.5546875 C41.68735511 75.87686098 45.77630931 77.59453816 49.875 79.3125 C49.875 81.2925 49.875 83.2725 49.875 85.3125 C48.225 84.3225 46.575 83.3325 44.875 82.3125 C44.648125 83.01375 44.42125 83.715 44.1875 84.4375 C42.27938415 88.61718233 39.70655187 92.01268899 35.9375 94.6875 C33.17479645 95.52468289 30.74209292 95.50363953 27.875 95.3125 C26.875 94.3125 26.875 94.3125 26.8125 90.75 C26.833125 89.615625 26.85375 88.48125 26.875 87.3125 C26.070625 87.498125 25.26625 87.68375 24.4375 87.875 C23.1690625 88.0915625 23.1690625 88.0915625 21.875 88.3125 C21.545 87.9825 21.215 87.6525 20.875 87.3125 C18.65812006 87.15376045 16.43644702 87.06116163 14.21484375 86.99609375 C13.21814415 86.9649221 13.21814415 86.9649221 12.2013092 86.93312073 C10.07181457 86.86756342 7.94219332 86.80871215 5.8125 86.75 C4.37173153 86.70682061 2.93097601 86.66320651 1.49023438 86.61914062 C-2.0480404 86.51187607 -5.58645869 86.41062629 -9.125 86.3125 C-9.62 82.8475 -9.62 82.8475 -10.125 79.3125 C-13.095 78.9825 -16.065 78.6525 -19.125 78.3125 C-18.939375 79.529375 -18.75375 80.74625 -18.5625 82 C-18.40587891 83.02673828 -18.40587891 83.02673828 -18.24609375 84.07421875 C-16.93171277 86.69840098 -16.08833584 86.94653592 -13.58203125 88.3203125 C-11.00579339 90.04387289 -10.23968556 90.83357781 -9.50756836 93.89086914 C-9.31674356 97.10996675 -9.30356562 100.27605349 -9.375 103.5 C-9.44295574 111.67895922 -9.0008901 118.59682953 -6.125 126.3125 C-20.44916965 127.61469724 -33.59290445 118.41691422 -44.0859375 109.6796875 C-55.88868362 98.90326713 -62.11241258 83.95488738 -64.125 68.3125 C-64.22391725 50.11172515 -59.46895885 33.64866375 -46.859375 19.98828125 C-39.06728809 12.45944051 -31.25280362 7.21840201 -21.125 3.3125 C-20.27808594 2.9721875 -19.43117187 2.631875 -18.55859375 2.28125 C-12.43290019 0.21059302 -6.40584454 0.04105935 0 0 Z " fill="#4656FC" transform="translate(82.125,21.6875)"/>
<path d="M0 0 C2.95790562 1.4859455 5.86480171 3.02428209 8.7421875 4.66015625 C8.7421875 7.30015625 8.7421875 9.94015625 8.7421875 12.66015625 C6.1021875 13.32015625 3.4621875 13.98015625 0.7421875 14.66015625 C0.7421875 14.00015625 0.7421875 13.34015625 0.7421875 12.66015625 C-4.08223434 13.92962139 -4.08223434 13.92962139 -7.2578125 17.66015625 C-7.9178125 17.66015625 -8.5778125 17.66015625 -9.2578125 17.66015625 C-9.1340625 18.73265625 -9.0103125 19.80515625 -8.8828125 20.91015625 C-9.0684375 22.76640625 -9.0684375 22.76640625 -9.2578125 24.66015625 C-12.1328125 26.84765625 -12.1328125 26.84765625 -15.2578125 28.66015625 C-16.64649766 30.76054956 -16.64649766 30.76054956 -17.2578125 32.66015625 C-19.2378125 32.66015625 -21.2178125 32.66015625 -23.2578125 32.66015625 C-23.2578125 33.32015625 -23.2578125 33.98015625 -23.2578125 34.66015625 C-23.9178125 34.66015625 -24.5778125 34.66015625 -25.2578125 34.66015625 C-24.9278125 35.98015625 -24.5978125 37.30015625 -24.2578125 38.66015625 C-23.5978125 38.66015625 -22.9378125 38.66015625 -22.2578125 38.66015625 C-21.9278125 44.93015625 -21.5978125 51.20015625 -21.2578125 57.66015625 C-20.5978125 57.99015625 -19.9378125 58.32015625 -19.2578125 58.66015625 C-18.9278125 56.02015625 -18.5978125 53.38015625 -18.2578125 50.66015625 C-17.2678125 50.66015625 -16.2778125 50.66015625 -15.2578125 50.66015625 C-14.9278125 53.96015625 -14.5978125 57.26015625 -14.2578125 60.66015625 C-10.6278125 60.33015625 -6.9978125 60.00015625 -3.2578125 59.66015625 C-1.36460862 77.71840868 -1.36460862 77.71840868 -3.2578125 84.66015625 C-5.2378125 85.65015625 -5.2378125 85.65015625 -7.2578125 86.66015625 C-4.2878125 87.98015625 -1.3178125 89.30015625 1.7421875 90.66015625 C1.7421875 91.32015625 1.7421875 91.98015625 1.7421875 92.66015625 C-1.93534388 91.94237302 -4.98972557 90.41064888 -8.3203125 88.72265625 C-9.36316406 88.19800781 -10.40601563 87.67335938 -11.48046875 87.1328125 C-14.2578125 85.66015625 -14.2578125 85.66015625 -17.2578125 83.66015625 C-17.2578125 83.00015625 -17.2578125 82.34015625 -17.2578125 81.66015625 C-17.9178125 81.66015625 -18.5778125 81.66015625 -19.2578125 81.66015625 C-20.8828125 80.28515625 -20.8828125 80.28515625 -22.2578125 78.66015625 C-22.2578125 78.00015625 -22.2578125 77.34015625 -22.2578125 76.66015625 C-22.9178125 76.66015625 -23.5778125 76.66015625 -24.2578125 76.66015625 C-26.7328125 72.20515625 -26.7328125 72.20515625 -29.2578125 67.66015625 C-28.9278125 70.63015625 -28.5978125 73.60015625 -28.2578125 76.66015625 C-27.5978125 76.66015625 -26.9378125 76.66015625 -26.2578125 76.66015625 C-26.2578125 77.32015625 -26.2578125 77.98015625 -26.2578125 78.66015625 C-24.7728125 79.15515625 -24.7728125 79.15515625 -23.2578125 79.66015625 C-22.9278125 81.97015625 -22.5978125 84.28015625 -22.2578125 86.66015625 C-21.5978125 86.66015625 -20.9378125 86.66015625 -20.2578125 86.66015625 C-20.2578125 87.32015625 -20.2578125 87.98015625 -20.2578125 88.66015625 C-19.5978125 88.66015625 -18.9378125 88.66015625 -18.2578125 88.66015625 C-18.06445312 89.42714844 -17.87109375 90.19414062 -17.671875 90.984375 C-15.69692199 94.72150985 -13.56755113 95.12250084 -9.6328125 96.47265625 C-8.44429687 96.89160156 -7.25578125 97.31054688 -6.03125 97.7421875 C-4.65839844 98.19658203 -4.65839844 98.19658203 -3.2578125 98.66015625 C-3.2578125 99.32015625 -3.2578125 99.98015625 -3.2578125 100.66015625 C0.3721875 101.32015625 4.0021875 101.98015625 7.7421875 102.66015625 C7.38125 101.82613281 7.0203125 100.99210937 6.6484375 100.1328125 C3.83512034 93.3105184 2.01571732 88.04593637 2.7421875 80.66015625 C3.0721875 80.00015625 3.4021875 79.34015625 3.7421875 78.66015625 C4.4021875 78.66015625 5.0621875 78.66015625 5.7421875 78.66015625 C5.85175781 79.69914062 5.96132812 80.738125 6.07421875 81.80859375 C6.95439969 89.69804358 8.03313125 97.14704025 10.7421875 104.66015625 C-3.58198215 105.96235349 -16.72571695 96.76457047 -27.21875 88.02734375 C-37.90611034 78.26931909 -45.4842934 63.80407544 -46.48828125 49.33984375 C-46.5046559 46.77884779 -46.39604574 44.21747125 -46.2578125 41.66015625 C-41.6378125 41.66015625 -37.0178125 41.66015625 -32.2578125 41.66015625 C-32.3196875 40.23703125 -32.3815625 38.81390625 -32.4453125 37.34765625 C-32.4453125 31.39792498 -30.99440457 26.30609978 -29.2578125 20.66015625 C-29.05285156 19.79003906 -28.84789063 18.91992188 -28.63671875 18.0234375 C-26.63354414 9.89876037 -22.15194906 4.36132691 -15.2578125 -0.33984375 C-9.74360444 -2.1779131 -5.33176876 -2.19280178 0 0 Z " fill="#0E24FC" transform="translate(65.2578125,43.33984375)"/>
<path d="M0 0 C0.33 0 0.66 0 1 0 C1.66 4.62 2.32 9.24 3 14 C4.65 13.67 6.3 13.34 8 13 C10.53493372 14.62235758 11.33596769 16.63593883 12.75 19.3125 C18.96225505 30.28209535 31.16828905 32.98558259 42.56640625 36.2421875 C46.81235511 37.56436098 50.90130931 39.28203816 55 41 C55 42.98 55 44.96 55 47 C53.35 46.01 51.7 45.02 50 44 C49.773125 44.70125 49.54625 45.4025 49.3125 46.125 C47.40438415 50.30468233 44.83155187 53.70018899 41.0625 56.375 C38.29979645 57.21218289 35.86709292 57.19113953 33 57 C32 56 32 56 31.9375 52.4375 C31.958125 51.303125 31.97875 50.16875 32 49 C31.195625 49.185625 30.39125 49.37125 29.5625 49.5625 C28.716875 49.706875 27.87125 49.85125 27 50 C26.67 49.67 26.34 49.34 26 49 C23.78312006 48.84126045 21.56144702 48.74866163 19.33984375 48.68359375 C18.67537735 48.66281265 18.01091095 48.64203156 17.3263092 48.62062073 C15.19681457 48.55506342 13.06719332 48.49621215 10.9375 48.4375 C9.49673153 48.39432061 8.05597601 48.35070651 6.61523438 48.30664062 C3.0769596 48.19937607 -0.46145869 48.09812629 -4 48 C-4.33 45.69 -4.66 43.38 -5 41 C-7.64 40.34 -10.28 39.68 -13 39 C-13 38.67 -13 38.34 -13 38 C-14.98 37.67 -16.96 37.34 -19 37 C-18.25616878 32.90892832 -17.36133698 28.93275129 -16 25 C-15.01 24.67 -14.02 24.34 -13 24 C-12.26676204 21.98491642 -12.26676204 21.98491642 -12 20 C-11.34 20 -10.68 20 -10 20 C-10 19.34 -10 18.68 -10 18 C-8.02 18 -6.04 18 -4 18 C-3.79503906 16.86820313 -3.59007813 15.73640625 -3.37890625 14.5703125 C-3.10693028 13.08851239 -2.83478613 11.60674315 -2.5625 10.125 C-2.42779297 9.37863281 -2.29308594 8.63226563 -2.15429688 7.86328125 C-1.11328125 2.2265625 -1.11328125 2.2265625 0 0 Z " fill="#414EFD" transform="translate(77,60)"/>
<path d="M0 0 C3.11285795 1.31278908 4.19849111 3.42608572 6.05859375 6.20703125 C10.27296946 12.48251318 14.19460526 15.83152758 21.30859375 18.45703125 C22.45328125 18.87984375 23.59796875 19.30265625 24.77734375 19.73828125 C28.38698273 20.98647417 32.01613092 22.08775616 35.6875 23.13671875 C39.93344886 24.45889223 44.02240306 26.17656941 48.12109375 27.89453125 C48.12109375 29.87453125 48.12109375 31.85453125 48.12109375 33.89453125 C46.47109375 32.90453125 44.82109375 31.91453125 43.12109375 30.89453125 C42.89421875 31.59578125 42.66734375 32.29703125 42.43359375 33.01953125 C40.5254779 37.19921358 37.95264562 40.59472024 34.18359375 43.26953125 C31.4208902 44.10671414 28.98818667 44.08567078 26.12109375 43.89453125 C25.12109375 42.89453125 25.12109375 42.89453125 25.05859375 39.33203125 C25.07921875 38.19765625 25.09984375 37.06328125 25.12109375 35.89453125 C24.31671875 36.08015625 23.51234375 36.26578125 22.68359375 36.45703125 C21.83796875 36.60140625 20.99234375 36.74578125 20.12109375 36.89453125 C19.62609375 36.39953125 19.62609375 36.39953125 19.12109375 35.89453125 C16.90421381 35.7357917 14.68254077 35.64319288 12.4609375 35.578125 C11.7964711 35.5573439 11.1320047 35.53656281 10.44740295 35.51515198 C8.31790832 35.44959467 6.18828707 35.3907434 4.05859375 35.33203125 C2.61782528 35.28885186 1.17706976 35.24523776 -0.26367188 35.20117188 C-3.80194665 35.09390732 -7.34036494 34.99265754 -10.87890625 34.89453125 C-10.87890625 34.56453125 -10.87890625 34.23453125 -10.87890625 33.89453125 C-4.44390625 33.39953125 -4.44390625 33.39953125 2.12109375 32.89453125 C2.12109375 31.24453125 2.12109375 29.59453125 2.12109375 27.89453125 C7.15621274 26.88750745 10.36056413 26.92065312 15.12109375 28.89453125 C15.12109375 25.92453125 15.12109375 22.95453125 15.12109375 19.89453125 C13.47109375 19.89453125 11.82109375 19.89453125 10.12109375 19.89453125 C10.05921875 19.11078125 9.99734375 18.32703125 9.93359375 17.51953125 C9.66546875 16.65328125 9.39734375 15.78703125 9.12109375 14.89453125 C7.47348995 14.18205393 5.80345846 13.52052742 4.12109375 12.89453125 C2.73532452 11.27120158 1.39468107 9.6072866 0.12109375 7.89453125 C-0.53890625 7.56453125 -1.19890625 7.23453125 -1.87890625 6.89453125 C-2.60584529 4.91564164 -3.27706876 2.91498567 -3.87890625 0.89453125 C-1.87890625 -0.10546875 -1.87890625 -0.10546875 0 0 Z " fill="#4A52FC" transform="translate(83.87890625,73.10546875)"/>
<path d="M0 0 C0.33 0.66 0.66 1.32 1 2 C1.66 2 2.32 2 3 2 C3 2.66 3 3.32 3 4 C3.639375 3.649375 4.27875 3.29875 4.9375 2.9375 C9.1430267 1.65009387 12.71464763 2.3091153 17 3 C17 3.99 17 4.98 17 6 C15.68 6 14.36 6 13 6 C13.185625 7.216875 13.37125 8.43375 13.5625 9.6875 C13.66691406 10.37199219 13.77132812 11.05648437 13.87890625 11.76171875 C15.18890478 14.37715135 16.07653265 14.68863802 18.5625 16.09375 C21.01890679 17.73209152 21.86859111 18.4568096 22.57202148 21.36450195 C22.68879911 24.20881658 22.61114105 26.97127452 22.4375 29.8125 C22.40591797 30.79154297 22.37433594 31.77058594 22.34179688 32.77929688 C22.2595047 35.18928203 22.1446501 37.59308593 22 40 C21.67 40 21.34 40 21 40 C21 36.04 21 32.08 21 28 C20.34 28 19.68 28 19 28 C18.48856194 35.34481888 19.30794596 40.96749422 22.125 47.78515625 C23 50 23 50 23 52 C15.375 51.125 15.375 51.125 12 50 C12 49.34 12 48.68 12 48 C11.175 47.9175 10.35 47.835 9.5 47.75 C5.26409653 46.8423064 1.53039489 45.56143209 -2 43 C-3 40.25 -3 40.25 -3 38 C-3.66 38 -4.32 38 -5 38 C-5 37.34 -5 36.68 -5 36 C-5.66 36 -6.32 36 -7 36 C-7.28875 34.865625 -7.5775 33.73125 -7.875 32.5625 C-8.24625 31.386875 -8.6175 30.21125 -9 29 C-9.66 28.67 -10.32 28.34 -11 28 C-11 27.34 -11 26.68 -11 26 C-11.66 26 -12.32 26 -13 26 C-13.66 22.7 -14.32 19.4 -15 16 C-11.51668565 19.01887244 -10.20842856 21.56909529 -9 26 C-8.34 26 -7.68 26 -7 26 C-7 26.66 -7 27.32 -7 28 C-6.01 28.33 -5.02 28.66 -4 29 C-4 29.66 -4 30.32 -4 31 C-3.34 31 -2.68 31 -2 31 C-2 31.66 -2 32.32 -2 33 C1.86991424 34.97485314 5.8110825 36.79329168 9.75 38.625 C10.79607422 39.11226562 10.79607422 39.11226562 11.86328125 39.609375 C13.5752888 40.40674838 15.28761299 41.20344186 17 42 C17 41.34 17 40.68 17 40 C16.278125 39.896875 15.55625 39.79375 14.8125 39.6875 C11.75508007 38.94013068 9.61670365 37.71954811 7 36 C10 34 10 34 12 34 C12 25.75 12 17.5 12 9 C11.01 9.33 10.02 9.66 9 10 C7.60560336 10.06665376 6.20830125 10.08538199 4.8125 10.0625 C2.9253125 10.0315625 2.9253125 10.0315625 1 10 C-0.1577506 6.52674819 -0.06866652 3.63932552 0 0 Z " fill="#5162F3" transform="translate(50,94)"/>
<path d="M0 0 C1.32 0 2.64 0 4 0 C4.33 1.65 4.66 3.3 5 5 C5.5775 5.144375 6.155 5.28875 6.75 5.4375 C8.221405 5.80535125 9.68195403 6.22063219 11.125 6.6875 C11.74375 6.790625 12.3625 6.89375 13 7 C13.66 6.34 14.32 5.68 15 5 C15.33 5.66 15.66 6.32 16 7 C19.96 7 23.92 7 28 7 C29.8 25.4 29.8 25.4 28 32 C26.68 32.66 25.36 33.32 24 34 C28.455 35.98 28.455 35.98 33 38 C33 38.66 33 39.32 33 40 C29.32246862 39.28221677 26.26808693 37.75049263 22.9375 36.0625 C21.89464844 35.53785156 20.85179687 35.01320312 19.77734375 34.47265625 C17 33 17 33 14 31 C14 30.34 14 29.68 14 29 C13.34 29 12.68 29 12 29 C10.375 27.625 10.375 27.625 9 26 C9 25.34 9 24.68 9 24 C8.34 24 7.68 24 7 24 C2.19952622 16.88205612 0 8.57889792 0 0 Z " fill="#071AFC" transform="translate(34,96)"/>
<path d="M0 0 C3.3 0 6.6 0 10 0 C10.88422028 2.65266085 11.15436705 4.35688217 11.24609375 7.08984375 C11.27896484 7.87423828 11.31183594 8.65863281 11.34570312 9.46679688 C11.40675088 11.10989079 11.46406135 12.75312794 11.51757812 14.39648438 C11.56881836 15.57500977 11.56881836 15.57500977 11.62109375 16.77734375 C11.6461499 17.49140381 11.67120605 18.20546387 11.69702148 18.94116211 C12.04104426 21.27890916 12.84771923 22.95102062 14 25 C14.66 24.67 15.32 24.34 16 24 C17.42258812 27.82320557 18.24042276 30.91281305 18 35 C18.66 35 19.32 35 20 35 C20 35.66 20 36.32 20 37 C21.485 37.495 21.485 37.495 23 38 C23.33 40.31 23.66 42.62 24 45 C24.66 45 25.32 45 26 45 C26 45.66 26 46.32 26 47 C26.66 47 27.32 47 28 47 C28.29003906 48.15048828 28.29003906 48.15048828 28.5859375 49.32421875 C30.56089051 53.0613536 32.69026137 53.46234459 36.625 54.8125 C37.81351563 55.23144531 39.00203125 55.65039062 40.2265625 56.08203125 C41.14179687 56.38496094 42.05703125 56.68789062 43 57 C43 57.66 43 58.32 43 59 C46.63 59.66 50.26 60.32 54 61 C53.45859375 59.74896484 53.45859375 59.74896484 52.90625 58.47265625 C50.09293284 51.65036215 48.27352982 46.38578012 49 39 C49.495 38.01 49.495 38.01 50 37 C50.66 37 51.32 37 52 37 C52.10957031 38.03898437 52.21914062 39.07796875 52.33203125 40.1484375 C53.21221219 48.03788733 54.29094375 55.486884 57 63 C42.67583035 64.30219724 29.53209555 55.10441422 19.0390625 46.3671875 C8.35170216 36.60916284 0.7735191 22.14391919 -0.23046875 7.6796875 C-0.2468434 5.11869154 -0.13823324 2.557315 0 0 Z " fill="#292931" transform="translate(19,85)"/>
<path d="M0 0 C2.64 0 5.28 0 8 0 C8.90413673 3.83724172 9.10576898 7.37502274 9.0625 11.3125 C9.05347656 12.38113281 9.04445313 13.44976562 9.03515625 14.55078125 C9.02355469 15.35902344 9.01195313 16.16726562 9 17 C7.02 16.67 5.04 16.34 3 16 C3 16.66 3 17.32 3 18 C2.34 18 1.68 18 1 18 C0.67 19.65 0.34 21.3 0 23 C-0.99 23 -1.98 23 -3 23 C-3.0825 24.03125 -3.165 25.0625 -3.25 26.125 C-4.0680774 30.35173322 -5.26545687 32.7024627 -8 36 C-8.99 36 -9.98 36 -11 36 C-11 35.34 -11 34.68 -11 34 C-11.66 34 -12.32 34 -13 34 C-13.66 31.36 -14.32 28.72 -15 26 C-15.66 26 -16.32 26 -17 26 C-16.49202991 21.6822542 -15.80317221 17.96697886 -14 14 C-13.01 14 -12.02 14 -11 14 C-11 13.01 -11 12.02 -11 11 C-10.05125 10.814375 -9.1025 10.62875 -8.125 10.4375 C-4.61628301 9.26599195 -4.61628301 9.26599195 -3.625 5.375 C-3.315625 3.704375 -3.315625 3.704375 -3 2 C-2.01 2 -1.02 2 0 2 C0 1.34 0 0.68 0 0 Z " fill="#7D8CFC" transform="translate(64,62)"/>
<path d="M0 0 C0.33 0 0.66 0 1 0 C1.46192125 4.92715996 -0.1724717 8.50732625 -2 13 C-1.67 12.67 -1.34 12.34 -1 12 C-0.34 11.67 0.32 11.34 1 11 C3.45430059 14.68145089 3.02865559 15.52000614 2.25 19.75 C1.35063608 24.9301026 0.55133854 30.09987044 -0.125 35.3125 C-0.41375 37.519375 -0.7025 39.72625 -1 42 C-5.62 42 -10.24 42 -15 42 C-15 43.65 -15 45.3 -15 47 C-15.33 47 -15.66 47 -16 47 C-15.52912126 28.87116832 -11.54490429 14.31979227 0 0 Z " fill="#6C76FC" transform="translate(34,43)"/>
<path d="M0 0 C8.82240335 0.58816022 17.15516253 2.84465854 25 7 C25 8.98 25 10.96 25 13 C22.525 11.515 22.525 11.515 20 10 C19.773125 10.70125 19.54625 11.4025 19.3125 12.125 C17.40438415 16.30468233 14.83155187 19.70018899 11.0625 22.375 C8.29979645 23.21218289 5.86709292 23.19113953 3 23 C2 22 2 22 1.90234375 20.15234375 C1.93489583 18.1015625 1.96744792 16.05078125 2 14 C1.01 14 0.02 14 -1 14 C0.1094072 10.51329166 1.26337666 7.22515763 3 4 C2.01 4 1.02 4 0 4 C0 2.68 0 1.36 0 0 Z " fill="#0518FD" transform="translate(107,94)"/>
<path d="M0 0 C2.97 0 5.94 0 9 0 C9.33 1.32 9.66 2.64 10 4 C9.34 4 8.68 4 8 4 C8.60827912 8.34485084 9.27081724 12.67392413 10 17 C11.09699219 16.98839844 12.19398438 16.97679688 13.32421875 16.96484375 C14.77864412 16.95546036 16.23307135 16.94636075 17.6875 16.9375 C18.40873047 16.92912109 19.12996094 16.92074219 19.87304688 16.91210938 C23.71555382 16.89456368 27.26639526 17.06475779 31 18 C30 20 30 20 28.234375 20.62109375 C25.85849677 21.02399618 23.65820483 21.09791478 21.25 21.0625 C20.45078125 21.05347656 19.6515625 21.04445313 18.828125 21.03515625 C18.22484375 21.02355469 17.6215625 21.01195313 17 21 C17 21.66 17 22.32 17 23 C8.27173913 24.58695652 8.27173913 24.58695652 3.75 22.5 C-4.72629696 14.79427549 -4.72629696 14.79427549 -5.5625 9.3125 C-4.98876216 5.9338216 -4.45333882 4.35897964 -2 2 C-1.34 2 -0.68 2 0 2 C0 1.34 0 0.68 0 0 Z " fill="#6078F7" transform="translate(126,47)"/>
<path d="M0 0 C1.2684375 0.0309375 1.2684375 0.0309375 2.5625 0.0625 C3.2225 0.0625 3.8825 0.0625 4.5625 0.0625 C6.5625 0.0625 8.5625 0.0625 10.5625 0.0625 C10.5625 1.7125 10.5625 3.3625 10.5625 5.0625 C5.9425 5.3925 1.3225 5.7225 -3.4375 6.0625 C-3.540625 7.320625 -3.64375 8.57875 -3.75 9.875 C-4.08280917 12.52341096 -4.28208718 13.83644498 -5.8125 16.0625 C-7.4375 17.0625 -7.4375 17.0625 -10.4375 17.0625 C-10.4375 18.0525 -10.4375 19.0425 -10.4375 20.0625 C-11.4275 20.3925 -12.4175 20.7225 -13.4375 21.0625 C-14.46788956 23.62292066 -14.46788956 23.62292066 -15.125 26.625 C-15.37636719 27.63691406 -15.62773438 28.64882812 -15.88671875 29.69140625 C-16.06847656 30.47386719 -16.25023437 31.25632812 -16.4375 32.0625 C-15.7775 32.0625 -15.1175 32.0625 -14.4375 32.0625 C-14.1075 34.0425 -13.7775 36.0225 -13.4375 38.0625 C-14.4275 38.0625 -15.4175 38.0625 -16.4375 38.0625 C-16.7675 40.7025 -17.0975 43.3425 -17.4375 46.0625 C-18.4275 45.7325 -19.4175 45.4025 -20.4375 45.0625 C-20.4375 40.7725 -20.4375 36.4825 -20.4375 32.0625 C-21.0975 31.7325 -21.7575 31.4025 -22.4375 31.0625 C-21.7775 31.0625 -21.1175 31.0625 -20.4375 31.0625 C-20.4375 29.4125 -20.4375 27.7625 -20.4375 26.0625 C-21.0975 26.0625 -21.7575 26.0625 -22.4375 26.0625 C-22.7675 24.7425 -23.0975 23.4225 -23.4375 22.0625 C-22.7775 22.0625 -22.1175 22.0625 -21.4375 22.0625 C-21.4375 21.4025 -21.4375 20.7425 -21.4375 20.0625 C-19.4575 20.0625 -17.4775 20.0625 -15.4375 20.0625 C-15.334375 19.464375 -15.23125 18.86625 -15.125 18.25 C-14.3233616 15.69933235 -13.53717436 14.69558005 -11.4375 13.0625 C-9.25 12.375 -9.25 12.375 -7.4375 12.0625 C-7.4375 9.7525 -7.4375 7.4425 -7.4375 5.0625 C-6.7775 5.0625 -6.1175 5.0625 -5.4375 5.0625 C-5.128125 4.423125 -4.81875 3.78375 -4.5 3.125 C-2.92883858 0.07509843 -2.92883858 0.07509843 0 0 Z " fill="#2D45FD" transform="translate(63.4375,55.9375)"/>
<path d="M0 0 C0.33 0 0.66 0 1 0 C1.12117188 0.80824219 1.24234375 1.61648437 1.3671875 2.44921875 C1.53476563 3.51785156 1.70234375 4.58648437 1.875 5.6875 C2.03742188 6.74324219 2.19984375 7.79898438 2.3671875 8.88671875 C2.95989164 11.80267676 3.88691942 14.25471301 5 17 C5 17.99 5 18.98 5 20 C5.99 20.33 6.98 20.66 8 21 C8.33 23.31 8.66 25.62 9 28 C6.69 27.67 4.38 27.34 2 27 C2.309375 28.3921875 2.309375 28.3921875 2.625 29.8125 C3 33 3 33 1 36 C2.65 36.33 4.3 36.66 6 37 C6.33 38.65 6.66 40.3 7 42 C2.545 42.495 2.545 42.495 -2 43 C-3.33061012 37.15558169 -3.22309781 31.40642386 -3.25 25.4375 C-3.270625 24.32052734 -3.29125 23.20355469 -3.3125 22.05273438 C-3.34852416 14.28502584 -2.23636902 7.43516804 0 0 Z " fill="#1420FA" transform="translate(77,60)"/>
<path d="M0 0 C3.48331435 3.01887244 4.79157144 5.56909529 6 10 C6.66 10 7.32 10 8 10 C8 10.66 8 11.32 8 12 C8.99 12.33 9.98 12.66 11 13 C11 13.66 11 14.32 11 15 C11.66 15 12.32 15 13 15 C13 15.66 13 16.32 13 17 C13.53625 17.26554687 14.0725 17.53109375 14.625 17.8046875 C16.38322041 18.68958132 18.13184306 19.59360247 19.875 20.5078125 C20.90625 21.04148438 21.9375 21.57515625 23 22.125 C24.03125 22.66382813 25.0625 23.20265625 26.125 23.7578125 C29.090007 25.26441809 29.090007 25.26441809 33 25 C33 25.66 33 26.32 33 27 C31.68 27.33 30.36 27.66 29 28 C29 28.99 29 29.98 29 31 C30.98 31.66 32.96 32.32 35 33 C35.66 32.01 36.32 31.02 37 30 C37.495 32.97 37.495 32.97 38 36 C30.375 35.125 30.375 35.125 27 34 C27 33.34 27 32.68 27 32 C26.175 31.9175 25.35 31.835 24.5 31.75 C20.26409653 30.8423064 16.53039489 29.56143209 13 27 C12 24.25 12 24.25 12 22 C11.34 22 10.68 22 10 22 C10 21.34 10 20.68 10 20 C9.34 20 8.68 20 8 20 C7.71125 18.865625 7.4225 17.73125 7.125 16.5625 C6.75375 15.386875 6.3825 14.21125 6 13 C5.34 12.67 4.68 12.34 4 12 C4 11.34 4 10.68 4 10 C3.34 10 2.68 10 2 10 C1.34 6.7 0.68 3.4 0 0 Z " fill="#505CF9" transform="translate(35,110)"/>
<path d="M0 0 C2.12046792 3.53411321 2.53199289 6.94393835 3 11 C3.66 11 4.32 11 5 11 C5 11.66 5 12.32 5 13 C5.99 13.33 6.98 13.66 8 14 C8.33 16.31 8.66 18.62 9 21 C9.66 21 10.32 21 11 21 C11 21.66 11 22.32 11 23 C11.66 23 12.32 23 13 23 C13.19335938 23.76699219 13.38671875 24.53398437 13.5859375 25.32421875 C15.56089051 29.0613536 17.69026137 29.46234459 21.625 30.8125 C22.81351563 31.23144531 24.00203125 31.65039062 25.2265625 32.08203125 C26.14179687 32.38496094 27.05703125 32.68789062 28 33 C28 33.66 28 34.32 28 35 C31.63 35.66 35.26 36.32 39 37 C38.45859375 35.74896484 38.45859375 35.74896484 37.90625 34.47265625 C35.09293284 27.65036215 33.27352982 22.38578012 34 15 C34.33 14.34 34.66 13.68 35 13 C35.66 13 36.32 13 37 13 C37.10957031 14.03898437 37.21914062 15.07796875 37.33203125 16.1484375 C38.21221219 24.03788733 39.29094375 31.486884 42 39 C29.25782077 40.15837993 17.53141444 32.74917295 7.62890625 25.52734375 C5.82365326 23.8346485 4.96762079 22.26102346 4 20 C4.66 19.67 5.32 19.34 6 19 C6 18.01 6 17.02 6 16 C4.68 16.33 3.36 16.66 2 17 C-3.52621227 8.56726778 -3.52621227 8.56726778 -2.9375 4 C-2.628125 3.01 -2.31875 2.02 -2 1 C-1.34 0.67 -0.68 0.34 0 0 Z " fill="#484868" transform="translate(34,109)"/>
<path d="M0 0 C7.68490153 4.11378556 7.68490153 4.11378556 9 7.8125 C9 8.534375 9 9.25625 9 10 C10.65 10 12.3 10 14 10 C14 12.97 14 15.94 14 19 C12.33388095 19.042721 10.66617115 19.04063832 9 19 C8.67 18.67 8.34 18.34 8 18 C6.48071962 17.92820036 4.95832518 17.91607993 3.4375 17.9375 C2.61121094 17.94652344 1.78492187 17.95554687 0.93359375 17.96484375 C0.29550781 17.97644531 -0.34257813 17.98804687 -1 18 C-1.2475 17.360625 -1.495 16.72125 -1.75 16.0625 C-2.96621634 13.50980961 -2.96621634 13.50980961 -7 13 C-6.67 10.03 -6.34 7.06 -6 4 C-5.34 4 -4.68 4 -4 4 C-3.67 3.34 -3.34 2.68 -3 2 C-3 2.99 -3 3.98 -3 5 C-1.68 5 -0.36 5 1 5 C0.67 3.35 0.34 1.7 0 0 Z " fill="#1F29FC" transform="translate(85,83)"/>
<path d="M0 0 C0.33 0 0.66 0 1 0 C1.37327269 3.98157531 0.40778365 6.92276181 -1.06640625 10.59765625 C-2.90488601 15.32847237 -4.41706237 20.17887017 -6 25 C-6.66 25 -7.32 25 -8 25 C-8 26.32 -8 27.64 -8 29 C-8.66 29 -9.32 29 -10 29 C-10 33.29 -10 37.58 -10 42 C-11.65 42 -13.3 42 -15 42 C-15 43.65 -15 45.3 -15 47 C-15.33 47 -15.66 47 -16 47 C-15.52912126 28.87116832 -11.54490429 14.31979227 0 0 Z " fill="#8181A4" transform="translate(34,43)"/>
<path d="M0 0 C1.953125 0.4921875 1.953125 0.4921875 4 2 C4.46588547 4.82517725 4.69615501 7.29079561 4.75 10.125 C4.77964844 10.87910156 4.80929688 11.63320312 4.83984375 12.41015625 C4.91057932 14.27285953 4.95754983 16.13643755 5 18 C4.01 18.33 3.02 18.66 2 19 C0.88967504 26.75727034 1.21459645 33.37145754 3 41 C2.34 40.67 1.68 40.34 1 40 C0.34 40.66 -0.32 41.32 -1 42 C-4.4717817 36.47121091 -4.53740679 31.45464492 -4.6875 25.125 C-4.72166016 24.15046875 -4.75582031 23.1759375 -4.79101562 22.171875 C-4.87304293 19.78136509 -4.94233848 17.39120095 -5 15 C-3.68 15 -2.36 15 -1 15 C-1.01160156 14.33613281 -1.02320313 13.67226562 -1.03515625 12.98828125 C-1.12478032 4.21792619 -1.12478032 4.21792619 0 0 Z " fill="#0D1AF8" transform="translate(34,70)"/>
<path d="M0 0 C0.8971875 0.309375 0.8971875 0.309375 1.8125 0.625 C1.8125 1.285 1.8125 1.945 1.8125 2.625 C2.4725 2.625 3.1325 2.625 3.8125 2.625 C4.35579105 9.86888072 4.34464177 15.17210585 0.19921875 21.296875 C-1.1875 22.625 -1.1875 22.625 -4.1875 22.625 C-4.1875 21.965 -4.1875 21.305 -4.1875 20.625 C-4.8475 20.625 -5.5075 20.625 -6.1875 20.625 C-7.5972034 17.8055932 -7.35734647 15.39232774 -7.375 12.25 C-7.38917969 11.10789062 -7.40335938 9.96578125 -7.41796875 8.7890625 C-7.19541859 5.73371281 -6.90291768 4.12118918 -5.1875 1.625 C-2.1875 -0.375 -2.1875 -0.375 0 0 Z " fill="#7984FB" transform="translate(57.1875,75.375)"/>
<path d="M0 0 C1.47906892 -0.02689216 2.95827483 -0.04634621 4.4375 -0.0625 C5.26121094 -0.07410156 6.08492188 -0.08570312 6.93359375 -0.09765625 C9 0 9 0 10 1 C10 3.31 10 5.62 10 8 C17.59 8 25.18 8 33 8 C32.34 8.33 31.68 8.66 31 9 C31 9.66 31 10.32 31 11 C17 13 17 13 13.09765625 13.44140625 C12.07542969 13.62574219 11.05320312 13.81007813 10 14 C9.67 14.66 9.34 15.32 9 16 C8.67 15.01 8.34 14.02 8 13 C6.38720589 11.84589737 6.38720589 11.84589737 4.5 10.8125 C2.20985286 9.28573524 1.17678906 8.54350007 0.31640625 5.8984375 C0.0625 3.6875 0.0625 3.6875 0 0 Z " fill="#AECDFA" transform="translate(63,100)"/>
<path d="M0 0 C0 0.99 0 1.98 0 3 C-0.99 3.66 -1.98 4.32 -3 5 C-3.73343428 8.06556598 -3.73343428 8.06556598 -4 11 C-3.34 11 -2.68 11 -2 11 C-1.328125 12.8046875 -1.328125 12.8046875 -1 15 C-2.109375 16.5703125 -2.109375 16.5703125 -3.75 18.125 C-7.59280262 22.22696838 -8.76398255 26.6113976 -10 32 C-10.14308594 31.39671875 -10.28617188 30.7934375 -10.43359375 30.171875 C-11.08324972 27.6807804 -12.01075499 25.37418802 -13 23 C-13.66 24.32 -14.32 25.64 -15 27 C-16.24119472 23.27641584 -15.25704285 21.62493165 -13.80078125 18.109375 C-12.85579606 15.81620324 -12.85579606 15.81620324 -12.375 12.5 C-10.21131892 6.99244817 -5.30803809 2.65401904 0 0 Z " fill="#5460FA" transform="translate(47,32)"/>
<path d="M0 0 C0.66 0 1.32 0 2 0 C7.76545751 10.47563038 7.55585253 22.6307721 4.375 33.9375 C1.5979681 41.79590941 -2.11085483 48.11085483 -8 54 C-8 50.04 -8 46.08 -8 42 C-7.01 42 -6.02 42 -5 42 C-4.34 40.68 -3.68 39.36 -3 38 C-1.68 38 -0.36 38 1 38 C1 35.36 1 32.72 1 30 C1.66 30 2.32 30 3 30 C3.02903577 26.89585298 3.0468107 23.79174091 3.0625 20.6875 C3.07087891 19.80642578 3.07925781 18.92535156 3.08789062 18.01757812 C3.09111328 17.17001953 3.09433594 16.32246094 3.09765625 15.44921875 C3.10289307 14.66893311 3.10812988 13.88864746 3.11352539 13.0847168 C3.08137863 10.8038445 3.08137863 10.8038445 2 8 C1.34 8 0.68 8 0 8 C0 5.36 0 2.72 0 0 Z " fill="#A8BAE2" transform="translate(152,82)"/>
<path d="M0 0 C2.7249749 0.96692658 3.77928369 1.54558408 5.0625 4.1875 C4.98650129 7.60744196 3.88389219 9.60853997 1.79296875 12.28515625 C-2.15790205 16.06387582 -7.25067725 18.6763152 -12.6875 19.31640625 C-13.450625 19.21199219 -14.21375 19.10757813 -15 19 C-17 16 -17 16 -17 13 C-15.783125 12.7525 -14.56625 12.505 -13.3125 12.25 C-8.64616939 11.0566703 -5.51928195 9.31628232 -2.80859375 5.18359375 C-1.82287801 3.48349168 -0.90559083 1.74410086 0 0 Z " fill="#7D97F8" transform="translate(127,104)"/>
<path d="M0 0 C0.99 0 1.98 0 3 0 C3 0.66 3 1.32 3 2 C3.66 2 4.32 2 5 2 C5.33 8.27 5.66 14.54 6 21 C6.66 21.33 7.32 21.66 8 22 C8.33 19.36 8.66 16.72 9 14 C9.99 14 10.98 14 12 14 C12.33 17.3 12.66 20.6 13 24 C12.01 23.67 11.02 23.34 10 23 C9.38125 23.20625 8.7625 23.4125 8.125 23.625 C6 24 6 24 3.3125 22.875 C1 21 1 21 0.1875 18.3125 C0.125625 17.549375 0.06375 16.78625 0 16 C-0.99 16 -1.98 16 -3 16 C-3 13.69 -3 11.38 -3 9 C-1.68 8.67 -0.36 8.34 1 8 C0.67 7.34 0.34 6.68 0 6 C-0.039992 4.00039988 -0.04346799 1.99952758 0 0 Z " fill="#1E2AFB" transform="translate(38,80)"/>
<path d="M0 0 C1.54794603 0.52192259 3.09129338 1.05775305 4.62890625 1.609375 C6.67502148 2.3158155 8.70585214 2.87125238 10.8125 3.36328125 C10.8125 4.68328125 10.8125 6.00328125 10.8125 7.36328125 C11.8025 7.69328125 12.7925 8.02328125 13.8125 8.36328125 C12.15635343 8.74546892 10.48792976 9.07723227 8.8125 9.36328125 C8.4825 9.03328125 8.1525 8.70328125 7.8125 8.36328125 C5.59562006 8.2045417 3.37394702 8.11194288 1.15234375 8.046875 C0.15564415 8.01570335 0.15564415 8.01570335 -0.8611908 7.98390198 C-2.99068543 7.91834467 -5.12030668 7.8594934 -7.25 7.80078125 C-8.69076847 7.75760186 -10.13152399 7.71398776 -11.57226562 7.66992188 C-15.1105404 7.56265732 -18.64895869 7.46140754 -22.1875 7.36328125 C-22.1875 7.03328125 -22.1875 6.70328125 -22.1875 6.36328125 C-15.7525 5.86828125 -15.7525 5.86828125 -9.1875 5.36328125 C-9.1875 3.71328125 -9.1875 2.06328125 -9.1875 0.36328125 C-5.99502767 -1.23295492 -3.40902972 -0.99227115 0 0 Z " fill="#4F69F9" transform="translate(95.1875,100.63671875)"/>
<path d="M0 0 C0.66 0.66 1.32 1.32 2 2 C1.9765625 4.49609375 1.9765625 4.49609375 1.625 7.4375 C1.29336357 10.33353438 1 13.08277187 1 16 C-7.42857143 17.42857143 -7.42857143 17.42857143 -12 15 C-12 14.34 -12 13.68 -12 13 C-11.01 13 -10.02 13 -9 13 C-9 10.36 -9 7.72 -9 5 C-8.2575 4.9175 -7.515 4.835 -6.75 4.75 C-3.48778646 3.8603054 -2.19045122 2.51496251 0 0 Z " fill="#F0FCFC" transform="translate(111,75)"/>
<path d="M0 0 C-1 7.42857143 -1 7.42857143 -2 11 C-1.34 11 -0.68 11 0 11 C0.33 12.98 0.66 14.96 1 17 C0.01 17 -0.98 17 -2 17 C-2.33 19.64 -2.66 22.28 -3 25 C-3.99 24.67 -4.98 24.34 -6 24 C-6 19.71 -6 15.42 -6 11 C-6.66 10.67 -7.32 10.34 -8 10 C-7.34 10 -6.68 10 -6 10 C-6 8.35 -6 6.7 -6 5 C-6.66 5 -7.32 5 -8 5 C-8.33 3.68 -8.66 2.36 -9 1 C-6.04335481 -0.4783226 -3.25770263 -0.06032783 0 0 Z " fill="#3E47FD" transform="translate(49,77)"/>
<path d="M0 0 C3.48331435 3.01887244 4.79157144 5.56909529 6 10 C6.66 10 7.32 10 8 10 C8 10.66 8 11.32 8 12 C8.99 12.33 9.98 12.66 11 13 C11 13.66 11 14.32 11 15 C11.66 15 12.32 15 13 15 C13 15.66 13 16.32 13 17 C14.32 17.66 15.64 18.32 17 19 C16.49396008 21.16874252 16.00016187 22.99967627 15 25 C15.99 25.33 16.98 25.66 18 26 C19.1875 28.0625 19.1875 28.0625 20 30 C17.125 29.375 17.125 29.375 14 28 C12.625 24.875 12.625 24.875 12 22 C11.34 22 10.68 22 10 22 C10 21.34 10 20.68 10 20 C9.34 20 8.68 20 8 20 C7.71125 18.865625 7.4225 17.73125 7.125 16.5625 C6.75375 15.386875 6.3825 14.21125 6 13 C5.34 12.67 4.68 12.34 4 12 C4 11.34 4 10.68 4 10 C3.34 10 2.68 10 2 10 C1.34 6.7 0.68 3.4 0 0 Z " fill="#4852F5" transform="translate(35,110)"/>
<path d="M0 0 C1.18722656 -0.00257812 2.37445313 -0.00515625 3.59765625 -0.0078125 C6.51184445 0.10807335 9.10835017 0.45113823 11.9375 1.125 C10.9375 3.125 10.9375 3.125 9.171875 3.74609375 C6.79599677 4.14899618 4.59570483 4.22291478 2.1875 4.1875 C1.38828125 4.17847656 0.5890625 4.16945313 -0.234375 4.16015625 C-0.83765625 4.14855469 -1.4409375 4.13695313 -2.0625 4.125 C-2.0625 4.785 -2.0625 5.445 -2.0625 6.125 C-3.64379029 6.34831199 -5.22771089 6.55304644 -6.8125 6.75 C-8.13507813 6.92402344 -8.13507813 6.92402344 -9.484375 7.1015625 C-12.29109878 7.12707817 -13.69634866 6.57343844 -16.0625 5.125 C-16.0625 4.465 -16.0625 3.805 -16.0625 3.125 C-11.05713003 -0.21191331 -5.8898319 -0.01281791 0 0 Z " fill="#3A4275" transform="translate(145.0625,63.875)"/>
<path d="M0 0 C1 1 1 1 1.0625 3.5625 C1.041875 4.366875 1.02125 5.17125 1 6 C-0.98 6.33 -2.96 6.66 -5 7 C-5 7.66 -5 8.32 -5 9 C-8.96 10.98 -8.96 10.98 -13 13 C-13.02698189 11.37509046 -13.04638757 9.75005367 -13.0625 8.125 C-13.07410156 7.22007813 -13.08570312 6.31515625 -13.09765625 5.3828125 C-13 3 -13 3 -12 1 C-8.02175678 -0.17007154 -4.12204815 -0.15854031 0 0 Z " fill="#F6FAF9" transform="translate(85,113)"/>
<path d="M0 0 C1.65 0 3.3 0 5 0 C6.28353415 3.85060244 6.32165601 7.60555708 6.5 11.625 C6.80378189 17.78532842 7.2066262 23.87968786 8 30 C7.01 30 6.02 30 5 30 C3.90341064 26.71023192 4.20046862 25.28696233 5 22 C4.34 22 3.68 22 3 22 C1.48691559 17.46074677 1.99784247 12.81023551 2.12695312 8.07226562 C2.15664538 6.04795251 2.08505895 4.02274323 2 2 C1.34 1.34 0.68 0.68 0 0 Z " fill="#23286F" transform="translate(24,85)"/>
<path d="M0 0 C2.12046792 3.53411321 2.53199289 6.94393835 3 11 C3.66 11 4.32 11 5 11 C5 11.66 5 12.32 5 13 C5.99 13.33 6.98 13.66 8 14 C8.33 16.31 8.66 18.62 9 21 C9.66 21 10.32 21 11 21 C11 21.66 11 22.32 11 23 C11.66 23 12.32 23 13 23 C13.33 24.32 13.66 25.64 14 27 C13.01 26.67 12.02 26.34 11 26 C11 25.34 11 24.68 11 24 C10.0409375 23.5359375 10.0409375 23.5359375 9.0625 23.0625 C7 22 7 22 6 21 C5.95936168 19.33382885 5.957279 17.66611905 6 16 C4.68 16.33 3.36 16.66 2 17 C-3.52621227 8.56726778 -3.52621227 8.56726778 -2.9375 4 C-2.628125 3.01 -2.31875 2.02 -2 1 C-1.34 0.67 -0.68 0.34 0 0 Z " fill="#3C42A4" transform="translate(34,109)"/>
<path d="M0 0 C0.33 0 0.66 0 1 0 C1.37327269 3.98157531 0.40778365 6.92276181 -1.06640625 10.59765625 C-2.90488601 15.32847237 -4.41706237 20.17887017 -6 25 C-6.66 25 -7.32 25 -8 25 C-8 26.32 -8 27.64 -8 29 C-8.99 29 -9.98 29 -11 29 C-11.33 29.66 -11.66 30.32 -12 31 C-12.33503046 26.19789671 -11.510669 24.0170704 -9 20 C-8.28598768 16.80604974 -8.28598768 16.80604974 -8 14 C-7.01 14 -6.02 14 -5 14 C-5.33 13.34 -5.66 12.68 -6 12 C-4.89192479 7.5868039 -3.09395299 3.37522144 0 0 Z " fill="#6A6CB5" transform="translate(34,43)"/>
<path d="M0 0 C0.66 0.33 1.32 0.66 2 1 C1.60388039 2.96259262 1.18238306 4.92007661 0.75 6.875 C0.51796875 7.96554688 0.2859375 9.05609375 0.046875 10.1796875 C-1 13 -1 13 -3.046875 14.1953125 C-3.69140625 14.46085937 -4.3359375 14.72640625 -5 15 C-5.33 15.99 -5.66 16.98 -6 18 C-6.66 18 -7.32 18 -8 18 C-8 20.64 -8 23.28 -8 26 C-8.33 26 -8.66 26 -9 26 C-9.36117339 18.33509809 -9.66358947 9.97707483 -6 3 C-3.44921875 1.7578125 -3.44921875 1.7578125 -1 1 C-0.67 0.67 -0.34 0.34 0 0 Z " fill="#6D81FA" transform="translate(87,43)"/>
<path d="M0 0 C3.10130977 1.30220742 4.19360904 3.3782318 6.05859375 6.140625 C8.83958269 10.13797172 11.51880168 13.62604781 15.12109375 16.890625 C14.13109375 17.220625 13.14109375 17.550625 12.12109375 17.890625 C12.12109375 17.230625 12.12109375 16.570625 12.12109375 15.890625 C11.41984375 15.82875 10.71859375 15.766875 9.99609375 15.703125 C6.16325193 14.61993057 4.03998453 12.55569919 1.12109375 9.890625 C0.54359375 9.41625 -0.03390625 8.941875 -0.62890625 8.453125 C-2.45565679 6.16968683 -3.07556375 3.67142597 -3.87890625 0.890625 C-1.87890625 -0.109375 -1.87890625 -0.109375 0 0 Z " fill="#6C82F9" transform="translate(83.87890625,73.109375)"/>
<path d="M0 0 C1.41750563 0.11509661 2.83401169 0.24253658 4.25 0.375 C5.03890625 0.44460937 5.8278125 0.51421875 6.640625 0.5859375 C9.085877 1.01507113 10.84836903 1.78600638 13 3 C12.01 3 11.02 3 10 3 C9.67 4.32 9.34 5.64 9 7 C8.34 7 7.68 7 7 7 C7 7.66 7 8.32 7 9 C5.68 9.33 4.36 9.66 3 10 C3 13.96 3 17.92 3 22 C2.67 22 2.34 22 2 22 C2 19.36 2 16.72 2 14 C1.01 14 0.02 14 -1 14 C0.1094072 10.51329166 1.26337666 7.22515763 3 4 C2.01 4 1.02 4 0 4 C0 2.68 0 1.36 0 0 Z " fill="#333FFB" transform="translate(107,94)"/>
<path d="M0 0 C2.97 0.99 5.94 1.98 9 3 C9 4.98 9 6.96 9 9 C7.35 8.01 5.7 7.02 4 6 C3.773125 6.70125 3.54625 7.4025 3.3125 8.125 C1.68343133 11.69343613 -0.40640731 14.06514511 -3 17 C-4.29065057 13.1280483 -3.22324098 10.55767399 -2.0625 6.8125 C-1.76956055 5.83120117 -1.76956055 5.83120117 -1.47070312 4.83007812 C-0.98817437 3.21772593 -0.49509795 1.60853711 0 0 Z " fill="#3649F8" transform="translate(123,98)"/>
<path d="M0 0 C1.32 0.66 2.64 1.32 4 2 C4.75 4.625 4.75 4.625 5 7 C6.65 7 8.3 7 10 7 C10 9.97 10 12.94 10 16 C5.91281305 16.24042276 2.82320557 15.42258812 -1 14 C0.32 13.67 1.64 13.34 3 13 C3 12.34 3 11.68 3 11 C2.34 11 1.68 11 1 11 C0.67 7.37 0.34 3.74 0 0 Z " fill="#444BFA" transform="translate(89,86)"/>
<path d="M0 0 C1.32 0 2.64 0 4 0 C3.4739075 3.78786597 2.61896089 6.17152224 0 9 C-0.66 9 -1.32 9 -2 9 C-2 9.66 -2 10.32 -2 11 C-2.66 11 -3.32 11 -4 11 C-4 11.66 -4 12.32 -4 13 C-5.98 13 -7.96 13 -10 13 C-10.33 12.01 -10.66 11.02 -11 10 C-7.97079192 6.73777591 -4.69236102 4.46157402 -1 2 C-0.67 1.34 -0.34 0.68 0 0 Z " fill="#FAFBF7" transform="translate(132,112)"/>
<path d="M0 0 C7.59 0 15.18 0 23 0 C22.01 0.495 22.01 0.495 21 1 C21 1.66 21 2.32 21 3 C18.81347261 3.33965474 16.62571975 3.67142477 14.4375 4 C12.61025391 4.2784375 12.61025391 4.2784375 10.74609375 4.5625 C7.12372152 4.98555077 3.64287954 5.07501425 0 5 C0 3.35 0 1.7 0 0 Z " fill="#8EAEFC" transform="translate(73,108)"/>
<path d="M0 0 C0 0.99 0 1.98 0 3 C-0.99 3.66 -1.98 4.32 -3 5 C-3.73343428 8.06556598 -3.73343428 8.06556598 -4 11 C-3.34 11 -2.68 11 -2 11 C-1.67 11.99 -1.34 12.98 -1 14 C-3.31 14 -5.62 14 -8 14 C-8 14.66 -8 15.32 -8 16 C-8.66 16 -9.32 16 -10 16 C-10 16.66 -10 17.32 -10 18 C-10.99 18 -11.98 18 -13 18 C-13.33 18.99 -13.66 19.98 -14 21 C-13.69595322 19.32774271 -13.35371498 17.66246041 -13 16 C-12.835 14.906875 -12.67 13.81375 -12.5 12.6875 C-10.2270674 7.09987401 -5.42540991 2.71270496 0 0 Z " fill="#5760F4" transform="translate(47,32)"/>
<path d="M0 0 C0.33 0 0.66 0 1 0 C1.66 0 2.32 0 3 0 C3.12375 1.6396875 3.12375 1.6396875 3.25 3.3125 C3.63689209 7.03276664 3.63689209 7.03276664 6.0625 8.9375 C6.701875 9.288125 7.34125 9.63875 8 10 C7.814375 10.61875 7.62875 11.2375 7.4375 11.875 C6.76313824 14.04160178 6.76313824 14.04160178 8 16 C7.01 16 6.02 16 5 16 C5 14.02 5 12.04 5 10 C3.35 10.33 1.7 10.66 0 11 C0 9.02 0 7.04 0 5 C-0.53625 4.87625 -1.0725 4.7525 -1.625 4.625 C-4.4638286 3.87793984 -7.22223202 2.94696636 -10 2 C-6.34531514 -0.43645658 -4.30360066 -0.15939262 0 0 Z " fill="#9BB4FB" transform="translate(132,96)"/>
<path d="M0 0 C1.98 0 3.96 0 6 0 C6 3.96 6 7.92 6 12 C3.64828869 11.40138258 1.3140622 10.73075648 -1 10 C-2.38125018 7.23749964 -2.19079306 5.05268901 -2 2 C-1.34 1.34 -0.68 0.68 0 0 Z " fill="#AFC7FB" transform="translate(66,64)"/>
<path d="M0 0 C0.33 0 0.66 0 1 0 C1.16774403 2.77077198 1.33423936 5.54160927 1.5 8.3125 C1.54769531 9.09818359 1.59539062 9.88386719 1.64453125 10.69335938 C1.68964844 11.45068359 1.73476562 12.20800781 1.78125 12.98828125 C1.82314453 13.68477783 1.86503906 14.38127441 1.90820312 15.09887695 C1.98700971 16.73096966 2 18.36600579 2 20 C2.94875 19.938125 3.8975 19.87625 4.875 19.8125 C5.90625 19.874375 6.9375 19.93625 8 20 C10 23 10 23 10 26 C7.03 26.33 4.06 26.66 1 27 C0.20293232 23.50007304 -0.11863027 20.2857769 -0.09765625 16.69921875 C-0.09443359 15.72275391 -0.09121094 14.74628906 -0.08789062 13.74023438 C-0.07951172 12.73283203 -0.07113281 11.72542969 -0.0625 10.6875 C-0.05798828 9.66076172 -0.05347656 8.63402344 -0.04882812 7.57617188 C-0.03708184 5.05072118 -0.02065565 2.52539095 0 0 Z " fill="#0510D8" transform="translate(74,76)"/>
<path d="M0 0 C2.375 -0.125 2.375 -0.125 5 0 C7 2 7 2 7.1953125 3.9453125 C7.13020833 5.96354167 7.06510417 7.98177083 7 10 C4.6739143 10.38063221 2.33944736 10.71269945 0 11 C-1.89885096 9.10114904 -1.12367506 6.42752097 -1.1328125 3.91015625 C-1 2 -1 2 0 0 Z " fill="#D7DEFD" transform="translate(52,80)"/>
<path d="M0 0 C2.475 0.99 2.475 0.99 5 2 C5 8.93 5 15.86 5 23 C4.67 23 4.34 23 4 23 C4 19.04 4 15.08 4 11 C3.34 11 2.68 11 2 11 C1.34 12.32 0.68 13.64 0 15 C0 14.34 0 13.68 0 13 C-0.66 13 -1.32 13 -2 13 C-1.7215625 11.824375 -1.7215625 11.824375 -1.4375 10.625 C-0.74037734 8.02910225 -0.74037734 8.02910225 -2 6 C-1.34 6 -0.68 6 0 6 C0 4.02 0 2.04 0 0 Z " fill="#5B6ECD" transform="translate(67,111)"/>
<path d="M0 0 C1.65 0 3.3 0 5 0 C4.67 0.66 4.34 1.32 4 2 C3.01 2 2.02 2 1 2 C0.8453125 3.794375 0.8453125 3.794375 0.6875 5.625 C0.16511233 9.60644119 -0.68044768 12.64064837 -3 16 C-6.1875 17.375 -6.1875 17.375 -9 18 C-8.67925956 16.66358148 -8.34135927 15.33130115 -8 14 C-7.566875 12.1746875 -7.566875 12.1746875 -7.125 10.3125 C-6.75375 9.219375 -6.3825 8.12625 -6 7 C-5.01 6.67 -4.02 6.34 -3 6 C-2.26676204 3.98491642 -2.26676204 3.98491642 -2 2 C-1.34 2 -0.68 2 0 2 C0 1.34 0 0.68 0 0 Z " fill="#4A60FC" transform="translate(67,78)"/>
<path d="M0 0 C6.96528471 0.93361841 11.78374222 5.61326085 16.4375 10.625 C19.04955888 14.59532949 20 17.21083496 20 22 C18.68 22 17.36 22 16 22 C15.87625 21.401875 15.7525 20.80375 15.625 20.1875 C15.04524015 17.73768652 15.04524015 17.73768652 13 15 C12.5978125 13.5459375 12.5978125 13.5459375 12.1875 12.0625 C10.55765726 7.85922137 7.96695125 5.98347563 4 4 C4 3.34 4 2.68 4 2 C2.68 1.34 1.36 0.68 0 0 Z " fill="#BECEE1" transform="translate(140,26)"/>
<path d="M0 0 C-0.51482919 5.852795 -1.45357192 11.3297637 -3 17 C-4.98 17 -6.96 17 -9 17 C-8.35269621 14.65974784 -7.68485513 12.32935294 -7 10 C-6.77054687 9.19691406 -6.54109375 8.39382812 -6.3046875 7.56640625 C-6.05976562 6.76074219 -5.81484375 5.95507812 -5.5625 5.125 C-5.33691406 4.36445312 -5.11132812 3.60390625 -4.87890625 2.8203125 C-4.58886719 2.21960938 -4.29882812 1.61890625 -4 1 C-1 0 -1 0 0 0 Z " fill="#2E46FB" transform="translate(72,79)"/>
<path d="M0 0 C2.59342078 2.26743213 3.61901688 4.15976378 4.625 7.4375 C4.86476563 8.19933594 5.10453125 8.96117188 5.3515625 9.74609375 C5.76689091 11.18973529 6.15973965 12.64015069 6.5234375 14.09765625 C6.93815537 15.75312842 7.46031685 17.38095055 8 19 C8.66 19.33 9.32 19.66 10 20 C10 21.32 10 22.64 10 24 C10.99 24.33 11.98 24.66 13 25 C13.33 25.99 13.66 26.98 14 28 C11.525 27.01 11.525 27.01 9 26 C9 25.34 9 24.68 9 24 C8.34 24 7.68 24 7 24 C2.19952622 16.88205612 0 8.57889792 0 0 Z " fill="#0411E1" transform="translate(34,96)"/>
<path d="M0 0 C0.93610988 2.52749667 1.17072805 3.61301641 0.0625 6.125 C-1.3224309 9.87246007 -1.45494784 13.34815899 -1.625 17.3125 C-1.66367187 18.05306641 -1.70234375 18.79363281 -1.7421875 19.55664062 C-1.83581705 21.37071309 -1.91896851 23.18532116 -2 25 C-3.32 25 -4.64 25 -6 25 C-6 20.71 -6 16.42 -6 12 C-5.34 12 -4.68 12 -4 12 C-4 10.68 -4 9.36 -4 8 C-3.34 8 -2.68 8 -2 8 C-1.855625 6.865625 -1.71125 5.73125 -1.5625 4.5625 C-1 1 -1 1 0 0 Z " fill="#6F73E8" transform="translate(30,60)"/>
<path d="M0 0 C0.99 0 1.98 0 3 0 C3.04898438 0.92683594 3.09796875 1.85367188 3.1484375 2.80859375 C3.22320312 4.00613281 3.29796875 5.20367187 3.375 6.4375 C3.44460937 7.63246094 3.51421875 8.82742187 3.5859375 10.05859375 C3.72257812 11.02925781 3.85921875 11.99992187 4 13 C4.66 13.33 5.32 13.66 6 14 C6.33 11.36 6.66 8.72 7 6 C7.99 6 8.98 6 10 6 C10.33 9.3 10.66 12.6 11 16 C10.01 15.67 9.02 15.34 8 15 C5.85744207 15.38932856 5.85744207 15.38932856 4 16 C3.34 14.68 2.68 13.36 2 12 C1.34 12 0.68 12 0 12 C0 11.01 0 10.02 0 9 C0.66 9 1.32 9 2 9 C2 7.02 2 5.04 2 3 C1.34 3 0.68 3 0 3 C0 2.01 0 1.02 0 0 Z " fill="#2C39FC" transform="translate(40,88)"/>
<path d="M0 0 C1.2380014 3.57644848 0.74926071 6.33694766 0 10 C-0.66 10 -1.32 10 -2 10 C-2.33 11.98 -2.66 13.96 -3 16 C-2.34 16.33 -1.68 16.66 -1 17 C-2.32 17.33 -3.64 17.66 -5 18 C-6.32229189 15.35541621 -6.09677194 13.32238699 -6.0625 10.375 C-6.05347656 9.37210938 -6.04445313 8.36921875 -6.03515625 7.3359375 C-6.02355469 6.56507812 -6.01195313 5.79421875 -6 5 C-5.34 5 -4.68 5 -4 5 C-3.896875 4.360625 -3.79375 3.72125 -3.6875 3.0625 C-3.460625 2.381875 -3.23375 1.70125 -3 1 C-2.01 0.67 -1.02 0.34 0 0 Z " fill="#A2BEFB" transform="translate(85,56)"/>
<path d="M0 0 C1.32 0 2.64 0 4 0 C3.98839844 1.12019531 3.97679687 2.24039063 3.96484375 3.39453125 C3.95546378 4.86718583 3.9463638 6.33984222 3.9375 7.8125 C3.92912109 8.55048828 3.92074219 9.28847656 3.91210938 10.04882812 C3.89740172 13.29922068 3.96468298 15.89404895 5 19 C5.12781786 21.67394964 5.04391871 24.32095857 5 27 C2.22292419 24.46440904 1.14187273 22.56734789 0.79467773 18.73168945 C0.75802002 17.86761475 0.7213623 17.00354004 0.68359375 16.11328125 C0.64169922 15.17548828 0.59980469 14.23769531 0.55664062 13.27148438 C0.51732422 12.29501953 0.47800781 11.31855469 0.4375 10.3125 C0.39431641 9.32443359 0.35113281 8.33636719 0.30664062 7.31835938 C0.20058346 4.87904454 0.09852286 2.43962887 0 0 Z " fill="#1E28C6" transform="translate(29,85)"/>
<path d="M0 0 C2.33944736 0.28730055 4.6739143 0.61936779 7 1 C7.66 2.65 8.32 4.3 9 6 C7 8 7 8 3.5 8.25 C0 8 0 8 -2 6 C-1.44444444 1.44444444 -1.44444444 1.44444444 0 0 Z " fill="#4861F7" transform="translate(123,50)"/>
<path d="M0 0 C3.3 0 6.6 0 10 0 C10.33 0.99 10.66 1.98 11 3 C8.89463891 6.74286416 6.82045201 9.90491341 3 12 C2.01 11.67 1.02 11.34 0 11 C0.66 10.01 1.32 9.02 2 8 C2.66 8 3.32 8 4 8 C4 7.01 4 6.02 4 5 C4.66 5 5.32 5 6 5 C6 4.34 6 3.68 6 3 C4.02 3 2.04 3 0 3 C0 2.01 0 1.02 0 0 Z " fill="#596AFA" transform="translate(82,34)"/>
<path d="M0 0 C1.27327148 -0.00386719 1.27327148 -0.00386719 2.57226562 -0.0078125 C3.45205078 -0.00007813 4.33183594 0.00765625 5.23828125 0.015625 C6.09873047 0.00789063 6.95917969 0.00015625 7.84570312 -0.0078125 C13.69557822 0.00982088 18.88262637 0.81843652 24.55078125 2.265625 C24.55078125 3.585625 24.55078125 4.905625 24.55078125 6.265625 C19.80078125 4.390625 19.80078125 4.390625 17.55078125 3.265625 C8.90655211 2.30118621 0.23985279 2.12239855 -8.44921875 2.265625 C-5.50525518 0.58431417 -3.38119054 0.01004065 0 0 Z " fill="#757ADC" transform="translate(76.44921875,21.734375)"/>
<path d="M0 0 C4.62 0 9.24 0 14 0 C11.44237621 2.55762379 9.58957552 3.97278559 6.5 5.6875 C5.33984375 6.34298828 5.33984375 6.34298828 4.15625 7.01171875 C2 8 2 8 -1 8 C-0.67 5.36 -0.34 2.72 0 0 Z M2 2 C2.33 2.66 2.66 3.32 3 4 C3.33 3.34 3.66 2.68 4 2 C3.34 2 2.68 2 2 2 Z " fill="#ABC2F1" transform="translate(121,144)"/>
<path d="M0 0 C1.32 0.33 2.64 0.66 4 1 C1.86819397 7.13340841 0.0461211 11.79489908 -5 16 C-5 12.04 -5 8.08 -5 4 C-4.01 4 -3.02 4 -2 4 C-1.34 2.68 -0.68 1.36 0 0 Z " fill="#A2B6EE" transform="translate(149,120)"/>
<path d="M0 0 C0.33 0 0.66 0 1 0 C1.0272415 1.41655793 1.04650467 2.83327045 1.0625 4.25 C1.07410156 5.03890625 1.08570312 5.8278125 1.09765625 6.640625 C1 9 1 9 0.46875 11.0625 C-0.27213356 14.12481871 0.46965718 16.93579702 1 20 C-3 20 -3 20 -5 19 C-5 16.36 -5 13.72 -5 11 C-4.67 11.66 -4.34 12.32 -4 13 C-3.34 13 -2.68 13 -2 13 C-1.93941406 12.22914062 -1.87882812 11.45828125 -1.81640625 10.6640625 C-1.69072266 9.15972656 -1.69072266 9.15972656 -1.5625 7.625 C-1.48128906 6.62726562 -1.40007812 5.62953125 -1.31640625 4.6015625 C-1 2 -1 2 0 0 Z " fill="#E9F6FB" transform="translate(87,53)"/>
<path d="M0 0 C1.051875 0.5878125 1.051875 0.5878125 2.125 1.1875 C-0.88363221 4.6711794 -4.02133591 5.97195766 -8.5625 6.5 C-9.325625 6.396875 -10.08875 6.29375 -10.875 6.1875 C-12.875 3.1875 -12.875 3.1875 -12.875 0.1875 C-11.555 0.1875 -10.235 0.1875 -8.875 0.1875 C-8.875 0.8475 -8.875 1.5075 -8.875 2.1875 C-7.988125 1.65125 -7.10125 1.115 -6.1875 0.5625 C-2.875 -0.8125 -2.875 -0.8125 0 0 Z " fill="#7691F7" transform="translate(122.875,116.8125)"/>
<path d="M0 0 C0.8971875 0.309375 0.8971875 0.309375 1.8125 0.625 C1.8125 1.285 1.8125 1.945 1.8125 2.625 C2.4725 2.625 3.1325 2.625 3.8125 2.625 C4.0625 9.25 4.0625 9.25 1.8125 12.625 C1.1525 10.315 0.4925 8.005 -0.1875 5.625 C-1.8375 5.295 -3.4875 4.965 -5.1875 4.625 C-5.5175 7.925 -5.8475 11.225 -6.1875 14.625 C-6.5175 14.625 -6.8475 14.625 -7.1875 14.625 C-7.24197047 13.20876784 -7.28050508 11.79191809 -7.3125 10.375 C-7.33570313 9.58609375 -7.35890625 8.7971875 -7.3828125 7.984375 C-7.16461178 5.34851026 -6.61717069 3.84051617 -5.1875 1.625 C-2.1875 -0.375 -2.1875 -0.375 0 0 Z " fill="#A1ACFB" transform="translate(57.1875,75.375)"/>
<path d="M0 0 C0.81210938 0.55300781 0.81210938 0.55300781 1.640625 1.1171875 C0.980625 1.1171875 0.320625 1.1171875 -0.359375 1.1171875 C-0.359375 2.1071875 -0.359375 3.0971875 -0.359375 4.1171875 C0.300625 4.4471875 0.960625 4.7771875 1.640625 5.1171875 C-3.309375 5.1171875 -8.259375 5.1171875 -13.359375 5.1171875 C-13.359375 4.4571875 -13.359375 3.7971875 -13.359375 3.1171875 C-11.61703675 2.39021189 -9.86510155 1.68620506 -8.109375 0.9921875 C-7.13484375 0.59773438 -6.1603125 0.20328125 -5.15625 -0.203125 C-2.359375 -0.8828125 -2.359375 -0.8828125 0 0 Z " fill="#4157FB" transform="translate(86.359375,101.8828125)"/>
<path d="M0 0 C-0.99 0.33 -1.98 0.66 -3 1 C-3.33 2.65 -3.66 4.3 -4 6 C-4.99 6 -5.98 6 -7 6 C-7 6.66 -7 7.32 -7 8 C-8.98 8 -10.96 8 -13 8 C-13.33 6.68 -13.66 5.36 -14 4 C-4.58997722 -0.59225513 -4.58997722 -0.59225513 0 0 Z " fill="#EEF9FA" transform="translate(115,23)"/>
<path d="M0 0 C0.78375 0.185625 1.5675 0.37125 2.375 0.5625 C7.03933441 1.12543691 11.35977729 0.59607604 16 0 C15 2 15 2 12.99609375 2.88671875 C7.15094787 4.71611555 3.01313171 5.2248972 -3 4 C-3 3.34 -3 2.68 -3 2 C-2.01 2 -1.02 2 0 2 C0 1.34 0 0.68 0 0 Z " fill="#B7D1F6" transform="translate(104,152)"/>
<path d="M0 0 C0.66 0 1.32 0 2 0 C2 0.66 2 1.32 2 2 C2.99 2.33 3.98 2.66 5 3 C4.01 3.33 3.02 3.66 2 4 C2.825 4.86625 3.65 5.7325 4.5 6.625 C6.65865899 9.17890641 6.9876294 9.86639751 7.3125 13.375 C7.209375 14.24125 7.10625 15.1075 7 16 C3.65323186 14.96134782 2.97467398 13.95387047 1.25 10.8125 C-0.16343391 7.17577276 -0.23857902 3.89679063 0 0 Z " fill="#D7F7F7" transform="translate(73,134)"/>
<path d="M0 0 C2.31 0 4.62 0 7 0 C6.67 5.94 6.34 11.88 6 18 C5.67 18 5.34 18 5 18 C4.01 13.71 3.02 9.42 2 5 C1.34 5.66 0.68 6.32 0 7 C0 4.69 0 2.38 0 0 Z " fill="#191C3E" transform="translate(20,86)"/>
<path d="M0 0 C0.99 0 1.98 0 3 0 C3.64834654 1.269553 4.29357815 2.54069706 4.9375 3.8125 C5.29714844 4.52019531 5.65679687 5.22789063 6.02734375 5.95703125 C7 8 7 8 8 11 C9.32 10.67 10.64 10.34 12 10 C11.67 11.65 11.34 13.3 11 15 C4.75118587 12.54510874 2.06575306 6.58405022 -1 1 C-0.67 0.67 -0.34 0.34 0 0 Z " fill="#36364A" transform="translate(28,115)"/>
<path d="M0 0 C0.33 0 0.66 0 1 0 C1.33 4.62 1.66 9.24 2 14 C1.34 14 0.68 14 0 14 C0.33 16.31 0.66 18.62 1 21 C0.01 20.67 -0.98 20.34 -2 20 C-3.53616498 12.73812918 -2.07979208 7.05014265 0 0 Z " fill="#0A15F5" transform="translate(77,60)"/>
<path d="M0 0 C1.32 0 2.64 0 4 0 C3.34 3.3 2.68 6.6 2 10 C2.66 10 3.32 10 4 10 C4.33 11.98 4.66 13.96 5 16 C3.35 15.67 1.7 15.34 0 15 C0 10.05 0 5.1 0 0 Z " fill="#4E5BFC" transform="translate(45,78)"/>
<path d="M0 0 C2.97 0 5.94 0 9 0 C9.33 1.32 9.66 2.64 10 4 C9.34 4 8.68 4 8 4 C7.34 5.32 6.68 6.64 6 8 C5.690625 7.0409375 5.690625 7.0409375 5.375 6.0625 C4.10461791 3.65074923 4.10461791 3.65074923 0.875 3.25 C-0.07375 3.1675 -1.0225 3.085 -2 3 C-1.34 2.67 -0.68 2.34 0 2 C0 1.34 0 0.68 0 0 Z " fill="#7C94FB" transform="translate(126,47)"/>
<path d="M0 0 C0.66 0 1.32 0 2 0 C2.33 2.64 2.66 5.28 3 8 C2.360625 8.268125 1.72125 8.53625 1.0625 8.8125 C-1.33131686 9.88667752 -1.33131686 9.88667752 -2 13 C-2.66 13 -3.32 13 -4 13 C-4 15.64 -4 18.28 -4 21 C-4.33 21 -4.66 21 -5 21 C-5.10841951 19.08458862 -5.18578079 17.16740227 -5.25 15.25 C-5.29640625 14.18265625 -5.3428125 13.1153125 -5.390625 12.015625 C-4.91158318 8.31742215 -3.74025321 7.40299128 -1 5 C-0.20318682 2.35815459 -0.20318682 2.35815459 0 0 Z " fill="#7E97FC" transform="translate(83,48)"/>
<path d="M0 0 C2.31 0 4.62 0 7 0 C7 2.31 7 4.62 7 7 C5.02 7.33 3.04 7.66 1 8 C0.67 5.36 0.34 2.72 0 0 Z " fill="#F6F9FB" transform="translate(135,56)"/>
<path d="M0 0 C0.66 0 1.32 0 2 0 C2.66 6.6 3.32 13.2 4 20 C-0.55530318 13.92626243 -1.63204688 9.48167126 -1 2 C-0.67 1.34 -0.34 0.68 0 0 Z " fill="#1E263F" transform="translate(69,122)"/>
<path d="M0 0 C1.2077558 3.62326739 0.54311128 4.64146369 -1 8 C-0.34 8 0.32 8 1 8 C1.36552803 9.41377782 1.71695495 10.83120576 2.0625 12.25 C2.25972656 13.03890625 2.45695312 13.8278125 2.66015625 14.640625 C3.01497267 17.10394822 2.76877544 18.65604132 2 21 C1.34 21 0.68 21 0 21 C0 18.36 0 15.72 0 13 C-0.66 13 -1.32 13 -2 13 C-2.33 13.66 -2.66 14.32 -3 15 C-3.3152595 9.01006953 -2.68219822 5.36439644 0 0 Z " fill="#0615F7" transform="translate(38,59)"/>
<path d="M0 0 C0.66 0.33 1.32 0.66 2 1 C2.144375 1.66 2.28875 2.32 2.4375 3 C2.623125 3.66 2.80875 4.32 3 5 C3.99 5.33 4.98 5.66 6 6 C5 9 5 9 2.9375 10.1875 C2.298125 10.455625 1.65875 10.72375 1 11 C0.67 10.01 0.34 9.02 0 8 C-0.99 8.33 -1.98 8.66 -3 9 C-2.25 2.25 -2.25 2.25 0 0 Z " fill="#515DFB" transform="translate(45,35)"/>
<path d="M0 0 C-6.54308764 4.67363403 -12.15404242 6.18834922 -20 7 C-16.87065923 4.44236572 -13.71432957 2.82859007 -10 1.25 C-8.96875 0.80140625 -7.9375 0.3528125 -6.875 -0.109375 C-3.97128737 -1.00889467 -2.77603319 -1.0943977 0 0 Z " fill="#646CEA" transform="translate(68,25)"/>
<path d="M0 0 C1.74627478 2.61941217 2.38722388 4.03824877 3 7 C-3.88831341 7.62621031 -9.58902255 5.35806067 -16 3 C-15.67 2.34 -15.34 1.68 -15 1 C-13.68 1 -12.36 1 -11 1 C-11 1.66 -11 2.32 -11 3 C-7.37 3.66 -3.74 4.32 0 5 C-0.33 3.68 -0.66 2.36 -1 1 C-0.67 0.67 -0.34 0.34 0 0 Z " fill="#5961A4" transform="translate(73,141)"/>
<path d="M0 0 C0.66 0 1.32 0 2 0 C3.23922223 3.71766668 2.57018942 5.43889537 1.5625 9.1875 C1.27503906 10.27417969 0.98757812 11.36085938 0.69140625 12.48046875 C0.34916016 13.72763672 0.34916016 13.72763672 0 15 C-0.99 15 -1.98 15 -3 15 C-3.33 15.66 -3.66 16.32 -4 17 C-4.33503046 12.19789671 -3.510669 10.0170704 -1 6 C-0.28598768 2.80604974 -0.28598768 2.80604974 0 0 Z " fill="#6A6BA4" transform="translate(26,57)"/>
<path d="M0 0 C3.88704087 4.25723524 6 10.27543399 6 16 C5.34 16 4.68 16 4 16 C-1.5321244 7.55824616 -1.5321244 7.55824616 -0.8125 2.9375 C-0.544375 1.968125 -0.27625 0.99875 0 0 Z " fill="#3B3E79" transform="translate(32,110)"/>
<path d="M0 0 C5.75 1.75 5.75 1.75 8 4 C7.01 5.485 7.01 5.485 6 7 C5.01 7 4.02 7 3 7 C3 7.66 3 8.32 3 9 C2.01 8.67 1.02 8.34 0 8 C-0.38063221 5.6739143 -0.71269945 3.33944736 -1 1 C-0.67 0.67 -0.34 0.34 0 0 Z " fill="#6A72FC" transform="translate(100,90)"/>
<path d="M0 0 C0.33 0 0.66 0 1 0 C1.33 8.25 1.66 16.5 2 25 C2.99 25.33 3.98 25.66 5 26 C3.35 26.33 1.7 26.66 0 27 C-0.12375 25.865625 -0.2475 24.73125 -0.375 23.5625 C-0.58125 22.386875 -0.7875 21.21125 -1 20 C-1.66 19.67 -2.32 19.34 -3 19 C-2.34 18.67 -1.68 18.34 -1 18 C-0.505 9.09 -0.505 9.09 0 0 Z " fill="#2735EA" transform="translate(73,78)"/>
<path d="M0 0 C1.32 0 2.64 0 4 0 C4 0.66 4 1.32 4 2 C6.64 2 9.28 2 12 2 C11.34 2.66 10.68 3.32 10 4 C14.455 5.98 14.455 5.98 19 8 C19 8.66 19 9.32 19 10 C15.34112957 9.27704247 12.26574167 7.78293451 8.9375 6.125 C7.89464844 5.61195313 6.85179687 5.09890625 5.77734375 4.5703125 C3.38268646 3.21637125 1.78135391 2.05872736 0 0 Z " fill="#2833F6" transform="translate(48,126)"/>
<path d="M0 0 C1.65 0.33 3.3 0.66 5 1 C4.745504 2.48206495 4.47088238 3.96068615 4.1875 5.4375 C4.03667969 6.26121094 3.88585937 7.08492188 3.73046875 7.93359375 C3.48941406 8.61550781 3.24835938 9.29742187 3 10 C0 11 0 11 -3 10 C-3 9.34 -3 8.68 -3 8 C-2.01 8 -1.02 8 0 8 C0 5.36 0 2.72 0 0 Z " fill="#DFF8F9" transform="translate(102,80)"/>
<path d="M0 0 C0.66 0 1.32 0 2 0 C1.62403791 2.78211944 1.32681541 4.5879284 -0.4375 6.8125 C-2 8 -2 8 -4 8 C-4.33 8.66 -4.66 9.32 -5 10 C-7.62581138 11.57548683 -8.87099787 12 -12 12 C-12 11.34 -12 10.68 -12 10 C-10.390625 8.88671875 -10.390625 8.88671875 -8.25 7.6875 C-4.67384023 5.56455003 -2.49526721 3.35901355 0 0 Z " fill="#8FB0FA" transform="translate(126,107)"/>
<path d="M0 0 C3.3 0.33 6.6 0.66 10 1 C10 2.32 10 3.64 10 5 C10.99 5.33 11.98 5.66 13 6 C10.01120724 6.85394079 8.28236729 7.07700926 5.25 6.25 C3 5 3 5 2 2 C1.34 1.34 0.68 0.68 0 0 Z " fill="#8DAAF9" transform="translate(96,103)"/>
<path d="M0 0 C0.33 0 0.66 0 1 0 C1 3.96 1 7.92 1 12 C-1.97 11.505 -1.97 11.505 -5 11 C-5 11.66 -5 12.32 -5 13 C-5.66 13 -6.32 13 -7 13 C-7.33 14.32 -7.66 15.64 -8 17 C-8 15.02 -8 13.04 -8 11 C-8.66 11 -9.32 11 -10 11 C-10 10.34 -10 9.68 -10 9 C-6.7 9 -3.4 9 0 9 C0 6.03 0 3.06 0 0 Z " fill="#6B7FFB" transform="translate(72,67)"/>
<path d="M0 0 C2.31 0.33 4.62 0.66 7 1 C6.42415568 3.38564077 5.77772405 5.66682784 5 8 C4.01 8.33 3.02 8.66 2 9 C0.50178941 5.62902617 0 3.79557881 0 0 Z " fill="#7897FC" transform="translate(126,59)"/>
<path d="M0 0 C3.48331435 3.01887244 4.79157144 5.56909529 6 10 C6.66 10 7.32 10 8 10 C8 10.66 8 11.32 8 12 C8.66 12.33 9.32 12.66 10 13 C9.34 13 8.68 13 8 13 C7.67 13.66 7.34 14.32 7 15 C5.5 13.625 5.5 13.625 4 12 C4 11.34 4 10.68 4 10 C3.34 10 2.68 10 2 10 C1.34 6.7 0.68 3.4 0 0 Z " fill="#3843EC" transform="translate(35,110)"/>
<path d="M0 0 C1.32 0 2.64 0 4 0 C4 1.98 4 3.96 4 6 C2.35 6 0.7 6 -1 6 C-1.66 7.32 -2.32 8.64 -3 10 C-3.99 10 -4.98 10 -6 10 C-5.38125 9.278125 -4.7625 8.55625 -4.125 7.8125 C-2.16333647 5.21618062 -1.04684 3.05328334 0 0 Z " fill="#D8EFFB" transform="translate(133,106)"/>
<path d="M0 0 C1.47906892 -0.02689216 2.95827483 -0.04634621 4.4375 -0.0625 C5.26121094 -0.07410156 6.08492188 -0.08570312 6.93359375 -0.09765625 C9 0 9 0 10 1 C10.04092937 3.33297433 10.04241723 5.66705225 10 8 C9.67 7.01 9.34 6.02 9 5 C6.89415562 4.19436362 6.89415562 4.19436362 4.4375 3.8125 C3.61121094 3.65394531 2.78492187 3.49539062 1.93359375 3.33203125 C1.29550781 3.22246094 0.65742187 3.11289063 0 3 C0 2.01 0 1.02 0 0 Z " fill="#9FBEFB" transform="translate(63,100)"/>
<path d="M0 0 C1.66611905 -0.042721 3.33382885 -0.04063832 5 0 C6 1 6 1 6.25 3.375 C6 6 6 6 4.5 7.8125 C4.005 8.204375 3.51 8.59625 3 9 C2.67 8.01 2.34 7.02 2 6 C2.33 5.34 2.66 4.68 3 4 C1.02 4.33 -0.96 4.66 -3 5 C-2.34 4.67 -1.68 4.34 -1 4 C-0.34786708 1.97536745 -0.34786708 1.97536745 0 0 Z " fill="#0E1FF6" transform="translate(117,97)"/>
<path d="M0 0 C0.33 0 0.66 0 1 0 C1.48109963 2.52047792 1.95992603 5.0413537 2.4375 7.5625 C2.57220703 8.26697266 2.70691406 8.97144531 2.84570312 9.69726562 C3.68138642 14.12027231 4.39625245 18.53930209 5 23 C3 21.3125 3 21.3125 1 19 C0.8125 16.3125 0.8125 16.3125 1 14 C0.67 13.67 0.34 13.34 0 13 C-0.07258946 10.81360547 -0.08373783 8.62499611 -0.0625 6.4375 C-0.05347656 5.23996094 -0.04445313 4.04242188 -0.03515625 2.80859375 C-0.02355469 1.88175781 -0.01195313 0.95492187 0 0 Z " fill="#222FE8" transform="translate(32,88)"/>
<path d="M0 0 C1.66611905 -0.042721 3.33382885 -0.04063832 5 0 C6 1 6 1 6.0625 3.5625 C6.041875 4.366875 6.02125 5.17125 6 6 C4.34385343 6.38218767 2.67542976 6.71395102 1 7 C0 6 0 6 -0.0625 2.9375 C-0.041875 1.968125 -0.02125 0.99875 0 0 Z " fill="#F9FBFA" transform="translate(52,82)"/>
<path d="M0 0 C1.98 0 3.96 0 6 0 C6 2.97 6 5.94 6 9 C5.67 8.01 5.34 7.02 5 6 C3.35 6 1.7 6 0 6 C0 4.02 0 2.04 0 0 Z " fill="#EBF9FC" transform="translate(66,67)"/>
<path d="M0 0 C1.32 0.66 2.64 1.32 4 2 C3.74438677 4.3431213 3.40729228 6.67843403 3 9 C2.01 9.495 2.01 9.495 1 10 C-0.13350534 12.01669827 -0.13350534 12.01669827 -1 14 C-1.027193 12.41676312 -1.04648306 10.83338938 -1.0625 9.25 C-1.07410156 8.36828125 -1.08570313 7.4865625 -1.09765625 6.578125 C-1.00826198 4.2181162 -0.66912821 2.25501476 0 0 Z " fill="#5F79FB" transform="translate(64,108)"/>
<path d="M0 0 C0.99 0.33 1.98 0.66 3 1 C2.34 1 1.68 1 1 1 C1 1.99 1 2.98 1 4 C0.01 4.495 0.01 4.495 -1 5 C-1.69227032 7.80980673 -1.69227032 7.80980673 -2.125 11.0625 C-2.29257812 12.16722656 -2.46015625 13.27195312 -2.6328125 14.41015625 C-2.75398438 15.26480469 -2.87515625 16.11945313 -3 17 C-3.33 16.34 -3.66 15.68 -4 15 C-4.66 15 -5.32 15 -6 15 C-5.49202991 10.6822542 -4.80317221 6.96697886 -3 3 C-2.01 3 -1.02 3 0 3 C0 2.01 0 1.02 0 0 Z " fill="#707FFC" transform="translate(53,73)"/>
<path d="M0 0 C1.32 0.66 2.64 1.32 4 2 C4 4.64 4 7.28 4 10 C3.34 10 2.68 10 2 10 C2 9.34 2 8.68 2 8 C1.34 8 0.68 8 0 8 C0 10.31 0 12.62 0 15 C-0.33 15 -0.66 15 -1 15 C-1.18451025 4.44191344 -1.18451025 4.44191344 0 0 Z " fill="#1C28F4" transform="translate(34,70)"/>
<path d="M0 0 C0.33 1.32 0.66 2.64 1 4 C1.99 4 2.98 4 4 4 C4 4.66 4 5.32 4 6 C3.01 6.495 3.01 6.495 2 7 C4.31 7.66 6.62 8.32 9 9 C9 9.33 9 9.66 9 10 C5.04 10 1.08 10 -3 10 C-2.01 9.67 -1.02 9.34 0 9 C0 6.03 0 3.06 0 0 Z M4 2 C5.32 2.33 6.64 2.66 8 3 C6.68 3.33 5.36 3.66 4 4 C4 3.34 4 2.68 4 2 Z " fill="#ACCAF1" transform="translate(143,54)"/>
<path d="M0 0 C0.99 0 1.98 0 3 0 C3.93065133 2.60582371 4.14917407 3.64198224 3.0625 6.25 C2.5365625 7.11625 2.5365625 7.11625 2 8 C1.01 8 0.02 8 -1 8 C-1.33 8.66 -1.66 9.32 -2 10 C-3.125 5.25 -3.125 5.25 -2 3 C-1.34 3 -0.68 3 0 3 C0 2.01 0 1.02 0 0 Z " fill="#ACC9FC" transform="translate(136,48)"/>
<path d="M0 0 C5.28 0 10.56 0 16 0 C16 0.33 16 0.66 16 1 C12.7 1.33 9.4 1.66 6 2 C5.67 2.99 5.34 3.98 5 5 C3.35 5 1.7 5 0 5 C0 3.35 0 1.7 0 0 Z " fill="#7F9BFC" transform="translate(73,108)"/>
<path d="M0 0 C2.64 0 5.28 0 8 0 C8 0.66 8 1.32 8 2 C6.9275 2.20625 5.855 2.4125 4.75 2.625 C0.29408826 4.2588343 -0.77777608 5.91110799 -3 10 C-3.66 9.67 -4.32 9.34 -5 9 C-4.34 6.69 -3.68 4.38 -3 2 C-2.01 2 -1.02 2 0 2 C0 1.34 0 0.68 0 0 Z " fill="#647FFC" transform="translate(64,62)"/>
<path d="M0 0 C1.32 0.33 2.64 0.66 4 1 C3.01 1 2.02 1 1 1 C1 2.98 1 4.96 1 7 C-2.55780196 6.39009109 -5.6828589 5.4216319 -9 4 C-9 3.67 -9 3.34 -9 3 C-4.545 2.505 -4.545 2.505 0 2 C0 1.34 0 0.68 0 0 Z " fill="#7D84DF" transform="translate(143,68)"/>
<path d="M0 0 C2 1.375 2 1.375 4 3 C4 3.66 4 4.32 4 5 C4.66 5 5.32 5 6 5 C6.33 6.98 6.66 8.96 7 11 C5.68 11 4.36 11 3 11 C2.814375 10.1028125 2.814375 10.1028125 2.625 9.1875 C2.04524015 6.73768652 2.04524015 6.73768652 0 4 C0 2.68 0 1.36 0 0 Z " fill="#AAC4F4" transform="translate(153,37)"/>
<path d="M0 0 C0.33 0.99 0.66 1.98 1 3 C0.01 4.485 0.01 4.485 -1 6 C-0.01 6.33 0.98 6.66 2 7 C3.1875 9.0625 3.1875 9.0625 4 11 C1.125 10.375 1.125 10.375 -2 9 C-3.375 5.875 -3.375 5.875 -4 3 C-4.66 3 -5.32 3 -6 3 C-5.67 2.34 -5.34 1.68 -5 1 C-3.35 1.33 -1.7 1.66 0 2 C0 1.34 0 0.68 0 0 Z " fill="#4B53DA" transform="translate(51,129)"/>
<path d="M0 0 C1.35843713 3.69216246 0.62041477 5.88528278 -0.75 9.5 C-1.09546875 10.4384375 -1.4409375 11.376875 -1.796875 12.34375 C-2.94798722 14.88516659 -4.2361078 16.85088996 -6 19 C-5 14 -4 9 -3 4 C-2.01 3.67 -1.02 3.34 0 3 C0 2.01 0 1.02 0 0 Z " fill="#A2B4DD" transform="translate(156,109)"/>
<path d="M0 0 C4 0 4 0 5.8125 1.25 C7 3 7 3 6.6875 5.1875 C6.460625 5.785625 6.23375 6.38375 6 7 C3.69 6.34 1.38 5.68 -1 5 C-1 2 -1 2 0 0 Z " fill="#5964FC" transform="translate(64,137)"/>
<path d="M0 0 C2.8125 0.1875 2.8125 0.1875 6 1 C7.875 3.5625 7.875 3.5625 9 6 C8 7 8 7 5.93359375 7.09765625 C5.10988281 7.08605469 4.28617187 7.07445313 3.4375 7.0625 C2.61121094 7.05347656 1.78492187 7.04445313 0.93359375 7.03515625 C0.29550781 7.02355469 -0.34257813 7.01195313 -1 7 C0.32 6.67 1.64 6.34 3 6 C3 4.68 3 3.36 3 2 C2.01 1.67 1.02 1.34 0 1 C0 0.67 0 0.34 0 0 Z " fill="#6882FD" transform="translate(91,101)"/>
<path d="M0 0 C1.65 0 3.3 0 5 0 C4.67 0.66 4.34 1.32 4 2 C3.01 2 2.02 2 1 2 C0.896875 3.258125 0.79375 4.51625 0.6875 5.8125 C0.36859319 9.70316313 0.03300139 9.96699861 -3 13 C-2.67 9.37 -2.34 5.74 -2 2 C-1.34 2 -0.68 2 0 2 C0 1.34 0 0.68 0 0 Z " fill="#3F59FA" transform="translate(67,78)"/>
<path d="M0 0 C0.33 0 0.66 0 1 0 C0.67 5.61 0.34 11.22 0 17 C-0.66 17 -1.32 17 -2 17 C-2 12.71 -2 8.42 -2 4 C-1.34 4 -0.68 4 0 4 C0 2.68 0 1.36 0 0 Z " fill="#7377C7" transform="translate(26,68)"/>
<path d="M0 0 C2.64 0 5.28 0 8 0 C7.04882866 1.1725131 6.08882991 2.33787015 5.125 3.5 C4.59132812 4.1496875 4.05765625 4.799375 3.5078125 5.46875 C3.01023438 5.9740625 2.51265625 6.479375 2 7 C1.34 7 0.68 7 0 7 C0 4.69 0 2.38 0 0 Z " fill="#A6BCED" transform="translate(136,136)"/>
<path d="M0 0 C0.33 0 0.66 0 1 0 C1.66 0 2.32 0 3 0 C2.67 1.65 2.34 3.3 2 5 C1.67 4.34 1.34 3.68 1 3 C0.06027344 3.03480469 0.06027344 3.03480469 -0.8984375 3.0703125 C-2.12433594 3.09738281 -2.12433594 3.09738281 -3.375 3.125 C-4.18710938 3.14820312 -4.99921875 3.17140625 -5.8359375 3.1953125 C-8 3 -8 3 -10 1 C-6.52072562 -0.15975813 -3.64737873 -0.06754405 0 0 Z " fill="#B2D1F9" transform="translate(132,96)"/>
<path d="M0 0 C1.65 0 3.3 0 5 0 C6.28317892 3.84953676 6.06643637 6.94738135 6 11 C5.01 11 4.02 11 3 11 C3 7.7 3 4.4 3 1 C2.01 0.67 1.02 0.34 0 0 Z " fill="#1C2489" transform="translate(24,85)"/>
<path d="M0 0 C2.475 0.495 2.475 0.495 5 1 C5 1.66 5 2.32 5 3 C6.32 3.33 7.64 3.66 9 4 C9.33 5.32 9.66 6.64 10 8 C6.17902761 7.46930939 3.93828597 6.50298434 1 4 C1.33 3.34 1.66 2.68 2 2 C1.34 1.34 0.68 0.68 0 0 Z " fill="#BCD9F5" transform="translate(135,24)"/>
<path d="M0 0 C0 1.32 0 2.64 0 4 C-2.70879335 5.35439668 -5.00933268 5.06501451 -8 5 C-7.6875 3.0625 -7.6875 3.0625 -7 1 C-4 0 -4 0 0 0 Z " fill="#0E1DF6" transform="translate(118,112)"/>
<path d="M0 0 C2.125 0.375 2.125 0.375 4 1 C2.52307692 5.67692308 2.52307692 5.67692308 -0.125 7.3125 C-1.053125 7.6528125 -1.053125 7.6528125 -2 8 C-2.125 5.125 -2.125 5.125 -2 2 C-1.34 1.34 -0.68 0.68 0 0 Z " fill="#0514FA" transform="translate(44,48)"/>
<path d="M0 0 C3.96 0 7.92 0 12 0 C9.25906335 1.8272911 6.86174676 2.93698178 3.8125 4.125 C2.91144531 4.47820313 2.01039062 4.83140625 1.08203125 5.1953125 C0.05142578 5.59363281 0.05142578 5.59363281 -1 6 C-0.67 4.02 -0.34 2.04 0 0 Z " fill="#F0F1F4" transform="translate(52,24)"/>
<path d="M0 0 C2.31 0.66 4.62 1.32 7 2 C7.33 1.34 7.66 0.68 8 0 C8.33 1.32 8.66 2.64 9 4 C7.35 3.67 5.7 3.34 4 3 C3.67 3.99 3.34 4.98 3 6 C0.9375 6.6875 0.9375 6.6875 -1 7 C-0.34 5.68 0.32 4.36 1 3 C0.34 3 -0.32 3 -1 3 C-0.67 2.01 -0.34 1.02 0 0 Z " fill="#B4CFF2" transform="translate(137,73)"/>
<path d="M0 0 C0.33 0 0.66 0 1 0 C1.22197585 2.10277123 1.42713637 4.20732302 1.625 6.3125 C1.74101563 7.48425781 1.85703125 8.65601562 1.9765625 9.86328125 C2 13 2 13 0 16 C-2.475 15.01 -2.475 15.01 -5 14 C-2 12 -2 12 0 12 C0 8.04 0 4.08 0 0 Z " fill="#4759FD" transform="translate(62,116)"/>
<path d="M0 0 C1.32 0.33 2.64 0.66 4 1 C2.6875 4.4375 2.6875 4.4375 1 8 C0.01 8.33 -0.98 8.66 -2 9 C-2.6875 7.3125 -2.6875 7.3125 -3 5 C-1.5625 2.25 -1.5625 2.25 0 0 Z " fill="#96AEFA" transform="translate(149,120)"/>
<path d="M0 0 C1.32 0 2.64 0 4 0 C4 0.66 4 1.32 4 2 C5.32 2.66 6.64 3.32 8 4 C7.67 4.66 7.34 5.32 7 6 C4.625 6.1875 4.625 6.1875 2 6 C0 3 0 3 0 0 Z " fill="#6580F8" transform="translate(110,117)"/>
<path d="M0 0 C0.598125 0.20625 1.19625 0.4125 1.8125 0.625 C1.8125 2.275 1.8125 3.925 1.8125 5.625 C-2.9375 4.75 -2.9375 4.75 -5.1875 3.625 C-5.1875 2.965 -5.1875 2.305 -5.1875 1.625 C-2.1875 -0.375 -2.1875 -0.375 0 0 Z " fill="#2230DB" transform="translate(134.1875,65.375)"/>
<path d="M0 0 C0.33 0 0.66 0 1 0 C1 1.65 1 3.3 1 5 C-2.96 5 -6.92 5 -11 5 C-10.67 4.34 -10.34 3.68 -10 3 C-7.67711188 2.60689586 -5.38154824 2.49250305 -3.03125 2.34375 C-2.02578125 2.17359375 -2.02578125 2.17359375 -1 2 C-0.67 1.34 -0.34 0.68 0 0 Z " fill="#3950FC" transform="translate(73,56)"/>
<path d="M0 0 C1.67542976 0.28604898 3.34385343 0.61781233 5 1 C5 1.99 5 2.98 5 4 C2.35261084 5.4606285 1.10551666 6 -2 6 C-1.125 1.125 -1.125 1.125 0 0 Z " fill="#334CF5" transform="translate(123,50)"/>
<path d="M0 0 C0.66 0.33 1.32 0.66 2 1 C1.34 2.32 0.68 3.64 0 5 C0.66 5.33 1.32 5.66 2 6 C2.33 4.68 2.66 3.36 3 2 C3.66 2.33 4.32 2.66 5 3 C5 3.66 5 4.32 5 5 C4.34 5 3.68 5 3 5 C3 5.66 3 6.32 3 7 C1.02 7 -0.96 7 -3 7 C-3.33 6.01 -3.66 5.02 -4 4 C-2.68 2.68 -1.36 1.36 0 0 Z " fill="#EEF5FD" transform="translate(125,118)"/>
<path d="M0 0 C5.75 1.875 5.75 1.875 8 3 C7.67 3.99 7.34 4.98 7 6 C4.69 5.67 2.38 5.34 0 5 C0 3.35 0 1.7 0 0 Z " fill="#2A3DF5" transform="translate(123,98)"/>
<path d="M0 0 C1.32 0 2.64 0 4 0 C4.625 2.3125 4.625 2.3125 5 5 C4.01 6.485 4.01 6.485 3 8 C2.34 8 1.68 8 1 8 C0.67 5.36 0.34 2.72 0 0 Z " fill="#121AF6" transform="translate(75,88)"/>
<path d="M0 0 C2.62386487 3.06117568 3 3.73173127 3 8 C3.66 8.33 4.32 8.66 5 9 C2.69 9.33 0.38 9.66 -2 10 C-2.33 9.34 -2.66 8.68 -3 8 C-2.34 7.67 -1.68 7.34 -1 7 C-0.59270772 4.67843403 -0.25561323 2.3431213 0 0 Z " fill="#7085F4" transform="translate(133,56)"/>
<path d="M0 0 C2 3.75 2 3.75 2 6 C-5.625 5.125 -5.625 5.125 -9 4 C-9 3.34 -9 2.68 -9 2 C-5.95613276 1.91773332 -3.92824652 2.02391783 -1 3 C-0.67 2.01 -0.34 1.02 0 0 Z " fill="#5059E7" transform="translate(71,140)"/>
<path d="M0 0 C2.475 0.495 2.475 0.495 5 1 C5.33 2.65 5.66 4.3 6 6 C4.35 5.67 2.7 5.34 1 5 C0.67 3.35 0.34 1.7 0 0 Z " fill="#0715E6" transform="translate(78,96)"/>
<path d="M0 0 C1.2065625 0.0309375 1.2065625 0.0309375 2.4375 0.0625 C1.4375 2.0625 1.4375 2.0625 -0.875 3.375 C-3.84149385 5.23768219 -5.51094894 7.25111522 -7.5625 10.0625 C-7.5625 8.4125 -7.5625 6.7625 -7.5625 5.0625 C-6.9025 5.0625 -6.2425 5.0625 -5.5625 5.0625 C-5.0984375 4.1034375 -5.0984375 4.1034375 -4.625 3.125 C-3.05351796 0.07447605 -3.05351796 0.07447605 0 0 Z " fill="#243CFD" transform="translate(63.5625,55.9375)"/>
<path d="M0 0 C0 0.99 0 1.98 0 3 C-3.33333333 6 -3.33333333 6 -6 6 C-6.66 7.65 -7.32 9.3 -8 11 C-9.32 10.67 -10.64 10.34 -12 10 C-10.37744772 8.51814875 -8.75188112 7.03959744 -7.125 5.5625 C-6.22007813 4.73878906 -5.31515625 3.91507813 -4.3828125 3.06640625 C-2 1 -2 1 0 0 Z " fill="#7173B5" transform="translate(47,32)"/>
<path d="M0 0 C1.9451 2.91765 2.45276317 4.62537285 3 8 C1.35 8 -0.3 8 -2 8 C-2 6.02 -2 4.04 -2 2 C-1.34 2 -0.68 2 0 2 C0 1.34 0 0.68 0 0 Z " fill="#1E29FA" transform="translate(79,72)"/>
<path d="M0 0 C1.2380014 3.57644848 0.74926071 6.33694766 0 10 C-0.66 10 -1.32 10 -2 10 C-2.66 10.99 -3.32 11.98 -4 13 C-4.37068304 6.45126631 -4.37068304 6.45126631 -2.5625 4.25 C-2.046875 3.8375 -1.53125 3.425 -1 3 C-0.67 2.01 -0.34 1.02 0 0 Z " fill="#B6D7FB" transform="translate(85,56)"/>
<path d="M0 0 C3.3 0 6.6 0 10 0 C9.01 1.485 9.01 1.485 8 3 C6.0546875 3.29296875 6.0546875 3.29296875 3.875 3.1875 C2.59625 3.125625 1.3175 3.06375 0 3 C0 2.01 0 1.02 0 0 Z " fill="#6B7AFA" transform="translate(82,34)"/>
<path d="M0 0 C1.32 0.33 2.64 0.66 4 1 C3.34 1 2.68 1 2 1 C2 4.96 2 8.92 2 13 C1.67 13 1.34 13 1 13 C1 10.36 1 7.72 1 5 C0.01 5 -0.98 5 -2 5 C-1.34 3.35 -0.68 1.7 0 0 Z " fill="#283EF7" transform="translate(108,103)"/>
<path d="M0 0 C0.33 0.66 0.66 1.32 1 2 C3.31 2 5.62 2 8 2 C7.34 3.32 6.68 4.64 6 6 C4.35 6 2.7 6 1 6 C0.67 4.02 0.34 2.04 0 0 Z " fill="#4F56FD" transform="translate(50,98)"/>
<path d="M0 0 C0.33 0.66 0.66 1.32 1 2 C1.66 2 2.32 2 3 2 C3 2.66 3 3.32 3 4 C4.65 3.34 6.3 2.68 8 2 C8.33 2.99 8.66 3.98 9 5 C8 6 8 6 4.4375 6.0625 C3.303125 6.041875 2.16875 6.02125 1 6 C0.67 4.02 0.34 2.04 0 0 Z " fill="#5F68FC" transform="translate(50,94)"/>
<path d="M0 0 C1.2065625 0.0309375 1.2065625 0.0309375 2.4375 0.0625 C2.7675 1.3825 3.0975 2.7025 3.4375 4.0625 C1.4575 4.7225 -0.5225 5.3825 -2.5625 6.0625 C-2.94468767 4.40635343 -3.27645102 2.73792976 -3.5625 1.0625 C-2.5625 0.0625 -2.5625 0.0625 0 0 Z " fill="#141D7C" transform="translate(138.5625,64.9375)"/>
<path d="M0 0 C1.125 1.5625 1.125 1.5625 2 4 C1.25 7.6875 1.25 7.6875 0 11 C-0.99 11.495 -0.99 11.495 -2 12 C-1.814375 11.443125 -1.62875 10.88625 -1.4375 10.3125 C-0.92448835 7.600867 -1.3359276 5.65628961 -2 3 C-1.34 3 -0.68 3 0 3 C0 2.01 0 1.02 0 0 Z " fill="#C0E1F7" transform="translate(106,110)"/>
<path d="M0 0 C2.12046792 3.53411321 2.53199289 6.94393835 3 11 C3.66 11 4.32 11 5 11 C5 11.66 5 12.32 5 13 C5.66 13.33 6.32 13.66 7 14 C5.68 14 4.36 14 3 14 C-0.44419134 4.58997722 -0.44419134 4.58997722 0 0 Z " fill="#3A42C6" transform="translate(34,109)"/>
<path d="M0 0 C1 3 1 3 0 6 C0.66 6 1.32 6 2 6 C2 6.66 2 7.32 2 8 C0.68 8 -0.64 8 -2 8 C-2 8.66 -2 9.32 -2 10 C-2.66 10 -3.32 10 -4 10 C-4 8.35 -4 6.7 -4 5 C-3.01 5 -2.02 5 -1 5 C-0.67 3.35 -0.34 1.7 0 0 Z " fill="#2C34FB" transform="translate(90,91)"/>
<path d="M0 0 C0.33 0 0.66 0 1 0 C1.33 3.96 1.66 7.92 2 12 C0.68 11.67 -0.64 11.34 -2 11 C-1.85892253 9.54119891 -1.71197585 8.08296449 -1.5625 6.625 C-1.48128906 5.81289062 -1.40007812 5.00078125 -1.31640625 4.1640625 C-1 2 -1 2 0 0 Z " fill="#151DF3" transform="translate(77,60)"/>
<path d="M0 0 C-0.99730136 2.4932534 -1.65074531 3.77467439 -3.9375 5.25 C-6 6 -6 6 -9 6 C-9 5.34 -9 4.68 -9 4 C-7.35 3.67 -5.7 3.34 -4 3 C-4 2.34 -4 1.68 -4 1 C-2 0 -2 0 0 0 Z " fill="#B0CAF8" transform="translate(132,122)"/>
<path d="M0 0 C0.99 0.33 1.98 0.66 3 1 C2.34 3.64 1.68 6.28 1 9 C1.66 9 2.32 9 3 9 C2.34 10.32 1.68 11.64 1 13 C0.67 13 0.34 13 0 13 C0 8.71 0 4.42 0 0 Z " fill="#5D65FB" transform="translate(46,79)"/>
<path d="M0 0 C0 1.32 0 2.64 0 4 C0.66 4.33 1.32 4.66 2 5 C1.67 5.99 1.34 6.98 1 8 C0.01 7.67 -0.98 7.34 -2 7 C-3.1875 3.9375 -3.1875 3.9375 -4 1 C-2 0 -2 0 0 0 Z " fill="#5871F5" transform="translate(84,73)"/>
<path d="M0 0 C2.33294775 -0.04241723 4.66702567 -0.04092937 7 0 C8 1 8 1 8.0625 3.5625 C8.041875 4.366875 8.02125 5.17125 8 6 C7.01 6 6.02 6 5 6 C5 4.68 5 3.36 5 2 C3.35 1.67 1.7 1.34 0 1 C0 0.67 0 0.34 0 0 Z " fill="#F0FBFE" transform="translate(78,113)"/>
<path d="M0 0 C1.65 0 3.3 0 5 0 C6.4606285 2.64738916 7 3.89448334 7 7 C6.01 7.33 5.02 7.66 4 8 C4 6.02 4 4.04 4 2 C2.68 2 1.36 2 0 2 C0 1.34 0 0.68 0 0 Z " fill="#ADCBFA" transform="translate(133,104)"/>
<path d="M0 0 C1.32 0 2.64 0 4 0 C4 2.31 4 4.62 4 7 C3.34 6.34 2.68 5.68 2 5 C1.34 5.66 0.68 6.32 0 7 C0 4.69 0 2.38 0 0 Z " fill="#121116" transform="translate(20,86)"/>
<path d="M0 0 C0.33 0 0.66 0 1 0 C1.66 2.31 2.32 4.62 3 7 C4.65 7.33 6.3 7.66 8 8 C8 8.33 8 8.66 8 9 C5.03 9 2.06 9 -1 9 C-0.67 6.03 -0.34 3.06 0 0 Z " fill="#829AFC" transform="translate(63,67)"/>
<path d="M0 0 C2.97 0 5.94 0 9 0 C7.02 0.99 7.02 0.99 5 2 C4.34 2.66 3.68 3.32 3 4 C0.375 3.625 0.375 3.625 -2 3 C-1.34 2.67 -0.68 2.34 0 2 C0 1.34 0 0.68 0 0 Z " fill="#9BB3F0" transform="translate(126,47)"/>
<path d="M0 0 C0.66 0 1.32 0 2 0 C3.125 4.75 3.125 4.75 2 7 C1.01 7 0.02 7 -1 7 C-1.33 7.99 -1.66 8.98 -2 10 C-1.33333333 6.66666667 -0.66666667 3.33333333 0 0 Z " fill="#565BD1" transform="translate(35,43)"/>
<path d="M0 0 C-1 2 -1 2 -3.8125 3.1875 C-6.85961076 3.96421451 -8.13749363 4.10096399 -11 3 C-10.67 2.34 -10.34 1.68 -10 1 C-6.6322481 0.06451336 -3.4815554 -0.09947301 0 0 Z " fill="#B5C6E5" transform="translate(120,152)"/>
<path d="M0 0 C0.33 1.32 0.66 2.64 1 4 C1.66 4 2.32 4 3 4 C3.33 6.64 3.66 9.28 4 12 C1.95780294 10.30820672 1.08206694 9.36272334 0.48828125 6.73828125 C0.43027344 5.93777344 0.37226563 5.13726562 0.3125 4.3125 C0.24675781 3.50425781 0.18101563 2.69601563 0.11328125 1.86328125 C0.07589844 1.24839844 0.03851562 0.63351563 0 0 Z " fill="#2B33AD" transform="translate(30,100)"/>
<path d="M0 0 C0.66 0 1.32 0 2 0 C2 2.64 2 5.28 2 8 C1.01 8 0.02 8 -1 8 C-1.125 2.25 -1.125 2.25 0 0 Z " fill="#2234F9" transform="translate(97,94)"/>
<path d="M0 0 C1.98 0.66 3.96 1.32 6 2 C3.94766315 4.2477975 2.99332739 5.0022242 0 6 C-0.38218767 4.34385343 -0.71395102 2.67542976 -1 1 C-0.67 0.67 -0.34 0.34 0 0 Z " fill="#878FFB" transform="translate(100,90)"/>
<path d="M0 0 C2.31 0.33 4.62 0.66 7 1 C7 2.98 7 4.96 7 7 C6.67 6.01 6.34 5.02 6 4 C4.35 4 2.7 4 1 4 C0.67 2.68 0.34 1.36 0 0 Z " fill="#5A68FA" transform="translate(93,89)"/>
<path d="M0 0 C2.5 2.3125 2.5 2.3125 5 5 C5 5.99 5 6.98 5 8 C4.01 8 3.02 8 2 8 C2 7.34 2 6.68 2 6 C1.34 5.67 0.68 5.34 0 5 C0 3.35 0 1.7 0 0 Z " fill="#2F37FA" transform="translate(85,83)"/>
<path d="M0 0 C3.55780196 0.60990891 6.6828589 1.5783681 10 3 C10 3.66 10 4.32 10 5 C6.05140217 4.4359146 3.29120954 3.2568294 0 1 C0 0.67 0 0.34 0 0 Z " fill="#4D518E" transform="translate(48,138)"/>
<path d="M0 0 C0.66 0.33 1.32 0.66 2 1 C2 2.32 2 3.64 2 5 C-0.97 4.505 -0.97 4.505 -4 4 C-3.67 3.01 -3.34 2.02 -3 1 C-2.01 0.67 -1.02 0.34 0 0 Z " fill="#B7D7F9" transform="translate(120,121)"/>
<path d="M0 0 C3.14958831 3.42346555 3.56179109 6.44262737 4 11 C1.38726012 9.69363006 1.02763876 8.71590242 0 6 C-0.125 2.75 -0.125 2.75 0 0 Z " fill="#383E9C" transform="translate(32,110)"/>
<path d="M0 0 C0 0.66 0 1.32 0 2 C-2.64 2.66 -5.28 3.32 -8 4 C-8 3.01 -8 2.02 -8 1 C-5.29120665 -0.35439668 -2.99066732 -0.06501451 0 0 Z " fill="#DBF6FB" transform="translate(104,109)"/>
<path d="M0 0 C0.33 0.66 0.66 1.32 1 2 C1.66 2 2.32 2 3 2 C3 3.98 3 5.96 3 8 C2.01 8 1.02 8 0 8 C-1.09658936 4.71023192 -0.79953138 3.28696233 0 0 Z " fill="#2B2F6A" transform="translate(29,107)"/>
<path d="M0 0 C0.66 0 1.32 0 2 0 C1.67 2.64 1.34 5.28 1 8 C0.01 8 -0.98 8 -2 8 C-1.125 2.25 -1.125 2.25 0 0 Z " fill="#1F35F9" transform="translate(68,88)"/>
<path d="M0 0 C1 3 1 3 0.3125 5.625 C-1 8 -1 8 -3.125 8.8125 C-3.74375 8.874375 -4.3625 8.93625 -5 9 C-3.7508258 5.54074837 -2.32472205 2.85306797 0 0 Z " fill="#3953FB" transform="translate(59,64)"/>
<path d="M0 0 C0 0.99 0 1.98 0 3 C-0.99 3 -1.98 3 -3 3 C-3.12375 4.134375 -3.2475 5.26875 -3.375 6.4375 C-3.58125 7.613125 -3.7875 8.78875 -4 10 C-4.99 10.495 -4.99 10.495 -6 11 C-5.71890887 9.35232753 -5.42481474 7.70686855 -5.125 6.0625 C-4.96257813 5.14597656 -4.80015625 4.22945313 -4.6328125 3.28515625 C-4.42398438 2.53105469 -4.21515625 1.77695312 -4 1 C-2 0 -2 0 0 0 Z " fill="#455DFB" transform="translate(64,61)"/>
<path d="M0 0 C0.33 0 0.66 0 1 0 C1.33 4.29 1.66 8.58 2 13 C1.34 13 0.68 13 0 13 C-0.33 13.99 -0.66 14.98 -1 16 C-0.67 10.72 -0.34 5.44 0 0 Z " fill="#A9BBF1" transform="translate(156,96)"/>
<path d="M0 0 C1.65 0 3.3 0 5 0 C3.68 0.33 2.36 0.66 1 1 C1 1.66 1 2.32 1 3 C3.97 3.495 3.97 3.495 7 4 C6.01 4.495 6.01 4.495 5 5 C5 5.66 5 6.32 5 7 C4.34 7 3.68 7 3 7 C3 6.01 3 5.02 3 4 C2.01 4 1.02 4 0 4 C0 2.68 0 1.36 0 0 Z " fill="#3F4AF7" transform="translate(107,94)"/>
<path d="M0 0 C0.66 1.32 1.32 2.64 2 4 C1 5 1 5 -2.5625 5.0625 C-3.696875 5.041875 -4.83125 5.02125 -6 5 C-5.67 4.34 -5.34 3.68 -5 3 C-4.34 3.33 -3.68 3.66 -3 4 C-3 3.34 -3 2.68 -3 2 C-2.01 2 -1.02 2 0 2 C0 1.34 0 0.68 0 0 Z " fill="#565FFB" transform="translate(106,95)"/>
<path d="M0 0 C2.31 0 4.62 0 7 0 C7 1.32 7 2.64 7 4 C4.08482708 2.92598892 2.22189824 2.22189824 0 0 Z " fill="#686CEF" transform="translate(94,24)"/>
<path d="M0 0 C1.66611905 -0.042721 3.33382885 -0.04063832 5 0 C6 1 6 1 6.0625 4.5625 C6.041875 5.696875 6.02125 6.83125 6 8 C5.67 8 5.34 8 5 8 C5 6.35 5 4.7 5 3 C4.01 3 3.02 3 2 3 C2 2.34 2 1.68 2 1 C1.34 0.67 0.68 0.34 0 0 Z " fill="#7A94FA" transform="translate(67,100)"/>
<path d="M0 0 C2.64 0 5.28 0 8 0 C6.515 1.98 6.515 1.98 5 4 C3.35 3.67 1.7 3.34 0 3 C0 2.01 0 1.02 0 0 Z " fill="#A8AEFC" transform="translate(51,90)"/>
<path d="M0 0 C1.9375 0.75 1.9375 0.75 4 2 C4.75 4.125 4.75 4.125 5 6 C3.68 5.67 2.36 5.34 1 5 C0.67 3.35 0.34 1.7 0 0 Z " fill="#F3F7F6" transform="translate(90,78)"/>
<path d="M0 0 C0.66 0 1.32 0 2 0 C2.33 2.64 2.66 5.28 3 8 C2.34 8 1.68 8 1 8 C-0.35439668 5.29120665 -0.06501451 2.99066732 0 0 Z " fill="#91AFFE" transform="translate(83,48)"/>
<path d="M0 0 C0.66 0.33 1.32 0.66 2 1 C1.1875 2.9375 1.1875 2.9375 0 5 C-0.99 5.33 -1.98 5.66 -3 6 C-3.66 5.01 -4.32 4.02 -5 3 C-2.625 1.4375 -2.625 1.4375 0 0 Z " fill="#F4F8F7" transform="translate(135,144)"/>
<path d="M0 0 C1.32 0 2.64 0 4 0 C4 0.66 4 1.32 4 2 C4.99 2.33 5.98 2.66 7 3 C3.37673261 4.2077558 2.35853631 3.54311128 -1 2 C-0.67 1.34 -0.34 0.68 0 0 Z " fill="#6062B5" transform="translate(58,142)"/>
<path d="M0 0 C2.97 0.99 5.94 1.98 9 3 C9 3.33 9 3.66 9 4 C6.03 4 3.06 4 0 4 C0 2.68 0 1.36 0 0 Z " fill="#B6D8F8" transform="translate(111,124)"/>
<path d="M0 0 C0.99 0.99 1.98 1.98 3 3 C2.34 4.32 1.68 5.64 1 7 C1 6.34 1 5.68 1 5 C0.34 5 -0.32 5 -1 5 C-0.67 3.35 -0.34 1.7 0 0 Z " fill="#5E74F8" transform="translate(66,119)"/>
<path d="M0 0 C0.33 0 0.66 0 1 0 C1.36923077 4.55384615 1.36923077 4.55384615 -0.5 6.8125 C-0.995 7.204375 -1.49 7.59625 -2 8 C-2.33 5.69 -2.66 3.38 -3 1 C-2.01 1.33 -1.02 1.66 0 2 C0 1.34 0 0.68 0 0 Z " fill="#5062E8" transform="translate(71,114)"/>
<path d="M0 0 C0.33 0 0.66 0 1 0 C1 2.64 1 5.28 1 8 C-0.5625 6.75 -0.5625 6.75 -2 5 C-1.74853421 2.86254078 -1.54074221 1.54074221 0 0 Z " fill="#403F45" transform="translate(25,105)"/>
</svg>
