<?xml version="1.0" encoding="UTF-8"?>
<svg version="1.1" xmlns="http://www.w3.org/2000/svg" width="231" height="218">
<path d="M0 0 C76.23 0 152.46 0 231 0 C231 71.94 231 143.88 231 218 C154.77 218 78.54 218 0 218 C0 146.06 0 74.12 0 0 Z " fill="#25166B" transform="translate(0,0)"/>
<path d="M0 0 C76.23 0 152.46 0 231 0 C231 71.94 231 143.88 231 218 C154.77 218 78.54 218 0 218 C0 146.06 0 74.12 0 0 Z M56 38 C55.33871094 38.49886719 54.67742188 38.99773438 53.99609375 39.51171875 C38.11263233 51.78362746 27.54418524 74.35978434 24.390625 93.74609375 C21.22662852 122.69456155 27.25942198 149.53860805 45.1875 172.6875 C59.81727965 189.72217494 81.58443005 203.05636425 104.19238281 205.31958008 C107.48895755 205.47240308 110.76247169 205.51911259 114.0625 205.5 C115.23917236 205.49355469 116.41584473 205.48710937 117.62817383 205.48046875 C141.24933046 204.99114462 163.48252595 195.06094971 180.484375 178.59375 C190.92730856 167.56704997 198.28439338 155.42677492 203 141 C203.21027832 140.37351562 203.42055664 139.74703125 203.63720703 139.1015625 C211.10618544 115.91993514 208.53335907 88.86881066 198.07275391 67.07714844 C187.25096653 46.12317324 170.44349617 31.3879421 149 22 C148.06671875 21.59007812 147.1334375 21.18015625 146.171875 20.7578125 C115.25590487 8.37334493 80.63199366 17.25540849 56 38 Z " fill="#FDFDFD" transform="translate(0,0)"/>
<path d="M0 0 C0 2.64 0 5.28 0 8 C-3.96 8 -7.92 8 -12 8 C-12.26554687 9.08539063 -12.53109375 10.17078125 -12.8046875 11.2890625 C-13.16133082 12.73440647 -13.5181088 14.17971722 -13.875 15.625 C-14.04902344 16.33785156 -14.22304687 17.05070312 -14.40234375 17.78515625 C-15.19914802 21.00188459 -16.03961936 24.11445594 -17.125 27.25 C-17.94525607 29.82794764 -18.21736324 31.69646604 -18.125 34.375 C-18.08375 35.57125 -18.0425 36.7675 -18 38 C-14.66857722 38.50125283 -14.66857722 38.50125283 -11 38 C-8.64677204 35.09587454 -8.64677204 35.09587454 -7 32 C-6.34 32 -5.68 32 -5 32 C-5.2995917 37.99183393 -7.98704183 41.77109789 -12 46 C-15.19257521 48.56265005 -18.14568312 49.88499581 -22.25 50.4375 C-25.40375691 49.93576595 -26.10077643 49.49033638 -28 47 C-30.56072966 33.7580286 -23.05415784 18.50289989 -17 7 C-20.63 7 -24.26 7 -28 7 C-28.33 8.65 -28.66 10.3 -29 12 C-29.73681641 13.921875 -29.73681641 13.921875 -30.6015625 15.75 C-30.92334473 16.43465332 -31.24512695 17.11930664 -31.57666016 17.82470703 C-31.9226123 18.54255371 -32.26856445 19.26040039 -32.625 20 C-32.98255371 20.74749512 -33.34010742 21.49499023 -33.70849609 22.26513672 C-45.51964706 46.75982353 -45.51964706 46.75982353 -52 50 C-53.99960012 50.039992 -56.00047242 50.04346799 -58 50 C-58.75 47.875 -58.75 47.875 -59 45 C-56.99705417 40.99410834 -54.79226262 38.79396357 -51.27734375 36.08203125 C-45.95422953 31.48421785 -43.15360358 25.75576577 -40 19.5625 C-39.41605469 18.44939453 -38.83210938 17.33628906 -38.23046875 16.18945312 C-36.8050384 13.46711484 -35.3955486 10.73774175 -34 8 C-38.64883559 7.77460191 -41.58843772 7.79890366 -45.4375 10.5 C-46.11683594 10.9640625 -46.79617187 11.428125 -47.49609375 11.90625 C-47.99238281 12.2671875 -48.48867187 12.628125 -49 13 C-46.38956526 7.37385754 -41.9431081 3.64229018 -37 0 C-26.18221463 -3.60592846 -11.28464657 -0.73141228 0 0 Z " fill="#DAE4F1" transform="translate(150,46)"/>
<path d="M0 0 C4.875 0.875 4.875 0.875 6 2 C6.04080783 3.99958364 6.04254356 6.00045254 6 8 C7.98 8 9.96 8 12 8 C12.66 6.02 13.32 4.04 14 2 C15.65 3.32 17.3 4.64 19 6 C19.33 4.68 19.66 3.36 20 2 C20.99 2.33 21.98 2.66 23 3 C23.6875 5.0625 23.6875 5.0625 24 7 C22.989375 7.33 21.97875 7.66 20.9375 8 C14.20269497 10.90387342 9.79225015 17.34030226 6.77734375 23.8359375 C5.35864728 27.78547442 4.64429394 31.86295467 4 36 C2.515 36.495 2.515 36.495 1 37 C1.33 37.66 1.66 38.32 2 39 C2.99 39.33 3.98 39.66 5 40 C4.67 41.32 4.34 42.64 4 44 C2.0625 43.3125 2.0625 43.3125 0 42 C-0.86029934 39.20402714 -1 36.92828926 -1 34 C-1.886875 34.66 -2.77375 35.32 -3.6875 36 C-6.9738333 37.98420124 -8.28613312 38.53055241 -12 38 C-14.25306732 35.74693268 -13.31039581 31.10800719 -13.31689453 28.07202148 C-13.13498803 18.56010823 -9.82519966 9.80699913 -3 3 C-2.01 2.67 -1.02 2.34 0 2 C0 1.34 0 0.68 0 0 Z " fill="#241665" transform="translate(71,100)"/>
<path d="M0 0 C3.96 0 7.92 0 12 0 C12 2.64 12 5.28 12 8 C8.04 8 4.08 8 0 8 C-0.26554688 9.08539063 -0.53109375 10.17078125 -0.8046875 11.2890625 C-1.16133082 12.73440647 -1.5181088 14.17971722 -1.875 15.625 C-2.04902344 16.33785156 -2.22304687 17.05070312 -2.40234375 17.78515625 C-3.19914802 21.00188459 -4.03961936 24.11445594 -5.125 27.25 C-5.94525607 29.82794764 -6.21736324 31.69646604 -6.125 34.375 C-6.063125 36.169375 -6.063125 36.169375 -6 38 C-2.66857722 38.50125283 -2.66857722 38.50125283 1 38 C3.35322796 35.09587454 3.35322796 35.09587454 5 32 C5.66 32 6.32 32 7 32 C6.7004083 37.99183393 4.01295817 41.77109789 0 46 C-3.19257521 48.56265005 -6.14568312 49.88499581 -10.25 50.4375 C-13.40375691 49.93576595 -14.10077643 49.49033638 -16 47 C-18.56072966 33.7580286 -11.05415784 18.50289989 -5 7 C-5.66 7 -6.32 7 -7 7 C-6.67 5.35 -6.34 3.7 -6 2 C-4.02 2 -2.04 2 0 2 C0 1.34 0 0.68 0 0 Z " fill="#CCD9E4" transform="translate(138,46)"/>
<path d="M0 0 C1.6875 0.875 1.6875 0.875 2.6875 2.875 C3.0175 2.215 3.3475 1.555 3.6875 0.875 C5.3375 0.875 6.9875 0.875 8.6875 0.875 C7.33583121 6.34570158 5.29238159 10.89774852 2.5625 15.8125 C2.18996094 16.49634766 1.81742188 17.18019531 1.43359375 17.88476562 C0.52442643 19.55157239 -0.39316355 21.21378042 -1.3125 22.875 C-0.9825 23.205 -0.6525 23.535 -0.3125 23.875 C0.6775 23.215 1.6675 22.555 2.6875 21.875 C1.12431592 25.71190637 -1.1078315 28.26654889 -4.3125 30.875 C-7.0625 30.8125 -7.0625 30.8125 -9.3125 29.875 C-9.6425 29.215 -9.9725 28.555 -10.3125 27.875 C-11.3953125 28.6484375 -11.3953125 28.6484375 -12.5 29.4375 C-15.7320366 31.08942982 -16.92858307 30.93851675 -20.3125 29.875 C-20.95938897 22.75922131 -19.1908439 18.77682768 -15.3125 12.875 C-14.85875 12.17375 -14.405 11.4725 -13.9375 10.75 C-12.80177289 9.07345046 -11.56509381 7.46613268 -10.3125 5.875 C-9.6525 5.875 -8.9925 5.875 -8.3125 5.875 C-8.3125 5.215 -8.3125 4.555 -8.3125 3.875 C-3.22211678 -0.17416847 -3.22211678 -0.17416847 0 0 Z " fill="#D2DAEA" transform="translate(147.3125,107.125)"/>
<path d="M0 0 C0.66 0 1.32 0 2 0 C3.66666667 0 5.33333333 0 7 0 C5.30654699 5.51655146 2.92031933 10.53247303 0.390625 15.69726562 C-1.51229689 19.66589123 -1.51229689 19.66589123 -2 24 C-1.34 23.01 -0.68 22.02 0 21 C0.66 21 1.32 21 2 21 C0.4404735 24.82792868 -1.83631836 27.36359864 -5 30 C-8.06731977 29.91236229 -8.81352381 29.18647619 -11 27 C-12.98 27.99 -14.96 28.98 -17 30 C-20 28 -20 28 -20.50390625 26.00390625 C-20.72738985 16.69208965 -16.66438894 9.65986859 -10.5625 2.8125 C-7.16649793 -0.35710193 -4.64583291 -0.63766334 0 0 Z " fill="#D7DBED" transform="translate(96,108)"/>
<path d="M0 0 C0.99 0 1.98 0 3 0 C2.83808923 7.28598447 -0.96192493 12.14339227 -5 18 C-5.66 18.99 -6.32 19.98 -7 21 C-7.66 21 -8.32 21 -9 21 C-9 21.66 -9 22.32 -9 23 C-9.76183594 23.56203125 -10.52367187 24.1240625 -11.30859375 24.703125 C-19.43845353 31.64123465 -22.03619933 47.76513298 -24 58 C-24.13779095 60.80783412 -24.13779095 60.80783412 -24 63 C-22.17401832 63.7308266 -22.17401832 63.7308266 -20 64 C-14.93481445 61.23612021 -11.45097815 56.20499269 -8.26171875 51.5390625 C-7.84535156 51.03117187 -7.42898437 50.52328125 -7 50 C-6.34 50 -5.68 50 -5 50 C-6.28629527 54.71183028 -8.00898051 57.60637383 -11.3125 61.1875 C-12.07175781 62.02667969 -12.83101562 62.86585938 -13.61328125 63.73046875 C-15.97078913 65.97222338 -18.08851365 67.55843614 -21 69 C-24.1875 68.875 -24.1875 68.875 -27 68 C-29.55567012 64.16649481 -29.53096802 61.42703209 -29 57 C-25.02046261 38.14393694 -17.08104355 19.43530619 -9 2 C-8.01 2 -7.02 2 -6 2 C-6.52083333 3.92057292 -7.04166667 5.84114583 -7.5625 7.76171875 C-8.15986025 10.43775012 -8.15986025 10.43775012 -8 15 C-5.36 10.05 -2.72 5.1 0 0 Z " fill="#CFD5E8" transform="translate(172,105)"/>
<path d="M0 0 C0.556875 0.226875 1.11375 0.45375 1.6875 0.6875 C2.41371457 6.84015122 -0.13519697 11.22397385 -2.8125 16.5625 C-3.24175781 17.44164063 -3.67101562 18.32078125 -4.11328125 19.2265625 C-5.16932326 21.38558171 -6.23586979 23.53869372 -7.3125 25.6875 C-6.85875 25.0275 -6.405 24.3675 -5.9375 23.6875 C-5.40125 23.0275 -4.865 22.3675 -4.3125 21.6875 C-3.6525 21.6875 -2.9925 21.6875 -2.3125 21.6875 C-3.87707565 25.91185427 -6.655926 28.17808647 -10.3125 30.6875 C-13.1875 30.5 -13.1875 30.5 -15.3125 29.6875 C-14.7827485 24.34859821 -12.90237722 20.57756271 -10.3125 16 C-7.48625163 10.9961063 -7.48625163 10.9961063 -5.3125 5.6875 C-13.15360883 11.40497519 -17.31070633 19.16300193 -21.87890625 27.5703125 C-22.35199219 28.26898438 -22.82507813 28.96765625 -23.3125 29.6875 C-26 30 -26 30 -28.3125 29.6875 C-27.66943124 24.71113712 -25.5383599 20.58573324 -23.375 16.125 C-23.01470703 15.37025391 -22.65441406 14.61550781 -22.28320312 13.83789062 C-20.65694427 10.43862028 -19.00316166 7.05523053 -17.3125 3.6875 C-17.9725 3.6875 -18.6325 3.6875 -19.3125 3.6875 C-19.3125 3.0275 -19.3125 2.3675 -19.3125 1.6875 C-16.09798731 0.08024365 -12.87637464 0.63001815 -9.3125 0.6875 C-9.9725 2.6675 -10.6325 4.6475 -11.3125 6.6875 C-10.755625 6.089375 -10.19875 5.49125 -9.625 4.875 C-3.9125 -0.52871622 -3.9125 -0.52871622 0 0 Z " fill="#D4DDEB" transform="translate(127.3125,107.3125)"/>
<path d="M0 0 C2.97 0.99 5.94 1.98 9 3 C9.91397824 8.68697571 9.91397824 13.31302429 9 19 C8.34 19 7.68 19 7 19 C6.690625 19.639375 6.38125 20.27875 6.0625 20.9375 C5 23 5 23 4 24 C2.14712498 24.07226502 0.29166122 24.0838122 -1.5625 24.0625 C-2.57441406 24.05347656 -3.58632812 24.04445313 -4.62890625 24.03515625 C-5.80259766 24.01775391 -5.80259766 24.01775391 -7 24 C-7 23.34 -7 22.68 -7 22 C-7.99 22 -8.98 22 -10 22 C-10 20.68 -10 19.36 -10 18 C-10.66 18 -11.32 18 -12 18 C-12.02698189 16.37509046 -12.04638757 14.75005367 -12.0625 13.125 C-12.07410156 12.22007813 -12.08570312 11.31515625 -12.09765625 10.3828125 C-12 8 -12 8 -11 6 C-9.68 6 -8.36 6 -7 6 C-7 5.01 -7 4.02 -7 3 C-5.5459375 2.5359375 -5.5459375 2.5359375 -4.0625 2.0625 C-1.15934208 1.30476658 -1.15934208 1.30476658 0 0 Z " fill="#6655B5" transform="translate(79,58)"/>
<path d="M0 0 C0.33 0.99 0.66 1.98 1 3 C1.66 3 2.32 3 3 3 C3 3.66 3 4.32 3 5 C3.66 5 4.32 5 5 5 C5 4.34 5 3.68 5 3 C5.99 2.67 6.98 2.34 8 2 C8.625 3.875 8.625 3.875 9 6 C8.34 6.66 7.68 7.32 7 8 C7.99 9.485 7.99 9.485 9 11 C9.125 14.1875 9.125 14.1875 9 17 C12.58327753 18.00217064 12.58327753 18.00217064 16 17 C16.66 17.66 17.32 18.32 18 19 C17.625 22.125 17.625 22.125 17 25 C17.99 25.33 18.98 25.66 20 26 C20 26.99 20 27.98 20 29 C21.7694791 31.61575171 23.15098369 32.82172119 26.26953125 33.4765625 C28.51540253 33.72413886 30.74290705 33.90354304 33 34 C33 36.66666667 33 39.33333333 33 42 C34.98 42 36.96 42 39 42 C40.09278144 44.0398587 40.95550714 45.73149076 41.3359375 48.02734375 C41.81494515 50.11860793 41.81494515 50.11860793 43.63671875 51.08203125 C48.1563311 52.69187413 51.2167494 53.31539392 56 52 C56.33 52.66 56.66 53.32 57 54 C55.68 53.67 54.36 53.34 53 53 C53 53.66 53 54.32 53 55 C54.32 55.33 55.64 55.66 57 56 C57 56.66 57 57.32 57 58 C51.58837789 57.50677128 47.4588461 56.08147055 42.6875 53.4375 C42.03378418 53.08107422 41.38006836 52.72464844 40.70654297 52.35742188 C34.9630619 49.14005468 29.94646751 45.34199386 25 41 C24.22011719 40.36320312 23.44023438 39.72640625 22.63671875 39.0703125 C12.37776927 30.48383041 3.28723507 16.79436643 -1 4 C-0.625 1.6875 -0.625 1.6875 0 0 Z M22 33 C23 35 23 35 23 35 Z " fill="#181041" transform="translate(31,142)"/>
<path d="M0 0 C1 1 1 1 1.25 4.875 C1.2225573 8.70325694 1.2225573 8.70325694 -0.5 11 C-0.995 11.33 -1.49 11.66 -2 12 C-2.66 9.69 -3.32 7.38 -4 5 C-5.32 4.67 -6.64 4.34 -8 4 C-8 4.66 -8 5.32 -8 6 C-9.13695312 6.86625 -9.13695312 6.86625 -10.296875 7.75 C-13.34410779 10.28642498 -14.55871862 12.43940762 -16.25 16 C-16.75015625 17.03125 -17.2503125 18.0625 -17.765625 19.125 C-19.90944276 24.11819579 -20.12895842 28.3413072 -20.0625 33.75 C-20.05798828 34.44738281 -20.05347656 35.14476562 -20.04882812 35.86328125 C-20.0371002 37.57555803 -20.01916653 39.28779033 -20 41 C-15.22447867 40.42063758 -11.98133347 39.77486878 -8 37 C-8.76729431 42.21760132 -10.66403836 46.26324987 -13.875 50.4375 C-16 52 -16 52 -18.5 52.0625 C-22.48678459 50.36811655 -24.26129667 47.54889408 -26.08984375 43.71484375 C-28.66350947 36.03802969 -27.61762911 27.65185755 -24.26171875 20.41015625 C-23.84535156 19.61480469 -23.42898437 18.81945312 -23 18 C-22.55269531 17.13246094 -22.10539062 16.26492187 -21.64453125 15.37109375 C-18.53618389 9.77940185 -15.20154028 5.72063116 -10 2 C-8.700625 1.0409375 -8.700625 1.0409375 -7.375 0.0625 C-4.45171483 -1.24528547 -2.99948339 -0.9998278 0 0 Z " fill="#BFCBDC" transform="translate(79,96)"/>
<path d="M0 0 C3.63 0 7.26 0 11 0 C8.95955296 6.27202029 6.73121626 12.42734289 4.3125 18.5625 C3.99216797 19.38041016 3.67183594 20.19832031 3.34179688 21.04101562 C2.56321746 23.02813622 1.78190155 25.01418427 1 27 C-1 24 -1 24 -1 22 C-1.66 22 -2.32 22 -3 22 C-3.66 21.01 -4.32 20.02 -5 19 C-5.3403125 20.918125 -5.3403125 20.918125 -5.6875 22.875 C-6.22265625 25.0859375 -6.22265625 25.0859375 -7 27 C-9.625 28.5 -9.625 28.5 -12 29 C-11.731875 30.051875 -11.46375 31.10375 -11.1875 32.1875 C-11 36 -11 36 -13.4375 38.9375 C-14.7059375 39.9584375 -14.7059375 39.9584375 -16 41 C-17.50215387 35.61040399 -16.23091099 32.50313979 -13.625 27.8125 C-12.88570671 26.41398128 -12.14883531 25.01418028 -11.4140625 23.61328125 C-11.02250977 22.87416504 -10.63095703 22.13504883 -10.22753906 21.37353516 C-8.03679141 17.13756683 -6.02529554 12.81686338 -4 8.5 C-3.60248535 7.65671143 -3.2049707 6.81342285 -2.79541016 5.94458008 C-1.86192103 3.96384697 -0.93069957 1.98204538 0 0 Z " fill="#1F1B5A" transform="translate(122,53)"/>
<path d="M0 0 C1.9375 0.3125 1.9375 0.3125 4 1 C4.495 2.485 4.495 2.485 5 4 C3.57772966 6.22983061 2.15335006 8.20307822 0.5 10.25 C-0.19512695 11.12615967 -0.19512695 11.12615967 -0.90429688 12.02001953 C-8.30773698 21.23838063 -16.63217261 28.20518739 -27 34 C-27.66 34 -28.32 34 -29 34 C-28.855625 33.38511719 -28.71125 32.77023438 -28.5625 32.13671875 C-28.376875 31.32847656 -28.19125 30.52023438 -28 29.6875 C-27.814375 28.88699219 -27.62875 28.08648437 -27.4375 27.26171875 C-26.90504177 24.89304062 -26.90504177 24.89304062 -27 22 C-25.390625 20.140625 -25.390625 20.140625 -23.25 18.25 C-22.55390625 17.61578125 -21.8578125 16.9815625 -21.140625 16.328125 C-19 15 -19 15 -16.921875 15.359375 C-16.28765625 15.57078125 -15.6534375 15.7821875 -15 16 C-14.01 15.67 -13.02 15.34 -12 15 C-11.67 13.02 -11.34 11.04 -11 9 C-7.25 7.875 -7.25 7.875 -5 9 C-4.34 7.02 -3.68 5.04 -3 3 C-2.01 3 -1.02 3 0 3 C0 2.01 0 1.02 0 0 Z " fill="#38268D" transform="translate(187,160)"/>
<path d="M0 0 C0.33 0.33 0.66 0.66 1 1 C2.32 1 3.64 1 5 1 C4.45955126 6.95288388 2.6548213 11.74319083 0.25 17.1875 C-0.47413604 18.86450661 -1.1980943 20.54159 -1.921875 22.21875 C-2.27572266 23.03085938 -2.62957031 23.84296875 -2.99414062 24.6796875 C-4.36231472 27.83578618 -5.68341652 31.00953987 -7 34.1875 C-7.391875 35.12980469 -7.78375 36.07210937 -8.1875 37.04296875 C-8.455625 37.68878906 -8.72375 38.33460938 -9 39 C-9.33 38.34 -9.66 37.68 -10 37 C-10.721875 37.20625 -11.44375 37.4125 -12.1875 37.625 C-15.54687404 38.07291654 -17.05095154 37.62973731 -20 36 C-21.8125 33.875 -21.8125 33.875 -23 32 C-22.01 31.34 -21.02 30.68 -20 30 C-19.67 30.99 -19.34 31.98 -19 33 C-15.32579134 32.69381595 -14.21864487 32.24228216 -11.6875 29.4375 C-11.130625 28.633125 -10.57375 27.82875 -10 27 C-10.99 27.66 -11.98 28.32 -13 29 C-12.37959842 24.12268911 -10.2917387 20.24210075 -8.0625 15.9375 C-7.52206055 14.87692383 -7.52206055 14.87692383 -6.97070312 13.79492188 C-6.28254032 12.44521029 -5.59208242 11.09666549 -4.89892578 9.74951172 C-3.91791277 7.8402398 -2.95396912 5.92292206 -2 4 C-3.65 4 -5.3 4 -7 4 C-7.33 4.99 -7.66 5.98 -8 7 C-8.6875 5.1875 -8.6875 5.1875 -9 3 C-6.51519002 -0.66182523 -4.18473386 0 0 0 Z " fill="#211A5F" transform="translate(158,104)"/>
<path d="M0 0 C2 3 2 3 1.75 6 C1 9 1 9 -1 12 C-0.34 12 0.32 12 1 12 C2.74881472 16.04413405 3.58963383 18.41535909 2 22.6875 C1.67 23.450625 1.34 24.21375 1 25 C0.01 24.67 -0.98 24.34 -2 24 C-1.67 25.98 -1.34 27.96 -1 30 C-2.32 30 -3.64 30 -5 30 C-5.33 30.99 -5.66 31.98 -6 33 C-7.485 33.495 -7.485 33.495 -9 34 C-9.350625 33.38125 -9.70125 32.7625 -10.0625 32.125 C-12.68887702 29.24445747 -15.26627537 28.84537162 -19 28 C-18.67 26.35 -18.34 24.7 -18 23 C-14.25 21.875 -14.25 21.875 -12 23 C-12 22.01 -12 21.02 -12 20 C-12.99 20 -13.98 20 -15 20 C-15 19.34 -15 18.68 -15 18 C-16.32 17.67 -17.64 17.34 -19 17 C-19 16.67 -19 16.34 -19 16 C-18.24074219 15.97421875 -17.48148437 15.9484375 -16.69921875 15.921875 C-15.20841797 15.83679688 -15.20841797 15.83679688 -13.6875 15.75 C-12.70136719 15.70359375 -11.71523437 15.6571875 -10.69921875 15.609375 C-7.38302755 14.86071244 -6.80161668 13.77171797 -5 11 C-4.34 11 -3.68 11 -3 11 C-2.87625 10.29875 -2.7525 9.5975 -2.625 8.875 C-1.96161655 5.82343613 -1.02788045 2.94659062 0 0 Z M-4 13 C-4.33 13.66 -4.66 14.32 -5 15 C-4.34 15 -3.68 15 -3 15 C-3.33 14.34 -3.66 13.68 -4 13 Z " fill="#2D1D72" transform="translate(91,66)"/>
<path d="M0 0 C0.66 0.33 1.32 0.66 2 1 C2 1.66 2 2.32 2 3 C2.5775 3.061875 3.155 3.12375 3.75 3.1875 C7.60990894 4.58135601 9.35861283 7.81343373 11.25 11.3125 C11.4975 11.869375 11.745 12.42625 12 13 C11.41089844 13.07605469 10.82179687 13.15210938 10.21484375 13.23046875 C7.24746276 14.26146355 6.36437267 15.76990369 4.5625 18.3125 C-0.26376133 24.77845269 -0.26376133 24.77845269 -4 27 C-6.25713514 26.81190541 -7.39545559 26.60454441 -9 25 C-7.58333333 6.58333333 -7.58333333 6.58333333 -3 2 C-2.01 1.34 -1.02 0.68 0 0 Z " fill="#46388B" transform="translate(156,143)"/>
<path d="M0 0 C1.11375 0.556875 1.11375 0.556875 2.25 1.125 C1.26 1.785 0.27 2.445 -0.75 3.125 C-1.430625 3.66125 -2.11125 4.1975 -2.8125 4.75 C-4.75 6.125 -4.75 6.125 -6.75 6.125 C-6.75 6.785 -6.75 7.445 -6.75 8.125 C-8.07615345 9.46547476 -9.41071172 10.79764833 -10.75 12.125 C-14.68739428 17.78560595 -17.57464411 23.59893233 -19.75 30.125 C-20.245 31.61 -20.245 31.61 -20.75 33.125 C-20.75 34.115 -20.75 35.105 -20.75 36.125 C-22.8125 34.375 -22.8125 34.375 -24.75 32.125 C-24.64464263 28.75356431 -22.83938984 26.66860502 -20.75 24.125 C-21.41 24.125 -22.07 24.125 -22.75 24.125 C-23.03875 24.764375 -23.3275 25.40375 -23.625 26.0625 C-24.75 28.125 -24.75 28.125 -26.75 29.125 C-25.13863548 23.73346142 -22.80611899 18.83599415 -20.3125 13.8125 C-19.91740234 12.98943359 -19.52230469 12.16636719 -19.11523438 11.31835938 C-18.53418945 10.14563477 -18.53418945 10.14563477 -17.94140625 8.94921875 C-17.59279541 8.23854248 -17.24418457 7.52786621 -16.88500977 6.7956543 C-15.75 5.125 -15.75 5.125 -12.75 4.125 C-12.42 3.135 -12.09 2.145 -11.75 1.125 C-11.0075 1.16625 -10.265 1.2075 -9.5 1.25 C-6.76782991 1.33256896 -6.76782991 1.33256896 -4.75 0 C-2.75 -0.875 -2.75 -0.875 0 0 Z " fill="#1C1759" transform="translate(145.75,104.875)"/>
<path d="M0 0 C0.598125 0.226875 1.19625 0.45375 1.8125 0.6875 C2.0486959 7.09103322 1.635821 12.53379161 -0.1875 18.6875 C-1.5075 18.6875 -2.8275 18.6875 -4.1875 18.6875 C-4.66960937 19.68652344 -5.15171875 20.68554688 -5.6484375 21.71484375 C-6.28614089 23.01838451 -6.92417911 24.32176151 -7.5625 25.625 C-8.03816406 26.6140332 -8.03816406 26.6140332 -8.5234375 27.62304688 C-10.9609375 32.57421875 -10.9609375 32.57421875 -13.1875 33.6875 C-12.33577018 25.36954283 -12.33577018 25.36954283 -11.5625 21.8125 C-10.98217922 19.50965709 -10.98217922 19.50965709 -12.1875 16.6875 C-11.19230386 14.2521965 -10.1506518 12.00913953 -8.9375 9.6875 C-8.62425781 9.0584375 -8.31101563 8.429375 -7.98828125 7.78125 C-3.74226023 -0.5346086 -3.74226023 -0.5346086 0 0 Z " fill="#B2B6D0" transform="translate(176.1875,87.3125)"/>
<path d="M0 0 C3.96 0 7.92 0 12 0 C12 2.64 12 5.28 12 8 C8.04 8 4.08 8 0 8 C-0.99 11.96 -1.98 15.92 -3 20 C-4.32 19.67 -5.64 19.34 -7 19 C-7.99 19.33 -8.98 19.66 -10 20 C-9.54803755 18.39402675 -9.08817673 16.79027492 -8.625 15.1875 C-8.36976563 14.29417969 -8.11453125 13.40085937 -7.8515625 12.48046875 C-7 10 -7 10 -5 7 C-5.66 7 -6.32 7 -7 7 C-6.67 5.35 -6.34 3.7 -6 2 C-4.02 2 -2.04 2 0 2 C0 1.34 0 0.68 0 0 Z " fill="#C1CEDA" transform="translate(138,46)"/>
<path d="M0 0 C0.99 0 1.98 0 3 0 C2.02746902 4.95576956 1.03365137 9.89650775 -0.125 14.8125 C-0.83441636 17.93836585 -1.20793819 20.77695804 -1 24 C0.82598168 24.7308266 0.82598168 24.7308266 3 25 C8.06518555 22.23612021 11.54902185 17.20499269 14.73828125 12.5390625 C15.36283203 11.77722656 15.36283203 11.77722656 16 11 C16.66 11 17.32 11 18 11 C16.71370473 15.71183028 14.99101949 18.60637383 11.6875 22.1875 C10.92824219 23.02667969 10.16898438 23.86585938 9.38671875 24.73046875 C7.02921087 26.97222338 4.91148635 28.55843614 2 30 C-1.1875 29.875 -1.1875 29.875 -4 29 C-6.55045687 25.1743147 -6.55988575 22.41909824 -6 18 C-3.05185683 5.55382955 -3.05185683 5.55382955 0 0 Z " fill="#F1EEFA" transform="translate(149,144)"/>
<path d="M0 0 C2.0625 0.875 2.0625 0.875 3.0625 1.875 C3.53774752 9.24133663 3.53774752 9.24133663 1.5625 11.875 C1.0675 12.205 0.5725 12.535 0.0625 12.875 C-0.5975 10.565 -1.2575 8.255 -1.9375 5.875 C-3.2575 5.545 -4.5775 5.215 -5.9375 4.875 C-5.9375 5.535 -5.9375 6.195 -5.9375 6.875 C-6.69675781 7.45765625 -7.45601562 8.0403125 -8.23828125 8.640625 C-16.60850219 15.56937518 -18.78229833 27.91156222 -19.7890625 38.1875 C-19.86253906 39.0228125 -19.86253906 39.0228125 -19.9375 39.875 C-20.2675 39.875 -20.5975 39.875 -20.9375 39.875 C-24.31192405 22.53533908 -24.31192405 22.53533908 -18.7109375 14.171875 C-18.12570313 13.41390625 -17.54046875 12.6559375 -16.9375 11.875 C-16.45539062 11.19953125 -15.97328125 10.5240625 -15.4765625 9.828125 C-11.72348002 4.97607361 -6.44693583 -0.27433769 0 0 Z " fill="#DDE3F3" transform="translate(76.9375,95.125)"/>
<path d="M0 0 C-0.89448865 3.02750006 -1.64401784 5.53010355 -3.5625 8.0625 C-5.15580296 9.89579851 -5.15580296 9.89579851 -5.3359375 12.1640625 C-6.23143111 15.98834696 -8.06367925 18.96041892 -10.0625 22.3125 C-10.62807617 23.28026367 -10.62807617 23.28026367 -11.20507812 24.26757812 C-12.13037493 25.84878152 -13.06432681 27.4249146 -14 29 C-15.65 29 -17.3 29 -19 29 C-18.35693124 24.02363712 -16.2258599 19.89823324 -14.0625 15.4375 C-13.70220703 14.68275391 -13.34191406 13.92800781 -12.97070312 13.15039062 C-11.34444427 9.75112028 -9.69066166 6.36773053 -8 3 C-8.66 3 -9.32 3 -10 3 C-10 2.34 -10 1.68 -10 1 C-6.78548731 -0.60725635 -3.56387464 -0.05748185 0 0 Z " fill="#DCE5F0" transform="translate(118,108)"/>
<path d="M0 0 C0.33 1.32 0.66 2.64 1 4 C0.34 4 -0.32 4 -1 4 C-0.67 4.66 -0.34 5.32 0 6 C0.039992 7.99960012 0.04346799 10.00047242 0 12 C-2 9 -2 9 -2 6 C-2.66 6 -3.32 6 -4 6 C-3.938125 7.1446875 -3.938125 7.1446875 -3.875 8.3125 C-4 11 -4 11 -6 14 C-5.34 14.33 -4.68 14.66 -4 15 C-4 15.66 -4 16.32 -4 17 C-2.68 16.67 -1.36 16.34 0 16 C0.94864076 20.03172323 1.41665964 22.18404153 -0.5 25.9375 C-3 28 -3 28 -6.6875 28.375 C-10 28 -10 28 -11 27 C-11.38629073 20.81934833 -10.37940304 15.8617057 -8.5 10 C-8.26152344 9.22527344 -8.02304688 8.45054688 -7.77734375 7.65234375 C-7.19486803 5.76512242 -6.59884697 3.88209049 -6 2 C-4.7934375 1.7834375 -4.7934375 1.7834375 -3.5625 1.5625 C-1.07896294 1.25864751 -1.07896294 1.25864751 0 0 Z " fill="#21185C" transform="translate(142,57)"/>
<path d="M0 0 C10.96502513 4.34084519 19.61585551 21.5673391 24.2734375 31.796875 C25.10219335 34.30987661 24.90766491 35.54930473 24 38 C23.566875 37.05125 23.13375 36.1025 22.6875 35.125 C21.20697799 31.79958063 21.20697799 31.79958063 18 30 C17.30899447 28.00827818 16.64097297 26.00838196 16 24 C15.34 23.67 14.68 23.34 14 23 C14 23.33 14 23.66 14 24 C12.35 24 10.7 24 9 24 C9 23.01 9 22.02 9 21 C8.835 20.071875 8.67 19.14375 8.5 18.1875 C8.01032387 15.06581464 7.92491859 12.15341919 8 9 C5.69 8.67 3.38 8.34 1 8 C0.17361624 5.10765685 0 3.11257569 0 0 Z " fill="#15112F" transform="translate(176,40)"/>
<path d="M0 0 C12.78734706 1.76377201 23.45421877 9.72992225 33 18 C29.98849505 18.90550946 27.56229013 19.06723758 24.4375 18.75 C23.67308594 18.68296875 22.90867188 18.6159375 22.12109375 18.546875 C19.58471198 17.89292758 18.62454454 17.02320578 17 15 C16.731875 14.29875 16.46375 13.5975 16.1875 12.875 C15.07310132 10.63382023 15.07310132 10.63382023 11.875 10.25 C10.92625 10.1675 9.9775 10.085 9 10 C9 8.33333333 9 6.66666667 9 5 C7.88625 4.9175 6.7725 4.835 5.625 4.75 C4.42875 4.5025 3.2325 4.255 2 4 C0.7734375 1.953125 0.7734375 1.953125 0 0 Z " fill="#140D3A" transform="translate(143,21)"/>
<path d="M0 0 C0.33 0.66 0.66 1.32 1 2 C1.66 2.33 2.32 2.66 3 3 C2.625 4.9375 2.625 4.9375 2 7 C1.01 7.495 1.01 7.495 0 8 C0.66 8.33 1.32 8.66 2 9 C0.6537371 13.40595131 -1.06103995 15.58291088 -5 18 C-8.3125 18.25 -8.3125 18.25 -11 18 C-11.75 15.875 -11.75 15.875 -12 13 C-9.22462212 7.44924424 -4.74267781 3.89083762 0 0 Z " fill="#E1ECF4" transform="translate(103,78)"/>
<path d="M0 0 C0.99 0.33 1.98 0.66 3 1 C2.37291536 5.45738538 0.64701422 9.15617043 -1.375 13.125 C-1.83132812 14.05505859 -1.83132812 14.05505859 -2.296875 15.00390625 C-5.34007024 21.05128141 -5.34007024 21.05128141 -8 23 C-8.99 23 -9.98 23 -11 23 C-11 14.37556695 -6.03715983 6.03715983 0 0 Z " fill="#1E1958" transform="translate(92,110)"/>
<path d="M0 0 C0.33 0.66 0.66 1.32 1 2 C2.98 1.67 4.96 1.34 7 1 C6.39301257 5.12751449 4.96189209 8.3321148 3 12 C5.31 12 7.62 12 10 12 C9.67 12.99 9.34 13.98 9 15 C8.030625 15.12375 7.06125 15.2475 6.0625 15.375 C5.051875 15.58125 4.04125 15.7875 3 16 C2.67 16.66 2.34 17.32 2 18 C1.34 17.34 0.68 16.68 0 16 C0.33 15.01 0.66 14.02 1 13 C-2.27773504 13.75150023 -2.27773504 13.75150023 -4 17 C-4.66 16.34 -5.32 15.68 -6 15 C-6.33 15.99 -6.66 16.98 -7 18 C-10 16 -10 16 -11 13 C-9.4840625 12.7525 -9.4840625 12.7525 -7.9375 12.5 C-2.80550164 11.09655555 -0.11628322 7.07295376 3 3 C2.34 3 1.68 3 1 3 C0.34 4.32 -0.32 5.64 -1 7 C-1.625 5.1875 -1.625 5.1875 -2 3 C-1.34 2.01 -0.68 1.02 0 0 Z " fill="#1F165D" transform="translate(95,126)"/>
<path d="M0 0 C-0.37001571 8.3253535 -5.03027679 17.22926756 -11 23 C-12.32 23 -13.64 23 -15 23 C-14.48848226 17.94589935 -12.88653644 14.6513954 -10.1875 10.375 C-9.50042969 9.26898438 -8.81335938 8.16296875 -8.10546875 7.0234375 C-3.21447028 0 -3.21447028 0 0 0 Z " fill="#1B1757" transform="translate(148,110)"/>
<path d="M0 0 C3.5 0.1875 3.5 0.1875 5.5 1.1875 C5.73827469 4.04679624 5.93309153 6.38577208 5.5 9.1875 C3.25 11.6875 3.25 11.6875 0.5 13.1875 C-0.82 13.1875 -2.14 13.1875 -3.5 13.1875 C-5.82617985 9.55284398 -5.81404687 6.42713281 -5.5 2.1875 C-3.5 0.1875 -3.5 0.1875 0 0 Z " fill="#806ED0" transform="translate(79.5,66.8125)"/>
<path d="M0 0 C0.66 0 1.32 0 2 0 C3.24213914 4.27327112 2.69146302 6.71541119 1.0625 10.8125 C0.68222656 11.78832031 0.30195313 12.76414063 -0.08984375 13.76953125 C-0.39019531 14.50558594 -0.69054687 15.24164063 -1 16 C-0.01 16 0.98 16 2 16 C2 16.66 2 17.32 2 18 C-0.57213134 19.61949011 -1.67669159 20.04408751 -4.75 19.625 C-5.4925 19.41875 -6.235 19.2125 -7 19 C-7.63652344 11.99824221 -5.95434071 7.775734 -2 2 C-1.34 1.34 -0.68 0.68 0 0 Z " fill="#D9E2F0" transform="translate(134,118)"/>
<path d="M0 0 C-0.59715372 4.77722976 -2.62670199 8.36919294 -4.9375 12.5 C-7.20609833 16.59889859 -9.37969904 20.58870942 -11 25 C-13.12692796 22.69582804 -13.95841651 21.35444975 -14.328125 18.203125 C-13.92288822 14.24724215 -12.66477249 12.50362859 -10.25 9.375 C-9.55390625 8.45460938 -8.8578125 7.53421875 -8.140625 6.5859375 C-2.68882175 0 -2.68882175 0 0 0 Z " fill="#241D61" transform="translate(122,113)"/>
<path d="M0 0 C0.33 0.66 0.66 1.32 1 2 C1.66 2 2.32 2 3 2 C2.54171792 4.67331214 2.00162068 6.99618664 0.9375 9.5 C-0.08394523 12.22385395 -0.31179057 14.11593721 0 17 C0.66 17.66 1.32 18.32 2 19 C0.35 19.99 -1.3 20.98 -3 22 C-6 20 -6 20 -6.46875 17.93359375 C-6.55433416 11.09755923 -4.89225347 6.6022927 -1 1 C-0.67 0.67 -0.34 0.34 0 0 Z " fill="#DAE4EF" transform="translate(82,116)"/>
<path d="M0 0 C0.66 0.99 1.32 1.98 2 3 C0.7934375 3.61875 0.7934375 3.61875 -0.4375 4.25 C-1.283125 4.8275 -2.12875 5.405 -3 6 C-3.12375 6.66 -3.2475 7.32 -3.375 8 C-3.684375 8.99 -3.684375 8.99 -4 10 C-7.4375 11.625 -7.4375 11.625 -11 13 C-11.66 13.66 -12.32 14.32 -13 15 C-12.6814823 17.10820797 -12.6814823 17.10820797 -12 19 C-13.051875 19.12375 -14.10375 19.2475 -15.1875 19.375 C-18.45958771 19.91140782 -21.00536076 20.63880035 -24 22 C-20.39861755 16.54647801 -16.40357497 12.37236323 -11.4375 8.1875 C-10.88360596 7.71981201 -10.32971191 7.25212402 -9.7590332 6.77026367 C-6.6525782 4.20555146 -3.51380916 1.96956528 0 0 Z " fill="#332183" transform="translate(68,29)"/>
<path d="M0 0 C2.97 0.33 5.94 0.66 9 1 C9.49139215 5.12769407 9.15847105 6.7529716 6.875 10.3125 C3.74586331 13.23756256 2.20475835 13.80442984 -2 14 C-1.43393721 9.30976546 -0.81462495 4.65499974 0 0 Z " fill="#7867CE" transform="translate(149,154)"/>
<path d="M0 0 C0.93972656 0.28037109 0.93972656 0.28037109 1.8984375 0.56640625 C1.63289062 1.46101562 1.36734375 2.355625 1.09375 3.27734375 C-0.79350853 9.7381047 -2.54493737 16.11527151 -3.609375 22.7734375 C-3.77179688 23.36511719 -3.93421875 23.95679688 -4.1015625 24.56640625 C-4.7615625 24.89640625 -5.4215625 25.22640625 -6.1015625 25.56640625 C-7.27135309 21.27717408 -6.7241593 17.92458384 -6.1015625 13.56640625 C-6.2871875 12.72078125 -6.4728125 11.87515625 -6.6640625 11.00390625 C-7.26263016 7.66902931 -6.43859823 5.64158844 -5.1015625 2.56640625 C-2.86129053 -0.59034061 -2.86129053 -0.59034061 0 0 Z " fill="#544792" transform="translate(146.1015625,147.43359375)"/>
<path d="M0 0 C1.11483375 3.50619471 0.97273134 6.59499311 0.8125 10.25 C0.74080094 15.59158028 1.44147575 18.70173195 4.17578125 23.2109375 C5.60741943 26.3184744 4.80890081 28.76439676 4 32 C2.35 31.67 0.7 31.34 -1 31 C-0.67 30.34 -0.34 29.68 0 29 C-1.32 28.67 -2.64 28.34 -4 28 C-3.690625 26.9275 -3.38125 25.855 -3.0625 24.75 C-1.66570282 19.24206217 -1.35811202 13.65440039 -1 8 C-1.99 8 -2.98 8 -4 8 C-4 6.02 -4 4.04 -4 2 C-3.01 2 -2.02 2 -1 2 C-0.67 1.34 -0.34 0.68 0 0 Z " fill="#1A0F59" transform="translate(52,120)"/>
<path d="M0 0 C2.97 0.99 5.94 1.98 9 3 C9.33 5.31 9.66 7.62 10 10 C9.67 9.34 9.34 8.68 9 8 C8.34 8 7.68 8 7 8 C7 7.34 7 6.68 7 6 C5.22880197 6.14133499 3.45804713 6.28823208 1.6875 6.4375 C0.70136719 6.51871094 -0.28476563 6.59992188 -1.30078125 6.68359375 C-4.09375599 6.91812559 -4.09375599 6.91812559 -7 8 C-7.33 8.99 -7.66 9.98 -8 11 C-8.66 11 -9.32 11 -10 11 C-10.33 13.31 -10.66 15.62 -11 18 C-11.33 18 -11.66 18 -12 18 C-12.02698189 16.37509046 -12.04638757 14.75005367 -12.0625 13.125 C-12.07410156 12.22007813 -12.08570312 11.31515625 -12.09765625 10.3828125 C-12 8 -12 8 -11 6 C-9.68 6 -8.36 6 -7 6 C-7 5.01 -7 4.02 -7 3 C-5.5459375 2.5359375 -5.5459375 2.5359375 -4.0625 2.0625 C-1.15934208 1.30476658 -1.15934208 1.30476658 0 0 Z " fill="#5442A7" transform="translate(79,58)"/>
<path d="M0 0 C0.66 0 1.32 0 2 0 C0.17825415 9.77118227 -2.69992508 20.12490635 -9 28 C-9.33 28 -9.66 28 -10 28 C-9.59479673 20.69897376 -7.72414483 15.42522617 -4.4375 8.9375 C-4.01275391 8.07189453 -3.58800781 7.20628906 -3.15039062 6.31445312 C-2.11230196 4.20328405 -1.06219779 2.09911279 0 0 Z " fill="#1C1E50" transform="translate(173,93)"/>
<path d="M0 0 C0.33 0.66 0.66 1.32 1 2 C1.66 2 2.32 2 3 2 C3 2.66 3 3.32 3 4 C3.94875 4.0825 4.8975 4.165 5.875 4.25 C9 5 9 5 10.4375 6.875 C11 9 11 9 10 12 C9.79375 12.763125 9.5875 13.52625 9.375 14.3125 C7.46325694 18.0490887 4.68109792 20.93423619 1 23 C-1.2265625 22.6640625 -1.2265625 22.6640625 -3 22 C-2.505 20.515 -2.505 20.515 -2 19 C-0.68 19 0.64 19 2 19 C5.50377357 15.59633424 6.55164483 12.81981803 7 8 C4.69 7.67 2.38 7.34 0 7 C-0.33 7.66 -0.66 8.32 -1 9 C-0.67 6.03 -0.34 3.06 0 0 Z " fill="#7265B6" transform="translate(151,147)"/>
<path d="M0 0 C2 3 2 3 1.9375 5.875 C0.78723197 9.70922676 -1.01861079 11.40084018 -4 14 C-3.67 14.66 -3.34 15.32 -3 16 C-8.14285714 21.57142857 -8.14285714 21.57142857 -12 22 C-12 21.34 -12 20.68 -12 20 C-12.99 20 -13.98 20 -15 20 C-15 19.34 -15 18.68 -15 18 C-16.32 17.67 -17.64 17.34 -19 17 C-19 16.67 -19 16.34 -19 16 C-18.24074219 15.97421875 -17.48148437 15.9484375 -16.69921875 15.921875 C-15.20841797 15.83679688 -15.20841797 15.83679688 -13.6875 15.75 C-12.70136719 15.70359375 -11.71523437 15.6571875 -10.69921875 15.609375 C-7.38302755 14.86071244 -6.80161668 13.77171797 -5 11 C-4.34 11 -3.68 11 -3 11 C-2.87625 10.29875 -2.7525 9.5975 -2.625 8.875 C-1.96161655 5.82343613 -1.02788045 2.94659062 0 0 Z " fill="#493892" transform="translate(91,66)"/>
<path d="M0 0 C0.33 0.99 0.66 1.98 1 3 C1.66 3 2.32 3 3 3 C3.33 2.01 3.66 1.02 4 0 C4.33 2.31 4.66 4.62 5 7 C5.66 6.01 6.32 5.02 7 4 C7.66 4 8.32 4 9 4 C7.4404735 7.82792868 5.16368164 10.36359864 2 13 C-1.795145 13.11859828 -4.24205851 10.37489406 -7 8 C-6.21625 7.4225 -5.4325 6.845 -4.625 6.25 C-2.19952756 4.17102363 -1.14305583 2.90959667 0 0 Z " fill="#C8CCE1" transform="translate(89,125)"/>
<path d="M0 0 C2.31 0.66 4.62 1.32 7 2 C7 6.81173372 4.00238145 10.37212241 1 14 C0.01 14.66 -0.98 15.32 -2 16 C-2 16.99 -2 17.98 -2 19 C-5.96 20.98 -5.96 20.98 -10 23 C-10 22.01 -10 21.02 -10 20 C-9.24332031 19.40703125 -8.48664063 18.8140625 -7.70703125 18.203125 C-4.56663976 15.64730855 -3.3916984 13.39619192 -1.6875 9.75 C-1.17574219 8.67234375 -0.66398438 7.5946875 -0.13671875 6.484375 C0.42595703 5.25460938 0.42595703 5.25460938 1 4 C0.34 3.67 -0.32 3.34 -1 3 C-0.67 2.01 -0.34 1.02 0 0 Z " fill="#1C1254" transform="translate(145,73)"/>
<path d="M0 0 C0.99 0 1.98 0 3 0 C4.83717315 7.41430591 5.23576736 14.37685526 5 22 C4.34 22.33 3.68 22.66 3 23 C-1.69407368 8.07955152 -1.69407368 8.07955152 -1 1 C-0.67 0.67 -0.34 0.34 0 0 Z " fill="#221560" transform="translate(26,121)"/>
<path d="M0 0 C0.33 0 0.66 0 1 0 C1 3.3 1 6.6 1 10 C2.32 9.01 3.64 8.02 5 7 C4.56699236 13.81987029 3.09212176 18.91643021 0 25 C-0.33 25 -0.66 25 -1 25 C-2.0421083 16.26882235 -1.8748591 8.59956034 0 0 Z " fill="#31217A" transform="translate(26,86)"/>
<path d="M0 0 C0.66 0 1.32 0 2 0 C0.71370473 4.71183028 -1.00898051 7.60637383 -4.3125 11.1875 C-5.07175781 12.02667969 -5.83101562 12.86585938 -6.61328125 13.73046875 C-8.96171847 15.96359809 -11.10771696 17.54905402 -14 19 C-16.3125 18.6875 -16.3125 18.6875 -18 18 C-17.3125 16.0625 -17.3125 16.0625 -16 14 C-15.23300781 13.88140625 -14.46601563 13.7628125 -13.67578125 13.640625 C-10.2148874 12.81203144 -9.13358273 11.39337068 -6.875 8.6875 C-6.21242187 7.90761719 -5.54984375 7.12773437 -4.8671875 6.32421875 C-3.65961371 4.82106727 -2.49410229 3.28270058 -1.3828125 1.70703125 C-0.92648438 1.14371094 -0.47015625 0.58039063 0 0 Z " fill="#E4DCF5" transform="translate(165,155)"/>
<path d="M0 0 C1.32 0.33 2.64 0.66 4 1 C4 1.66 4 2.32 4 3 C3.01 3 2.02 3 1 3 C0.87625 3.598125 0.7525 4.19625 0.625 4.8125 C0 7 0 7 -2 10 C-1.68269476 13.63939932 -1.68269476 13.63939932 -1 17 C-1.33 16.34 -1.66 15.68 -2 15 C-2.433125 15.495 -2.86625 15.99 -3.3125 16.5 C-5 18 -5 18 -8 18 C-7.83837003 10.72665157 -4.04781684 5.84449794 0 0 Z " fill="#352387" transform="translate(42,53)"/>
<path d="M0 0 C0.66 0 1.32 0 2 0 C2.66 0.66 3.32 1.32 4 2 C4.66 2.33 5.32 2.66 6 3 C5.4225 3.598125 4.845 4.19625 4.25 4.8125 C1.15261435 9.200463 -0.32989164 13.92749003 -2 19 C-3.32 18.67 -4.64 18.34 -6 18 C-4.23536928 11.89262558 -2.30442525 5.92566493 0 0 Z " fill="#DEE4F1" transform="translate(155,126)"/>
<path d="M0 0 C0.99 0.33 1.98 0.66 3 1 C3 1.928125 3 2.85625 3 3.8125 C3.63651946 7.00285901 3.63651946 7.00285901 5.63671875 8.1015625 C10.04782487 9.89961338 13.30976375 10.28981497 18 9 C18.33 9.66 18.66 10.32 19 11 C17.68 10.67 16.36 10.34 15 10 C15 10.66 15 11.32 15 12 C16.32 12.33 17.64 12.66 19 13 C19 13.66 19 14.32 19 15 C11.83292123 14.67422369 6.23072876 11.34556372 0 8 C0 6.35 0 4.7 0 3 C-0.66 3 -1.32 3 -2 3 C-2 2.34 -2 1.68 -2 1 C-1.34 0.67 -0.68 0.34 0 0 Z " fill="#20174C" transform="translate(69,185)"/>
<path d="M0 0 C2.31 0 4.62 0 7 0 C8 3 8 3 6.78515625 5.91796875 C6.21667969 6.99691406 5.64820313 8.07585937 5.0625 9.1875 C4.49660156 10.27417969 3.93070313 11.36085937 3.34765625 12.48046875 C2.90292969 13.31191406 2.45820313 14.14335937 2 15 C1.01 15 0.02 15 -1 15 C-0.49396008 12.83125748 -0.00016187 11.00032373 1 9 C0.60061233 6.90178785 0.60061233 6.90178785 0 5 C0.66 5 1.32 5 2 5 C2 4.34 2 3.68 2 3 C1.01 3 0.02 3 -1 3 C-0.67 2.01 -0.34 1.02 0 0 Z " fill="#2D1D80" transform="translate(193,144)"/>
<path d="M0 0 C0.75 1.5625 0.75 1.5625 1 4 C-0.67248376 7.5927429 -1.88790446 10.13117536 -5 12.5625 C-7 13 -7 13 -9.25 12.125 C-9.8275 11.75375 -10.405 11.3825 -11 11 C-11 10.34 -11 9.68 -11 9 C-11.66 8.34 -12.32 7.68 -13 7 C-11.783125 6.773125 -10.56625 6.54625 -9.3125 6.3125 C-5.04439716 5.27390304 -2.84971116 3.384032 0 0 Z " fill="#C3D2D9" transform="translate(70,133)"/>
<path d="M0 0 C1.9375 0.3125 1.9375 0.3125 4 1 C4.33 1.99 4.66 2.98 5 4 C3.63671875 6.2265625 3.63671875 6.2265625 1.6875 8.625 C1.05199219 9.42164063 0.41648438 10.21828125 -0.23828125 11.0390625 C-2 13 -2 13 -4 14 C-5.23076923 7.6 -5.23076923 7.6 -4.0625 4.5625 C-3.711875 4.046875 -3.36125 3.53125 -3 3 C-2.01 3 -1.02 3 0 3 C0 2.01 0 1.02 0 0 Z " fill="#2F1C87" transform="translate(187,160)"/>
<path d="M0 0 C0.33 0.66 0.66 1.32 1 2 C2.89533342 2.46523063 2.89533342 2.46523063 5.0625 2.625 C6.361875 2.74875 7.66125 2.8725 9 3 C8.01 4.485 8.01 4.485 7 6 C6.01 6 5.02 6 4 6 C3.72414062 6.57234375 3.44828125 7.1446875 3.1640625 7.734375 C2.00532152 9.98964267 0.73124294 12.10856378 -0.625 14.25 C-1.07101563 14.95640625 -1.51703125 15.6628125 -1.9765625 16.390625 C-2.48316406 17.18726563 -2.48316406 17.18726563 -3 18 C-3.59375 16.1171875 -3.59375 16.1171875 -4 14 C-3.505 13.38125 -3.01 12.7625 -2.5 12.125 C-0.6460494 10.01617122 -0.6460494 10.01617122 -1.4375 7 C-1.623125 6.01 -1.80875 5.02 -2 4 C-1.0625 1.625 -1.0625 1.625 0 0 Z " fill="#19124A" transform="translate(170,80)"/>
<path d="M0 0 C0 1.32 0 2.64 0 4 C-4.07142857 7 -4.07142857 7 -7 7 C-7 6.34 -7 5.68 -7 5 C-8.12588014 5.95729916 -9.2506715 6.91587895 -10.375 7.875 C-11.00148438 8.40867187 -11.62796875 8.94234375 -12.2734375 9.4921875 C-13.55836651 10.61432007 -14.79371975 11.79371975 -16 13 C-16 9 -16 9 -13.9375 6.5625 C-4.56115517 -1.61686464 -4.56115517 -1.61686464 0 0 Z " fill="#E5EDF7" transform="translate(129,108)"/>
<path d="M0 0 C1.9375 0.375 1.9375 0.375 4 1 C5.60725635 4.21451269 5.05748185 7.43612536 5 11 C4.01 11 3.02 11 2 11 C1.67 10.67 1.34 10.34 1 10 C0.67 11.65 0.34 13.3 0 15 C-0.66 15 -1.32 15 -2 15 C-2 13.68 -2 12.36 -2 11 C-2.66 11 -3.32 11 -4 11 C-4 9.68 -4 8.36 -4 7 C-2.02 7 -0.04 7 2 7 C2 6.34 2 5.68 2 5 C1.34 5 0.68 5 0 5 C0 3.35 0 1.7 0 0 Z " fill="#241767" transform="translate(123,57)"/>
<path d="M0 0 C0.66 0.99 1.32 1.98 2 3 C2.99 3 3.98 3 5 3 C5.66 3 6.32 3 7 3 C7.99 2.34 8.98 1.68 10 1 C8.43681592 4.83690637 6.2046685 7.39154889 3 10 C-0.44616056 9.91985673 -1.5556104 9.4443896 -4 7 C-4.99 6.34 -5.98 5.68 -7 5 C-6.21625 4.731875 -5.4325 4.46375 -4.625 4.1875 C-1.71885077 3.15185568 -1.71885077 3.15185568 0 0 Z " fill="#C6CDE3" transform="translate(140,128)"/>
<path d="M0 0 C2 3 2 3 3 5 C3.33 4.34 3.66 3.68 4 3 C4.99 3.33 5.98 3.66 7 4 C6.67 5.65 6.34 7.3 6 9 C6.99 9 7.98 9 9 9 C8.67 9.99 8.34 10.98 8 12 C5.6739143 12.38063221 3.33944736 12.71269945 1 13 C0 12 0 12 -0.09765625 9.27734375 C-0.08605469 8.17519531 -0.07445312 7.07304687 -0.0625 5.9375 C-0.05347656 4.83277344 -0.04445312 3.72804687 -0.03515625 2.58984375 C-0.02355469 1.73519531 -0.01195312 0.88054687 0 0 Z " fill="#201661" transform="translate(58,125)"/>
<path d="M0 0 C0.33 0.33 0.66 0.66 1 1 C2.32 1 3.64 1 5 1 C4.67 3.31 4.34 5.62 4 8 C2 8 0 8 -2 8 C-2 6.68 -2 5.36 -2 4 C-3.65 4 -5.3 4 -7 4 C-7.33 4.99 -7.66 5.98 -8 7 C-8.6875 5.1875 -8.6875 5.1875 -9 3 C-6.51519002 -0.66182523 -4.18473386 0 0 0 Z " fill="#1A1350" transform="translate(158,104)"/>
<path d="M0 0 C0.66 0 1.32 0 2 0 C1.70648038 5.87039235 -1.02412626 9.85599229 -5 14 C-5.99 14.33 -6.98 14.66 -8 15 C-8.66 14.34 -9.32 13.68 -10 13 C-9.34 13 -8.68 13 -8 13 C-8.33 11.68 -8.66 10.36 -9 9 C-8.34 9 -7.68 9 -7 9 C-7 9.66 -7 10.32 -7 11 C-6.34 11 -5.68 11 -5 11 C-5.33 10.34 -5.66 9.68 -6 9 C-7.98 9 -9.96 9 -12 9 C-11.67 8.01 -11.34 7.02 -11 6 C-9.39125 6.185625 -9.39125 6.185625 -7.75 6.375 C-6.5125 6.25125 -5.275 6.1275 -4 6 C-1.64677204 3.09587454 -1.64677204 3.09587454 0 0 Z " fill="#C0C9DE" transform="translate(143,78)"/>
<path d="M0 0 C0.99 0.33 1.98 0.66 3 1 C2.45730469 1.67546875 1.91460937 2.3509375 1.35546875 3.046875 C0.64003906 3.93890625 -0.07539063 4.8309375 -0.8125 5.75 C-1.52019531 6.63171875 -2.22789062 7.5134375 -2.95703125 8.421875 C-4.67505002 10.58992929 -6.35373976 12.77728901 -8 15 C-8.12375 14.360625 -8.2475 13.72125 -8.375 13.0625 C-8.58125 12.381875 -8.7875 11.70125 -9 11 C-9.66 10.67 -10.32 10.34 -11 10 C-9.625 8 -9.625 8 -8 6 C-7.34 6 -6.68 6 -6 6 C-6 5.34 -6 4.68 -6 4 C-3.1875 1.8125 -3.1875 1.8125 0 0 Z " fill="#C7D0E1" transform="translate(145,107)"/>
<path d="M0 0 C6.30596952 1.10938353 11.37529486 2.93197901 17 6 C16.01 7.485 16.01 7.485 15 9 C15 9.66 15 10.32 15 11 C12.03 10.505 12.03 10.505 9 10 C9 8.33333333 9 6.66666667 9 5 C7.88625 4.9175 6.7725 4.835 5.625 4.75 C4.42875 4.5025 3.2325 4.255 2 4 C0.7734375 1.953125 0.7734375 1.953125 0 0 Z " fill="#1D1549" transform="translate(143,21)"/>
<path d="M0 0 C1.32 0 2.64 0 4 0 C4 0.66 4 1.32 4 2 C6.97953359 1.85982174 9.95849304 1.71313658 12.9375 1.5625 C14.21270508 1.50352539 14.21270508 1.50352539 15.51367188 1.44335938 C16.32255859 1.40146484 17.13144531 1.35957031 17.96484375 1.31640625 C19.08814087 1.26141968 19.08814087 1.26141968 20.23413086 1.20532227 C22.02461326 1.18228937 22.02461326 1.18228937 23 0 C24.66617115 -0.04063832 26.33388095 -0.042721 28 0 C28 1.33333333 28 2.66666667 28 4 C23.56255461 4.05793591 19.12520611 4.09357467 14.6875 4.125 C13.42486328 4.14175781 12.16222656 4.15851563 10.86132812 4.17578125 C9.04858398 4.18544922 9.04858398 4.18544922 7.19921875 4.1953125 C6.08377686 4.20578613 4.96833496 4.21625977 3.8190918 4.22705078 C1 4 1 4 -2 2 C-1.34 2 -0.68 2 0 2 C0 1.34 0 0.68 0 0 Z " fill="#2B1E61" transform="translate(100,201)"/>
<path d="M0 0 C1.65 0 3.3 0 5 0 C5 2.64 5 5.28 5 8 C1.04 8 -2.92 8 -7 8 C-7 7.67 -7 7.34 -7 7 C-3.37 7 0.26 7 4 7 C2.99163938 5.76732652 2.99163938 5.76732652 0.93359375 5.90234375 C-0.30197266 5.91974609 -0.30197266 5.91974609 -1.5625 5.9375 C-2.80193359 5.95103516 -2.80193359 5.95103516 -4.06640625 5.96484375 C-5.02353516 5.98224609 -5.02353516 5.98224609 -6 6 C-5.67 4.68 -5.34 3.36 -5 2 C-3.35 2 -1.7 2 0 2 C0 1.34 0 0.68 0 0 Z " fill="#A0A8BB" transform="translate(145,46)"/>
<path d="M0 0 C0.99 0.33 1.98 0.66 3 1 C3 1.66 3 2.32 3 3 C2.01 3.495 2.01 3.495 1 4 C0.71125 4.99 0.4225 5.98 0.125 7 C-0.24625 7.99 -0.6175 8.98 -1 10 C-3.0625 10.75 -3.0625 10.75 -5 11 C-5.33 11.66 -5.66 12.32 -6 13 C-8 10 -8 10 -8 7 C-6.35546875 5.140625 -6.35546875 5.140625 -4.1875 3.25 C-3.47980469 2.61578125 -2.77210938 1.9815625 -2.04296875 1.328125 C-1.36878906 0.88984375 -0.69460937 0.4515625 0 0 Z " fill="#2F1A8E" transform="translate(168,175)"/>
<path d="M0 0 C2.475 0.495 2.475 0.495 5 1 C4.34 3.31 3.68 5.62 3 8 C3.66 8.66 4.32 9.32 5 10 C4.67028521 13.29714793 4.3773161 14.6226839 2 17 C-0.49118953 13.2632157 -0.2065226 11.25548181 -0.125 6.8125 C-0.10695312 5.54019531 -0.08890625 4.26789063 -0.0703125 2.95703125 C-0.04710937 1.98121094 -0.02390625 1.00539063 0 0 Z " fill="#19104B" transform="translate(178,86)"/>
<path d="M0 0 C1.21236328 0.02707031 1.21236328 0.02707031 2.44921875 0.0546875 C3.37154297 0.08949219 3.37154297 0.08949219 4.3125 0.125 C3.9825 1.445 3.6525 2.765 3.3125 4.125 C2.178125 4.104375 1.04375 4.08375 -0.125 4.0625 C-3.50325674 3.70922523 -3.50325674 3.70922523 -4.6875 5.125 C-4.75898199 6.47743917 -4.77149454 7.83334367 -4.75 9.1875 C-4.729375 10.486875 -4.70875 11.78625 -4.6875 13.125 C-5.6775 12.795 -6.6675 12.465 -7.6875 12.125 C-7.76840971 10.50081255 -7.82664995 8.87548255 -7.875 7.25 C-7.90980469 6.34507813 -7.94460937 5.44015625 -7.98046875 4.5078125 C-7.88378906 3.72148438 -7.78710938 2.93515625 -7.6875 2.125 C-4.48369983 -0.01086678 -3.66810033 -0.10632175 0 0 Z " fill="#6F5DC2" transform="translate(79.6875,63.875)"/>
<path d="M0 0 C0.66 0 1.32 0 2 0 C3.65102315 4.95306944 3.63299924 10.10100227 2 15 C1.67 15.66 1.34 16.32 1 17 C0.34 17 -0.32 17 -1 17 C-1.02709444 14.91673869 -1.04643873 12.83337559 -1.0625 10.75 C-1.07410156 9.58984375 -1.08570313 8.4296875 -1.09765625 7.234375 C-1.01782092 4.59022872 -0.78643778 2.50173909 0 0 Z " fill="#C6CEDE" transform="translate(53,120)"/>
<path d="M0 0 C1.88414642 3.19457351 2.23819737 5.51502629 2.1953125 9.203125 C2.18886719 10.1828125 2.18242187 11.1625 2.17578125 12.171875 C2.15902344 13.18765625 2.14226562 14.2034375 2.125 15.25 C2.11597656 16.28125 2.10695312 17.3125 2.09765625 18.375 C2.07412011 20.91690287 2.04124023 23.4583328 2 26 C1.67 26 1.34 26 1 26 C-1.61312108 17.5073565 -1.93586219 8.71137986 0 0 Z " fill="#1E1356" transform="translate(205,94)"/>
<path d="M0 0 C-1.21491388 4.0185613 -2.43221132 7.64212249 -5 11 C-6.32 11 -7.64 11 -9 11 C-8.875 7.75 -8.875 7.75 -8 4 C-3.17948718 0 -3.17948718 0 0 0 Z " fill="#D8DEEF" transform="translate(129,112)"/>
<path d="M0 0 C2 1 2 1 3 3 C2.34 3 1.68 3 1 3 C0.67 3.66 0.34 4.32 0 5 C-0.33 5.33 -0.66 5.66 -1 6 C-0.01 6 0.98 6 2 6 C2.33 5.34 2.66 4.68 3 4 C3 4.66 3 5.32 3 6 C3.66 6 4.32 6 5 6 C4.30058404 9.14737182 3.23921302 12.02588876 2 15 C1.01 14.67 0.02 14.34 -1 14 C-0.67 13.01 -0.34 12.02 0 11 C-0.804375 9.576875 -0.804375 9.576875 -1.625 8.125 C-2.07875 7.09375 -2.5325 6.0625 -3 5 C-1.6875 2.125 -1.6875 2.125 0 0 Z " fill="#2C2469" transform="translate(105,105)"/>
<path d="M0 0 C2 1 2 1 3.125 3.875 C4.02837619 7.10134354 4.51977578 8.96044843 3 12 C2.01 12 1.02 12 0 12 C-0.33 11.01 -0.66 10.02 -1 9 C-1.99 9.33 -2.98 9.66 -4 10 C-3.52449439 8.51965236 -3.04448784 7.04074979 -2.5625 5.5625 C-2.29566406 4.73878906 -2.02882813 3.91507812 -1.75390625 3.06640625 C-1 1 -1 1 0 0 Z " fill="#221A5F" transform="translate(102,111)"/>
<path d="M0 0 C1.65 1.32 3.3 2.64 5 4 C5.33 2.68 5.66 1.36 6 0 C6.99 0.33 7.98 0.66 9 1 C9.6875 3.0625 9.6875 3.0625 10 5 C3.5 8 3.5 8 -1 8 C-1.93065133 5.39417629 -2.14917407 4.35801776 -1.0625 1.75 C-0.711875 1.1725 -0.36125 0.595 0 0 Z " fill="#1D125B" transform="translate(85,102)"/>
<path d="M0 0 C3.63 0 7.26 0 11 0 C10.67 1.32 10.34 2.64 10 4 C5.66726186 4.92844389 2.33273814 4.92844389 -2 4 C-1.34 2.68 -0.68 1.36 0 0 Z " fill="#312185" transform="translate(146,192)"/>
<path d="M0 0 C-0.58107632 3.7602985 -1.65199496 6.53035032 -3.5625 9.8125 C-4.01753906 10.60269531 -4.47257812 11.39289063 -4.94140625 12.20703125 C-5.29074219 12.79871094 -5.64007813 13.39039062 -6 14 C-7.53125 12.15234375 -7.53125 12.15234375 -9 10 C-8.13305827 5.77365907 -4.7355719 0 0 0 Z " fill="#1E1F53" transform="translate(122,113)"/>
<path d="M0 0 C0.99 0.33 1.98 0.66 3 1 C2.50510384 4.66223158 1.94323463 6.66993926 -1 9 C-1.33 9 -1.66 9 -2 9 C-2.66 10.98 -3.32 12.96 -4 15 C-4.33 15 -4.66 15 -5 15 C-5.76681614 7.33183857 -5.76681614 7.33183857 -3.88671875 4.06640625 C-2.5 2.4375 -2.5 2.4375 0 0 Z " fill="#272363" transform="translate(92,110)"/>
<path d="M0 0 C3 1 3 1 5 4 C7.56282742 4.72965366 7.56282742 4.72965366 10 5 C9.67 5.99 9.34 6.98 9 8 C5.8125 8.875 5.8125 8.875 2 9 C-0.21299892 7.21974097 -1.38796831 5.39362281 -3 3 C-2.01 2.01 -1.02 1.02 0 0 Z M3 4 C4 6 4 6 4 6 Z " fill="#21194A" transform="translate(50,171)"/>
<path d="M0 0 C-0.66 1.32 -1.32 2.64 -2 4 C-2.33 3.34 -2.66 2.68 -3 2 C-3.99 2.33 -4.98 2.66 -6 3 C-6.91868822 5.51640687 -7.46150886 8.04244437 -8.05859375 10.65234375 C-9 13 -9 13 -11.09765625 14.31640625 C-12.03931641 14.65478516 -12.03931641 14.65478516 -13 15 C-11.68938409 10.76570244 -10.05643741 6.92592596 -8 3 C-8.66 3 -9.32 3 -10 3 C-10 2.34 -10 1.68 -10 1 C-6.78548731 -0.60725635 -3.56387464 -0.05748185 0 0 Z " fill="#D3D8EE" transform="translate(118,108)"/>
<path d="M0 0 C0 2.31 0 4.62 0 7 C-2.4375 6.625 -2.4375 6.625 -5 6 C-5.33 5.34 -5.66 4.68 -6 4 C-7.88764903 3.31527335 -7.88764903 3.31527335 -10.0625 2.875 C-10.79597656 2.70742188 -11.52945313 2.53984375 -12.28515625 2.3671875 C-12.85105469 2.24601562 -13.41695313 2.12484375 -14 2 C-14 1.67 -14 1.34 -14 1 C-9.23692563 0.04738513 -4.8333472 -0.08333357 0 0 Z " fill="#332476" transform="translate(112,16)"/>
<path d="M0 0 C0.66 0 1.32 0 2 0 C2 0.66 2 1.32 2 2 C2.99 2.33 3.98 2.66 5 3 C3.02 5.97 1.04 8.94 -1 12 C-3.79908133 9.20091867 -3.72362983 6.86918237 -4 3 C-3.34 2.34 -2.68 1.68 -2 1 C-1.67 1.33 -1.34 1.66 -1 2 C-0.67 1.34 -0.34 0.68 0 0 Z " fill="#221C61" transform="translate(131,113)"/>
<path d="M0 0 C5.94 0 11.88 0 18 0 C18 0.33 18 0.66 18 1 C16.741875 1.103125 15.48375 1.20625 14.1875 1.3125 C10.63812502 1.74140871 9.4204832 2.35947287 7 5 C3.8125 5.6875 3.8125 5.6875 1 6 C0.67 4.02 0.34 2.04 0 0 Z " fill="#E3EFF3" transform="translate(118,46)"/>
<path d="M0 0 C0.33 0 0.66 0 1 0 C-0.01470588 8.625 -0.01470588 8.625 -2 12 C-4.625 12.8125 -4.625 12.8125 -7 13 C-6.51020408 6.51020408 -6.51020408 6.51020408 -4.0625 4.0625 C-2 3 -2 3 0 3 C0 2.01 0 1.02 0 0 Z " fill="#DEE5F0" transform="translate(97,115)"/>
<path d="M0 0 C0.99945096 3.17186869 0.98583023 4.04870857 0 7.4375 C-1.02091791 11.07452004 -0.83961125 12.45497474 0 16 C-0.41635163 19.49735372 -1.0039193 21.00587894 -3 24 C-3.99 23.34 -4.98 22.68 -6 22 C-5.01 22 -4.02 22 -3 22 C-3 21.34 -3 20.68 -3 20 C-3.66 20 -4.32 20 -5 20 C-4.01627945 12.83289316 -2.62225463 6.72665318 0 0 Z " fill="#20105E" transform="translate(176,104)"/>
<path d="M0 0 C0.66 0 1.32 0 2 0 C2 0.66 2 1.32 2 2 C2.66 2 3.32 2 4 2 C4.84098656 6.01804691 5.05404945 9.01803543 4 13 C3.34 13 2.68 13 2 13 C1.93941406 12.31292969 1.87882812 11.62585938 1.81640625 10.91796875 C1.73261719 10.01691406 1.64882812 9.11585937 1.5625 8.1875 C1.48128906 7.29417969 1.40007812 6.40085937 1.31640625 5.48046875 C1.06510233 2.87256441 1.06510233 2.87256441 0 0 Z M1 13 C1 13.99 1 14.98 1 16 C-1 18 -1 18 -3.6015625 18.1953125 C-4.59929687 18.17210938 -5.59703125 18.14890625 -6.625 18.125 C-8.12933594 18.09792969 -8.12933594 18.09792969 -9.6640625 18.0703125 C-10.43492188 18.04710938 -11.20578125 18.02390625 -12 18 C-12 17.67 -12 17.34 -12 17 C-11.31292969 16.96261719 -10.62585938 16.92523438 -9.91796875 16.88671875 C-9.01691406 16.82097656 -8.11585937 16.75523438 -7.1875 16.6875 C-6.29417969 16.62949219 -5.40085937 16.57148437 -4.48046875 16.51171875 C-1.69396 15.93686419 -0.75864246 15.1793144 1 13 Z " fill="#5D4CAA" transform="translate(84,64)"/>
<path d="M0 0 C0.66 0.66 1.32 1.32 2 2 C3.32 1.67 4.64 1.34 6 1 C5.34 3.97 4.68 6.94 4 10 C2.68 9.67 1.36 9.34 0 9 C-0.99 9.33 -1.98 9.66 -3 10 C-2.01 6.7 -1.02 3.4 0 0 Z " fill="#C3CBDB" transform="translate(131,56)"/>
<path d="M0 0 C0.99 -0.33 1.98 -0.66 3 -1 C2.67 -0.01 2.34 0.98 2 2 C-1.35091771 2.75363052 -4.43109812 3.11979937 -7.86328125 3.09765625 C-9.19262695 3.09282227 -9.19262695 3.09282227 -10.54882812 3.08789062 C-11.46083984 3.07951172 -12.37285156 3.07113281 -13.3125 3.0625 C-14.24384766 3.05798828 -15.17519531 3.05347656 -16.13476562 3.04882812 C-18.42324373 3.03709234 -20.71158808 3.02067363 -23 3 C-23 2.67 -23 2.34 -23 2 C-18.545 1.505 -18.545 1.505 -14 1 C-14 0.67 -14 0.34 -14 0 C-8.99746348 -0.91883324 -5.00269595 -0.76964553 0 0 Z " fill="#180C59" transform="translate(139,42)"/>
<path d="M0 0 C0.33 0 0.66 0 1 0 C1.23170622 4.74997749 0.32104911 8.45889368 -1 13 C-1.16928543 15.79244045 -1.16928543 15.79244045 -1 18 C-1.99 18.33 -2.98 18.66 -4 19 C-5.29777404 13.88661484 -4.58091094 10.94949445 -2.5625 6.125 C-2.08941406 4.97257812 -1.61632812 3.82015625 -1.12890625 2.6328125 C-0.75636719 1.76398438 -0.38382813 0.89515625 0 0 Z " fill="#32247C" transform="translate(32,70)"/>
<path d="M0 0 C0.84062397 3.09773244 1.08935201 5.78332751 1 9 C-1.97 9 -4.94 9 -8 9 C-8 8.01 -8 7.02 -8 6 C-6.25 4.39453125 -6.25 4.39453125 -4 2.8125 C-3.2575 2.28269531 -2.515 1.75289062 -1.75 1.20703125 C-1.1725 0.80871094 -0.595 0.41039062 0 0 Z " fill="#342380" transform="translate(159,167)"/>
<path d="M0 0 C0.99 0 1.98 0 3 0 C2.5317879 4.77576339 1.75668002 8.04476345 -1 12 C-1.99 11.01 -2.98 10.02 -4 9 C-3.52418802 7.68628013 -3.04424851 6.37405454 -2.5625 5.0625 C-2.29566406 4.33160156 -2.02882812 3.60070312 -1.75390625 2.84765625 C-1 1 -1 1 0 0 Z " fill="#C2CAD7" transform="translate(172,105)"/>
<path d="M0 0 C2.31 0.33 4.62 0.66 7 1 C6.6875 3.875 6.6875 3.875 6 7 C5.01 7.66 4.02 8.32 3 9 C2.34 8.67 1.68 8.34 1 8 C0.40644386 5.35139573 0.25790731 2.70802678 0 0 Z " fill="#8B7CD2" transform="translate(149,154)"/>
<path d="M0 0 C1.32 0.33 2.64 0.66 4 1 C3.00956295 5.83628305 2.04301154 10.47618873 0 15 C-2 12 -2 12 -2 10 C-2.66 10 -3.32 10 -4 10 C-3.67 8.35 -3.34 6.7 -3 5 C-2.67 5.66 -2.34 6.32 -2 7 C-1.34 6.67 -0.68 6.34 0 6 C0 4.02 0 2.04 0 0 Z " fill="#1A1254" transform="translate(123,65)"/>
<path d="M0 0 C1.67542976 0.28604898 3.34385343 0.61781233 5 1 C5.125 3.375 5.125 3.375 5 6 C4.34 6.66 3.68 7.32 3 8 C1.68 8 0.36 8 -1 8 C-1.04241723 5.66705225 -1.04092937 3.33297433 -1 1 C-0.67 0.67 -0.34 0.34 0 0 Z " fill="#8C7ADC" transform="translate(77,68)"/>
<path d="M0 0 C1.52299523 2.93720508 2.80100302 5.9168649 4 9 C3.38125 9.144375 2.7625 9.28875 2.125 9.4375 C-0.03258322 9.93152225 -0.03258322 9.93152225 -2 11 C-2 10.01 -2 9.02 -2 8 C-4.31 8 -6.62 8 -9 8 C-8.67 7.34 -8.34 6.68 -8 6 C-6.35 6 -4.7 6 -3 6 C-2.01 4.02 -1.02 2.04 0 0 Z " fill="#2F276C" transform="translate(107,130)"/>
<path d="M0 0 C0.99 0.33 1.98 0.66 3 1 C2.5047783 4.66464055 1.9791794 6.70832354 -1 9 C-1.99 9.33 -2.98 9.66 -4 10 C-4.25 7.25 -4.25 7.25 -4 4 C-2 1.625 -2 1.625 0 0 Z " fill="#DAE2EF" transform="translate(145,122)"/>
<path d="M0 0 C-0.61538462 6.52307692 -0.61538462 6.52307692 -2.5625 8.9375 C-3.036875 9.288125 -3.51125 9.63875 -4 10 C-4.99 9.34 -5.98 8.68 -7 8 C-6.44414399 4.1090079 -4.34122117 0 0 0 Z " fill="#1B1953" transform="translate(148,110)"/>
<path d="M0 0 C1.67542976 0.28604898 3.34385343 0.61781233 5 1 C4.979375 1.78375 4.95875 2.5675 4.9375 3.375 C4.81315937 5.98114961 4.81315937 5.98114961 6 8 C4.02 8.33 2.04 8.66 0 9 C-0.87890625 2.84765625 -0.87890625 2.84765625 -1 1 C-0.67 0.67 -0.34 0.34 0 0 Z " fill="#2B1A79" transform="translate(97,55)"/>
<path d="M0 0 C0.33 0 0.66 0 1 0 C1.12375 1.11375 1.2475 2.2275 1.375 3.375 C1.6465813 7.03103677 1.6465813 7.03103677 4 9 C4.69748583 10.31747324 5.36959957 11.64914193 6 13 C4.68 13 3.36 13 2 13 C1.67 13.66 1.34 14.32 1 15 C-0.89213369 12.61426621 -2.02391783 10.92824652 -3 8 C-2.34 7.67 -1.68 7.34 -1 7 C-0.59270772 4.67843403 -0.25561323 2.3431213 0 0 Z " fill="#352B73" transform="translate(75,129)"/>
<path d="M0 0 C0.33 0 0.66 0 1 0 C1.33 3.63 1.66 7.26 2 11 C4.31 11 6.62 11 9 11 C8.67 11.66 8.34 12.32 8 13 C5.27734375 13.4140625 5.27734375 13.4140625 1.9375 13.625 C0.83277344 13.69976562 -0.27195313 13.77453125 -1.41015625 13.8515625 C-2.26480469 13.90054688 -3.11945312 13.94953125 -4 14 C-3.5014663 11.85452459 -3.04117104 10.0771957 -2 8.125 C-0.74669887 5.4617351 -0.39583319 2.90277671 0 0 Z " fill="#B8C0D6" transform="translate(57,126)"/>
<path d="M0 0 C2.29633824 3.44450737 2.54016485 5.93812283 3 10 C2.01 10.33 1.02 10.66 0 11 C-0.33 10.34 -0.66 9.68 -1 9 C-1.99 9 -2.98 9 -4 9 C-4 6.69 -4 4.38 -4 2 C-3.01 2 -2.02 2 -1 2 C-0.67 1.34 -0.34 0.68 0 0 Z " fill="#D4E5EC" transform="translate(128,75)"/>
<path d="M0 0 C0 3.4448059 -0.71212977 5.81421574 -2 9 C-2.99 9.66 -3.98 10.32 -5 11 C-5 11.99 -5 12.98 -5 14 C-5 14.66 -5 15.32 -5 16 C-5.66 16 -6.32 16 -7 16 C-7 15.34 -7 14.68 -7 14 C-7.99 14 -8.98 14 -10 14 C-10 11 -10 11 -8.6875 9.375 C-7 8 -7 8 -4 7 C-3.67 5.02 -3.34 3.04 -3 1 C-2.01 0.67 -1.02 0.34 0 0 Z " fill="#2E1B85" transform="translate(179,168)"/>
<path d="M0 0 C0.66 0 1.32 0 2 0 C0.43542435 4.22435427 -2.343426 6.49058647 -6 9 C-8.875 8.8125 -8.875 8.8125 -11 8 C-11 6.68 -11 5.36 -11 4 C-10.443125 4.20625 -9.88625 4.4125 -9.3125 4.625 C-6.26735717 5.11880695 -4.70459759 4.42347241 -2 3 C-1.34 2.01 -0.68 1.02 0 0 Z " fill="#D2D2F7" transform="translate(123,129)"/>
<path d="M0 0 C0.33 0.66 0.66 1.32 1 2 C2.98 1.67 4.96 1.34 7 1 C6.46930939 4.82097239 5.50298434 7.06171403 3 10 C3 9.01 3 8.02 3 7 C2.34 6.67 1.68 6.34 1 6 C1.66 5.01 2.32 4.02 3 3 C2.34 3 1.68 3 1 3 C0.34 4.32 -0.32 5.64 -1 7 C-1.625 5.1875 -1.625 5.1875 -2 3 C-1.34 2.01 -0.68 1.02 0 0 Z " fill="#1B174F" transform="translate(95,126)"/>
<path d="M0 0 C2 3 2 3 1.875 6 C0.88530089 9.39325408 -0.00260244 10.25957561 -3 12 C-3.75 9.375 -3.75 9.375 -4 6 C-2.0625 2.625 -2.0625 2.625 0 0 Z " fill="#231960" transform="translate(109,82)"/>
<path d="M0 0 C0 0.99 0 1.98 0 3 C-2.90600261 4.25664978 -4.79604584 5 -8 5 C-8 4.34 -8 3.68 -8 3 C-8.99 2.67 -9.98 2.34 -11 2 C-7.374967 -1.625033 -4.81746234 -1.01907857 0 0 Z " fill="#3B2C86" transform="translate(80,27)"/>
<path d="M0 0 C0 0.66 0 1.32 0 2 C0.66 2.33 1.32 2.66 2 3 C-6.42857143 5.28571429 -6.42857143 5.28571429 -11 5 C-11.33 4.34 -11.66 3.68 -12 3 C-10.56445975 2.49440092 -9.1264798 1.9957251 -7.6875 1.5 C-6.88699219 1.2215625 -6.08648437 0.943125 -5.26171875 0.65625 C-3 0 -3 0 0 0 Z " fill="#3F3084" transform="translate(96,18)"/>
<path d="M0 0 C1.14982602 4.09003859 1.11094256 8.03177051 1.0625 12.25 C1.05798828 12.99507812 1.05347656 13.74015625 1.04882812 14.5078125 C1.03709246 16.3385764 1.0191585 18.16929873 1 20 C0.34 19.67 -0.32 19.34 -1 19 C-1 15.37 -1 11.74 -1 8 C-1.99 8 -2.98 8 -4 8 C-4 6.02 -4 4.04 -4 2 C-3.01 2 -2.02 2 -1 2 C-0.67 1.34 -0.34 0.68 0 0 Z " fill="#130D50" transform="translate(52,120)"/>
<path d="M0 0 C0.33 0.99 0.66 1.98 1 3 C-0.32 3 -1.64 3 -3 3 C-3 3.66 -3 4.32 -3 5 C-4.63604196 6.37073786 -6.30678061 7.70055256 -8 9 C-9.0173873 9.98230498 -10.02596117 10.97469597 -11 12 C-10.55396127 6.94489444 -8.35299176 4.59833262 -5 1 C-3 0 -3 0 0 0 Z " fill="#EAEAFA" transform="translate(74,97)"/>
<path d="M0 0 C0.2475 0.61875 0.495 1.2375 0.75 1.875 C2.20628639 4.35068687 3.37812506 4.95125002 6 6 C5.67 6.99 5.34 7.98 5 9 C2.36 8.67 -0.28 8.34 -3 8 C-1.125 2.25 -1.125 2.25 0 0 Z " fill="#272062" transform="translate(150,120)"/>
<path d="M0 0 C0.66 0.33 1.32 0.66 2 1 C1.6875 3.375 1.6875 3.375 1 6 C0.01 6.66 -0.98 7.32 -2 8 C-2 8.99 -2 9.98 -2 11 C-2.99 11.33 -3.98 11.66 -5 12 C-5.68359375 10.265625 -5.68359375 10.265625 -6 8 C-4.78515625 5.859375 -4.78515625 5.859375 -3.0625 3.75 C-2.49660156 3.04359375 -1.93070313 2.3371875 -1.34765625 1.609375 C-0.90292969 1.07828125 -0.45820313 0.5471875 0 0 Z " fill="#271D62" transform="translate(171,116)"/>
<path d="M0 0 C0.99 0.33 1.98 0.66 3 1 C1.88096454 2.81618856 0.75458716 4.62785526 -0.375 6.4375 C-1.00148438 7.44683594 -1.62796875 8.45617187 -2.2734375 9.49609375 C-4 12 -4 12 -6 13 C-6.35281338 8.8029908 -5.64185432 6.93477927 -3 3.6875 C-2.443125 2.99011719 -1.88625 2.29273437 -1.3125 1.57421875 C-0.6628125 0.79498047 -0.6628125 0.79498047 0 0 Z " fill="#231F5D" transform="translate(83,110)"/>
<path d="M0 0 C0.74958984 0.00451172 1.49917969 0.00902344 2.27148438 0.01367188 C4.11852383 0.02543646 5.96552213 0.04337135 7.8125 0.0625 C7.8125 0.3925 7.8125 0.7225 7.8125 1.0625 C6.89726562 1.11148438 5.98203125 1.16046875 5.0390625 1.2109375 C3.85054687 1.28570312 2.66203125 1.36046875 1.4375 1.4375 C-0.33753906 1.54191406 -0.33753906 1.54191406 -2.1484375 1.6484375 C-5.29312319 1.76467346 -5.29312319 1.76467346 -7.1875 4.0625 C-7.8475 3.7325 -8.5075 3.4025 -9.1875 3.0625 C-9.5175 4.0525 -9.8475 5.0425 -10.1875 6.0625 C-10.1875 5.0725 -10.1875 4.0825 -10.1875 3.0625 C-11.8375 3.7225 -13.4875 4.3825 -15.1875 5.0625 C-10.42824769 -0.0249766 -6.71147426 -0.07620014 0 0 Z " fill="#BDBFD9" transform="translate(124.1875,44.9375)"/>
<path d="M0 0 C0 0.99 0 1.98 0 3 C-1.53125 4.38671875 -1.53125 4.38671875 -3.5 5.6875 C-4.47453125 6.34298828 -4.47453125 6.34298828 -5.46875 7.01171875 C-5.9740625 7.33785156 -6.479375 7.66398437 -7 8 C-7.66 6.02 -8.32 4.04 -9 2 C-5.86501708 0.14223235 -3.62528568 -0.20140476 0 0 Z " fill="#ECE8F0" transform="translate(60,33)"/>
<path d="M0 0 C-0.33 0.99 -0.66 1.98 -1 3 C-6.49889364 4.89617022 -10.34225575 5.17869672 -16 4 C-16 3.67 -16 3.34 -16 3 C-14.906875 2.690625 -13.81375 2.38125 -12.6875 2.0625 C-8.13313661 0.7502258 -4.75310299 -0.10562451 0 0 Z " fill="#322377" transform="translate(145,198)"/>
<path d="M0 0 C1.11375 0.556875 1.11375 0.556875 2.25 1.125 C-1.21008142 3.43172095 -3.67481479 3.60634006 -7.75 4.125 C-8.74 4.62 -8.74 4.62 -9.75 5.125 C-9.75 4.465 -9.75 3.805 -9.75 3.125 C-10.41 3.125 -11.07 3.125 -11.75 3.125 C-11.75 2.465 -11.75 1.805 -11.75 1.125 C-11.0075 1.16625 -10.265 1.2075 -9.5 1.25 C-6.76782991 1.33256896 -6.76782991 1.33256896 -4.75 0 C-2.75 -0.875 -2.75 -0.875 0 0 Z " fill="#1B1056" transform="translate(145.75,104.875)"/>
<path d="M0 0 C0.99 0.33 1.98 0.66 3 1 C2.6875 4.375 2.6875 4.375 2 8 C-1 10 -1 10 -4 10 C-2.8905928 6.51329166 -1.73662334 3.22515763 0 0 Z " fill="#271E62" transform="translate(113,72)"/>
<path d="M0 0 C0 0.99 0 1.98 0 3 C-1.03125 3.5775 -2.0625 4.155 -3.125 4.75 C-6.52656807 6.68979442 -9.76699717 8.79209563 -13 11 C-11.15309213 6.46668069 -7.99273431 3.19564058 -3.8125 0.6875 C-2 0 -2 0 0 0 Z " fill="#F7F8FD" transform="translate(114,48)"/>
<path d="M0 0 C1.46726798 3.81489674 0.43336419 6.29011622 -1 10 C-2.32 9.67 -3.64 9.34 -5 9 C-4.7452486 7.68428397 -4.47065859 6.37239624 -4.1875 5.0625 C-4.03667969 4.33160156 -3.88585937 3.60070312 -3.73046875 2.84765625 C-3.48941406 2.23792969 -3.24835938 1.62820312 -3 1 C-2.01 0.67 -1.02 0.34 0 0 Z " fill="#E1E4F4" transform="translate(154,135)"/>
<path d="M0 0 C0.66 0 1.32 0 2 0 C2 0.66 2 1.32 2 2 C2.99 2.33 3.98 2.66 5 3 C4.67 4.65 4.34 6.3 4 8 C3.34 8 2.68 8 2 8 C1.67 8.99 1.34 9.98 1 11 C0.34 11.66 -0.32 12.32 -1 13 C-0.67 10.69 -0.34 8.38 0 6 C0.66 6 1.32 6 2 6 C1.34 4.02 0.68 2.04 0 0 Z " fill="#1D1462" transform="translate(50,112)"/>
<path d="M0 0 C0.33 0.66 0.66 1.32 1 2 C1.66 2.33 2.32 2.66 3 3 C2.6875 4.9375 2.6875 4.9375 2 7 C-1.13349732 8.04449911 -1.98968256 7.93423645 -5 7 C-3.70700306 4.11562221 -2.34058637 2.12780579 0 0 Z " fill="#E3F0F6" transform="translate(103,78)"/>
<path d="M0 0 C0.16682272 4.92127034 0.24828052 8.50343896 -2 13 C-4 11 -4 11 -4.046875 8.65234375 C-3.94890625 7.75644531 -3.8509375 6.86054688 -3.75 5.9375 C-3.66234375 5.03902344 -3.5746875 4.14054688 -3.484375 3.21484375 C-3.32453125 2.48394531 -3.1646875 1.75304687 -3 1 C-1 0 -1 0 0 0 Z " fill="#3F317F" transform="translate(143,160)"/>
<path d="M0 0 C0.99 0.33 1.98 0.66 3 1 C3 1.66 3 2.32 3 3 C3.66 3.33 4.32 3.66 5 4 C3.75 6 3.75 6 2 8 C0.68 8 -0.64 8 -2 8 C-1.125 2.25 -1.125 2.25 0 0 Z " fill="#26255B" transform="translate(135,125)"/>
<path d="M0 0 C1 3 1 3 0.0625 5.1875 C-0.4634375 6.0846875 -0.4634375 6.0846875 -1 7 C-2.65 6.67 -4.3 6.34 -6 6 C-6 4.68 -6 3.36 -6 2 C-4.02 1.34 -2.04 0.68 0 0 Z " fill="#1A125E" transform="translate(157,118)"/>
<path d="M0 0 C0.99 0.33 1.98 0.66 3 1 C3.1875 4.375 3.1875 4.375 3 8 C2.01 8.66 1.02 9.32 0 10 C-0.66 9.67 -1.32 9.34 -2 9 C-1.125 1.125 -1.125 1.125 0 0 Z " fill="#2E1F6F" transform="translate(98,73)"/>
<path d="M0 0 C2 2 2 2 2 4 C2.33 4.66 2.66 5.32 3 6 C1.02 6.33 -0.96 6.66 -3 7 C-3.33 7.99 -3.66 8.98 -4 10 C-4.99 9.67 -5.98 9.34 -7 9 C-6.02180976 7.68677212 -5.0424189 6.37443848 -4.0625 5.0625 C-3.51722656 4.33160156 -2.97195312 3.60070312 -2.41015625 2.84765625 C-1 1 -1 1 0 0 Z " fill="#F3EFF6" transform="translate(187,170)"/>
<path d="M0 0 C0.33 0 0.66 0 1 0 C1.06058594 0.63808594 1.12117188 1.27617188 1.18359375 1.93359375 C1.26738281 2.75988281 1.35117187 3.58617187 1.4375 4.4375 C1.51871094 5.26121094 1.59992187 6.08492187 1.68359375 6.93359375 C1.78930815 8.98662025 1.78930815 8.98662025 3 10 C3.66 9.34 4.32 8.68 5 8 C5.66 8.66 6.32 9.32 7 10 C7.66 10.33 8.32 10.66 9 11 C5.77786243 13.14809171 4.72224599 13.29386153 1 13 C0 12 0 12 -0.09765625 9.27734375 C-0.08605469 8.17519531 -0.07445312 7.07304687 -0.0625 5.9375 C-0.05347656 4.83277344 -0.04445312 3.72804687 -0.03515625 2.58984375 C-0.02355469 1.73519531 -0.01195312 0.88054687 0 0 Z " fill="#111146" transform="translate(58,125)"/>
<path d="M0 0 C2.97 0.99 5.94 1.98 9 3 C9 3.33 9 3.66 9 4 C7.845 3.979375 6.69 3.95875 5.5 3.9375 C1.25649453 3.92992231 -2.80176644 4.40025235 -7 5 C-7 4.34 -7 3.68 -7 3 C-5.5459375 2.5359375 -5.5459375 2.5359375 -4.0625 2.0625 C-1.15934208 1.30476658 -1.15934208 1.30476658 0 0 Z " fill="#47359A" transform="translate(79,58)"/>
<path d="M0 0 C2.4375 1.375 2.4375 1.375 3.25 4 C3.311875 4.78375 3.37375 5.5675 3.4375 6.375 C0.18206771 6.02620368 -0.58123107 5.35366739 -2.8125 2.8125 C-3.67875 1.6059375 -3.67875 1.6059375 -4.5625 0.375 C-2.5625 -0.625 -2.5625 -0.625 0 0 Z " fill="#120C36" transform="translate(57.5625,178.625)"/>
<path d="M0 0 C0 3 0 3 -1.390625 4.640625 C-2.00421875 5.17171875 -2.6178125 5.7028125 -3.25 6.25 C-4.15492188 7.06210938 -4.15492188 7.06210938 -5.078125 7.890625 C-7 9 -7 9 -9.234375 8.671875 C-9.81703125 8.45015625 -10.3996875 8.2284375 -11 8 C-10.67 7.01 -10.34 6.02 -10 5 C-8.68 5 -7.36 5 -6 5 C-4.25331835 3.9448979 -4.25331835 3.9448979 -2.75 2.5 C-1.8425 1.675 -0.935 0.85 0 0 Z " fill="#504581" transform="translate(159,161)"/>
<path d="M0 0 C3 1 3 1 4.6875 4.0625 C5.120625 5.031875 5.55375 6.00125 6 7 C4.35 7.33 2.7 7.66 1 8 C-0.42944945 5.64561267 -1.08661261 4.51967567 -0.625 1.75 C-0.41875 1.1725 -0.2125 0.595 0 0 Z " fill="#221E5A" transform="translate(51,139)"/>
<path d="M0 0 C0.33 0 0.66 0 1 0 C1.33 7.26 1.66 14.52 2 22 C1.01 22 0.02 22 -1 22 C-0.67 14.74 -0.34 7.48 0 0 Z " fill="#C8C4DA" transform="translate(23,104)"/>
<path d="M0 0 C4.875 0.875 4.875 0.875 6 2 C6.04063832 3.66617115 6.042721 5.33388095 6 7 C5.01 7.495 5.01 7.495 4 8 C3.34 6.35 2.68 4.7 2 3 C1.01 3.33 0.02 3.66 -1 4 C-0.67 2.68 -0.34 1.36 0 0 Z " fill="#211B59" transform="translate(71,100)"/>
<path d="M0 0 C0.33 0 0.66 0 1 0 C0.67 3.63 0.34 7.26 0 11 C-1.32 10.67 -2.64 10.34 -4 10 C-3.52371389 5.8086822 -2.89509268 3.13635041 0 0 Z " fill="#BCC1D6" transform="translate(176,95)"/>
<path d="M0 0 C5.41538462 -0.36923077 5.41538462 -0.36923077 8.375 1.5 C8.91125 1.995 9.4475 2.49 10 3 C3.71428571 5.42857143 3.71428571 5.42857143 0 4 C0 2.68 0 1.36 0 0 Z " fill="#231852" transform="translate(132,18)"/>
<path d="M0 0 C0.66 0.99 1.32 1.98 2 3 C0.35 5.31 -1.3 7.62 -3 10 C-3.66 9.67 -4.32 9.34 -5 9 C-5 7.35 -5 5.7 -5 4 C-3.35 3.34 -1.7 2.68 0 2 C0 1.34 0 0.68 0 0 Z " fill="#392887" transform="translate(190,161)"/>
<path d="M0 0 C2 3 2 3 2 5 C2.99 5 3.98 5 5 5 C4.67 6.65 4.34 8.3 4 10 C3.01 9.34 2.02 8.68 1 8 C0.01 8.66 -0.98 9.32 -2 10 C-1.54177532 6.53058454 -1.10868317 3.32604951 0 0 Z " fill="#392E78" transform="translate(155,136)"/>
<path d="M0 0 C0.66 0.33 1.32 0.66 2 1 C2.625 3.0625 2.625 3.0625 3 5 C2.67 4.34 2.34 3.68 2 3 C0.87411986 3.95729916 -0.2506715 4.91587895 -1.375 5.875 C-2.00148438 6.40867187 -2.62796875 6.94234375 -3.2734375 7.4921875 C-4.55836651 8.61432007 -5.79371975 9.79371975 -7 11 C-7 7 -7 7 -4.625 4.375 C-3.75875 3.59125 -2.8925 2.8075 -2 2 C-1.34 1.34 -0.68 0.68 0 0 Z " fill="#ACAFD0" transform="translate(120,110)"/>
<path d="M0 0 C3.33193619 2.69728168 4.60371996 6.02060187 6 10 C5.6875 12.4375 5.6875 12.4375 5 14 C4.54625 13.05125 4.0925 12.1025 3.625 11.125 C2.19761746 7.99686321 2.19761746 7.99686321 0 6 C-0.125 2.875 -0.125 2.875 0 0 Z " fill="#201B3B" transform="translate(195,64)"/>
<path d="M0 0 C-1.05875074 3.40312738 -2.00902154 6.01353231 -4 9 C-4.99 9 -5.98 9 -7 9 C-6.37315423 6.07471973 -5.51695295 3.58774327 -4 1 C-2 0 -2 0 0 0 Z " fill="#382A81" transform="translate(199,150)"/>
<path d="M0 0 C0.33 0.66 0.66 1.32 1 2 C0.67 2.99 0.34 3.98 0 5 C-0.66 5 -1.32 5 -2 5 C-2.33 7.64 -2.66 10.28 -3 13 C-3.66 13 -4.32 13 -5 13 C-4.64989059 4.80743982 -4.64989059 4.80743982 -1.9375 1.4375 C-1.298125 0.963125 -0.65875 0.48875 0 0 Z " fill="#3E2F85" transform="translate(144,147)"/>
<path d="M0 0 C0.99 0 1.98 0 3 0 C4.125 5.75 4.125 5.75 3 8 C1.68 7.67 0.36 7.34 -1 7 C-1 4.37886292 -0.68707555 2.49064888 0 0 Z " fill="#191355" transform="translate(162,96)"/>
<path d="M0 0 C0.66 0 1.32 0 2 0 C1.54663921 4.87362847 0.2910841 7.39042389 -3 11 C-3.75 8.875 -3.75 8.875 -4 6 C-2.1875 2.6875 -2.1875 2.6875 0 0 Z " fill="#B8BADF" transform="translate(143,78)"/>
<path d="M0 0 C0.99 0 1.98 0 3 0 C4.25664978 2.90600261 5 4.79604584 5 8 C4.01 8 3.02 8 2 8 C0.25 5.6875 0.25 5.6875 -1 3 C-0.67 2.01 -0.34 1.02 0 0 Z " fill="#382680" transform="translate(89,78)"/>
<path d="M0 0 C0.33 0 0.66 0 1 0 C1.23827469 2.85929624 1.43309153 5.19827208 1 8 C-1.25 10.5 -1.25 10.5 -4 12 C-5.32 12 -6.64 12 -8 12 C-8.33 11.01 -8.66 10.02 -9 9 C-7.865625 8.855625 -6.73125 8.71125 -5.5625 8.5625 C-2.19222799 8.38828522 -2.19222799 8.38828522 -1 7 C-0.63239269 4.67182036 -0.29758419 2.3381615 0 0 Z " fill="#7362C0" transform="translate(84,68)"/>
<path d="M0 0 C0.33 1.32 0.66 2.64 1 4 C0.34 4 -0.32 4 -1 4 C-0.67 4.66 -0.34 5.32 0 6 C0.039992 7.99960012 0.04346799 10.00047242 0 12 C-2 9 -2 9 -2 6 C-2.66 6 -3.32 6 -4 6 C-4.33 4.68 -4.66 3.36 -5 2 C-4.360625 1.855625 -3.72125 1.71125 -3.0625 1.5625 C-1.02454854 1.18992819 -1.02454854 1.18992819 0 0 Z " fill="#1C0E5A" transform="translate(142,57)"/>
<path d="M0 0 C2 1 2 1 3.125 3.25 C4.00513321 6.01613295 4.1645438 8.12048351 4 11 C3.01 11.495 3.01 11.495 2 12 C0.40861915 7.82262526 -0.21278058 4.46839215 0 0 Z " fill="#221A4D" transform="translate(27,132)"/>
<path d="M0 0 C0.103125 0.639375 0.20625 1.27875 0.3125 1.9375 C0.539375 2.618125 0.76625 3.29875 1 4 C1.99 4.33 2.98 4.66 4 5 C3.01 6.32 2.02 7.64 1 9 C0.67 7.68 0.34 6.36 0 5 C-0.66 5 -1.32 5 -2 5 C-2 4.34 -2 3.68 -2 3 C-2.66 3 -3.32 3 -4 3 C-3 1 -3 1 0 0 Z " fill="#2A236A" transform="translate(101,119)"/>
<path d="M0 0 C0.66 0.66 1.32 1.32 2 2 C1.74739753 5.78903708 -0.27849443 7.54186593 -3 10 C-2.25 3.375 -2.25 3.375 0 0 Z " fill="#D6DAF1" transform="translate(168,114)"/>
<path d="M0 0 C2.37590142 3.70416126 2.20500286 6.92984573 2.125 11.25 C2.10695312 12.51328125 2.08890625 13.7765625 2.0703125 15.078125 C2.03550781 16.52445313 2.03550781 16.52445313 2 18 C1.67 18 1.34 18 1 18 C0.855625 16.7625 0.71125 15.525 0.5625 14.25 C0.29387326 12.03090955 0.00637311 10.02166856 -0.625 7.875 C-1.17556366 5.12218172 -0.55650393 2.72068589 0 0 Z " fill="#180F46" transform="translate(205,94)"/>
<path d="M0 0 C1.61949011 2.57213134 2.04408751 3.67669159 1.625 6.75 C1.41875 7.4925 1.2125 8.235 1 9 C0.01 9 -0.98 9 -2 9 C-2.6875 6.1875 -2.6875 6.1875 -3 3 C-1.5625 1.125 -1.5625 1.125 0 0 Z " fill="#180E4F" transform="translate(141,73)"/>
<path d="M0 0 C0.07427838 3.34252724 0.06546953 5.8035914 -1 9 C-1.66 9 -2.32 9 -3 9 C-3.185625 8.071875 -3.185625 8.071875 -3.375 7.125 C-3.87197356 4.80879168 -3.87197356 4.80879168 -6 3 C-1.125 0 -1.125 0 0 0 Z " fill="#170D4B" transform="translate(64,176)"/>
<path d="M0 0 C0.66 0.99 1.32 1.98 2 3 C5.08365871 3.2502157 5.08365871 3.2502157 8 3 C8 3.99 8 4.98 8 6 C5.8125 6.8125 5.8125 6.8125 3 7 C0.1875 4.5625 0.1875 4.5625 -2 2 C-1.34 1.34 -0.68 0.68 0 0 Z " fill="#15114E" transform="translate(137,134)"/>
<path d="M0 0 C-0.33 1.32 -0.66 2.64 -1 4 C-1.66 3.34 -2.32 2.68 -3 2 C-3.33 2.99 -3.66 3.98 -4 5 C-7 3 -7 3 -8 0 C-4.71023192 -1.09658936 -3.28696233 -0.79953138 0 0 Z " fill="#1A0D56" transform="translate(92,139)"/>
<path d="M0 0 C1.32 0.66 2.64 1.32 4 2 C3.34 3.98 2.68 5.96 2 8 C1.01 8 0.02 8 -1 8 C-0.67 5.36 -0.34 2.72 0 0 Z " fill="#25255C" transform="translate(82,125)"/>
<path d="M0 0 C2.31 0 4.62 0 7 0 C7 1.32 7 2.64 7 4 C5.68 3.34 4.36 2.68 3 2 C1.68 2.99 0.36 3.98 -1 5 C-0.67 3.35 -0.34 1.7 0 0 Z " fill="#1A1750" transform="translate(146,128)"/>
<path d="M0 0 C0.66 0.33 1.32 0.66 2 1 C1.34 3.64 0.68 6.28 0 9 C-1.32 8.67 -2.64 8.34 -4 8 C-2.68 5.36 -1.36 2.72 0 0 Z " fill="#CCCCEC" transform="translate(164,106)"/>
<path d="M0 0 C0.86625 0.556875 0.86625 0.556875 1.75 1.125 C-1.22 3.6 -1.22 3.6 -4.25 6.125 C-4.25 5.135 -4.25 4.145 -4.25 3.125 C-5.24 3.62 -5.24 3.62 -6.25 4.125 C-6.25 3.135 -6.25 2.145 -6.25 1.125 C-2.80384615 -1.09038462 -2.80384615 -1.09038462 0 0 Z " fill="#1E115D" transform="translate(65.25,98.875)"/>
<path d="M0 0 C1 3 1 3 1 6 C-2.96 7.98 -2.96 7.98 -7 10 C-7 9.01 -7 8.02 -7 7 C-5.36739286 5.62517293 -3.69774938 4.29352333 -2 3 C-1.34 2.01 -0.68 1.02 0 0 Z " fill="#151348" transform="translate(142,86)"/>
<path d="M0 0 C3.63 0 7.26 0 11 0 C8.1709277 2.8290723 7.61855575 3.37611108 4 4 C4 3.34 4 2.68 4 2 C2.68 1.67 1.36 1.34 0 1 C0 0.67 0 0.34 0 0 Z " fill="#4C3B99" transform="translate(72,82)"/>
<path d="M0 0 C0.66 0.33 1.32 0.66 2 1 C0.35 3.64 -1.3 6.28 -3 9 C-3.66 8.67 -4.32 8.34 -5 8 C-4.67 6.35 -4.34 4.7 -4 3 C-2.68 2.67 -1.36 2.34 0 2 C0 1.34 0 0.68 0 0 Z " fill="#1B1958" transform="translate(105,71)"/>
<path d="M0 0 C0.33 2.31 0.66 4.62 1 7 C-0.32 7.33 -1.64 7.66 -3 8 C-4.03864166 4.88407501 -4.09036928 3.9737344 -3 1 C-1 0 -1 0 0 0 Z " fill="#E1EEF1" transform="translate(113,65)"/>
<path d="M0 0 C0.66 0.33 1.32 0.66 2 1 C2 3 2 5 2 7 C1.01 7 0.02 7 -1 7 C-1.33 7.99 -1.66 8.98 -2 10 C-2.79953138 6.71303767 -3.09658936 5.28976808 -2 2 C-1.34 2 -0.68 2 0 2 C0 1.34 0 0.68 0 0 Z " fill="#CED9E3" transform="translate(135,50)"/>
<path d="M0 0 C0.99 0.33 1.98 0.66 3 1 C2.875 2.8125 2.875 2.8125 2 5 C-0.9375 6.8125 -0.9375 6.8125 -4 8 C-4.66 7.67 -5.32 7.34 -6 7 C-4.02 4.69 -2.04 2.38 0 0 Z " fill="#3D2C88" transform="translate(50,43)"/>
<path d="M0 0 C0.33 0.66 0.66 1.32 1 2 C2.32 1.67 3.64 1.34 5 1 C3.74874616 4.75376152 2.4347596 5.24073289 -1 7 C-1.66 7 -2.32 7 -3 7 C-1.125 1.125 -1.125 1.125 0 0 Z " fill="#34257D" transform="translate(161,187)"/>
<path d="M0 0 C0.33 0 0.66 0 1 0 C1 1.98 1 3.96 1 6 C0.34 6 -0.32 6 -1 6 C-1.33 7.65 -1.66 9.3 -2 11 C-2.33 10.34 -2.66 9.68 -3 9 C-3.66 8.67 -4.32 8.34 -5 8 C-4.19185349 6.66402348 -3.37836819 5.331275 -2.5625 4 C-2.11003906 3.2575 -1.65757812 2.515 -1.19140625 1.75 C-0.79824219 1.1725 -0.40507812 0.595 0 0 Z " fill="#33266F" transform="translate(168,154)"/>
<path d="M0 0 C2.31 0 4.62 0 7 0 C7.33 1.65 7.66 3.3 8 5 C7.01 5.33 6.02 5.66 5 6 C3.35 4.02 1.7 2.04 0 0 Z " fill="#36287A" transform="translate(141,141)"/>
<path d="M0 0 C-1.485 1.98 -1.485 1.98 -3 4 C-2.01 4.66 -1.02 5.32 0 6 C-0.99 6.495 -0.99 6.495 -2 7 C-4.125 6.0625 -4.125 6.0625 -6 5 C-6 4.34 -6 3.68 -6 3 C-6.66 2.34 -7.32 1.68 -8 1 C-5.29120665 -0.35439668 -2.99066732 -0.06501451 0 0 Z " fill="#D0DFE8" transform="translate(65,139)"/>
<path d="M0 0 C0.33 0 0.66 0 1 0 C1 1.65 1 3.3 1 5 C1.99 5.33 2.98 5.66 4 6 C3.67 7.32 3.34 8.64 3 10 C1.35 9.67 -0.3 9.34 -2 9 C-1.34 6.03 -0.68 3.06 0 0 Z " fill="#3B2B7B" transform="translate(80,99)"/>
<path d="M0 0 C-5.14285714 5.57142857 -5.14285714 5.57142857 -9 6 C-9.33 5.01 -9.66 4.02 -10 3 C-3.375 -1.125 -3.375 -1.125 0 0 Z " fill="#402F8A" transform="translate(88,82)"/>
<path d="M0 0 C0.99 1.32 1.98 2.64 3 4 C2.34 4.66 1.68 5.32 1 6 C-0.98 5.34 -2.96 4.68 -5 4 C-3.35 2.68 -1.7 1.36 0 0 Z " fill="#27255B" transform="translate(85,134)"/>
<path d="M0 0 C1.65 0 3.3 0 5 0 C4.40138258 2.35171131 3.73075648 4.6859378 3 7 C2.01 7.495 2.01 7.495 1 8 C0.67 5.36 0.34 2.72 0 0 Z " fill="#C1C3E5" transform="translate(151,108)"/>
<path d="M0 0 C0.33 0 0.66 0 1 0 C1.66 2.97 2.32 5.94 3 9 C1.68 9 0.36 9 -1 9 C-1.09765625 2.84765625 -1.09765625 2.84765625 -1 1 C-0.67 0.67 -0.34 0.34 0 0 Z " fill="#1F1F51" transform="translate(132,75)"/>
<path d="M0 0 C0.97687451 3.03916514 1.105817 4.98413546 0 8 C-0.66 8.66 -1.32 9.32 -2 10 C-3 9 -3 9 -3.25 6.6875 C-2.95899829 3.55923162 -2.05619793 2.31322267 0 0 Z " fill="#CDD8E7" transform="translate(129,65)"/>
<path d="M0 0 C0.66 0.33 1.32 0.66 2 1 C0.35 4.3 -1.3 7.6 -3 11 C-3.66 9.68 -4.32 8.36 -5 7 C-3.35 4.69 -1.7 2.38 0 0 Z " fill="#E9E3F6" transform="translate(36,59)"/>
<path d="M0 0 C0.33 0 0.66 0 1 0 C1 2.64 1 5.28 1 8 C1.99 8.33 2.98 8.66 4 9 C2.02 9.33 0.04 9.66 -2 10 C-1.125 2.25 -1.125 2.25 0 0 Z " fill="#776AB0" transform="translate(149,158)"/>
<path d="M0 0 C1.32 0.66 2.64 1.32 4 2 C2.52307692 8.64615385 2.52307692 8.64615385 -0.125 10.4375 C-0.74375 10.623125 -1.3625 10.80875 -2 11 C-1.67 10.29875 -1.34 9.5975 -1 8.875 C0.09044562 5.73996884 0.15322643 3.29436818 0 0 Z " fill="#6354B0" transform="translate(158,152)"/>
<path d="M0 0 C-0.99 0.33 -1.98 0.66 -3 1 C-3.73323796 3.01508358 -3.73323796 3.01508358 -4 5 C-6.475 4.01 -6.475 4.01 -9 3 C-9 2.34 -9 1.68 -9 1 C-3.375 -1.125 -3.375 -1.125 0 0 Z " fill="#130D4F" transform="translate(67,147)"/>
<path d="M0 0 C0.66 0.99 1.32 1.98 2 3 C2.99 3.33 3.98 3.66 5 4 C4.67 5.32 4.34 6.64 4 8 C2.0625 7.3125 2.0625 7.3125 0 6 C-0.8125 3.4375 -0.8125 3.4375 -1 1 C-0.67 0.67 -0.34 0.34 0 0 Z " fill="#1D1157" transform="translate(71,136)"/>
<path d="M0 0 C-1.75 5.75 -1.75 5.75 -4 8 C-4.66 6.02 -5.32 4.04 -6 2 C-2.25 0 -2.25 0 0 0 Z " fill="#181450" transform="translate(119,119)"/>
<path d="M0 0 C1.29887873 4.19141717 0.42963299 6.8615887 -1 11 C-1.66 11.99 -2.32 12.98 -3 14 C-4.37095624 10.30962722 -3.60010967 8.29116165 -2.0625 4.75 C-1.68222656 3.85796875 -1.30195313 2.9659375 -0.91015625 2.046875 C-0.60980469 1.37140625 -0.30945313 0.6959375 0 0 Z " fill="#201C51" transform="translate(176,104)"/>
<path d="M0 0 C0.99 0.33 1.98 0.66 3 1 C1.35 2.65 -0.3 4.3 -2 6 C-3.32 5.34 -4.64 4.68 -6 4 C-3.1875 1.9375 -3.1875 1.9375 0 0 Z " fill="#C1BFE1" transform="translate(145,107)"/>
<path d="M0 0 C0.66 0.33 1.32 0.66 2 1 C1.125 5.75 1.125 5.75 0 8 C-0.99 7.67 -1.98 7.34 -3 7 C-1.125 1.125 -1.125 1.125 0 0 Z " fill="#C0C2DB" transform="translate(167,99)"/>
<path d="M0 0 C0.33 0 0.66 0 1 0 C1.23509196 4.81938524 0.45184478 8.46298506 -1 13 C-2.53690745 10.58959839 -3.09752136 9.49917715 -2.5390625 6.640625 C-2.23742187 5.85171875 -1.93578125 5.0628125 -1.625 4.25 C-1.32851563 3.45078125 -1.03203125 2.6515625 -0.7265625 1.828125 C-0.48679687 1.22484375 -0.24703125 0.6215625 0 0 Z " fill="#3A2D7E" transform="translate(32,70)"/>
<path d="M0 0 C3.3 0 6.6 0 10 0 C9.34 1.65 8.68 3.3 8 5 C7.236875 4.505 6.47375 4.01 5.6875 3.5 C3.07636249 1.75631692 3.07636249 1.75631692 0 2 C0 1.34 0 0.68 0 0 Z " fill="#1E1D4B" transform="translate(123,53)"/>
<path d="M0 0 C0.66 0.99 1.32 1.98 2 3 C-1.4352048 5.29013653 -2.985331 5.17842973 -7 5 C-7 4.34 -7 3.68 -7 3 C-6.34 3 -5.68 3 -5 3 C-4.67 2.34 -4.34 1.68 -4 1 C-2.68 1.33 -1.36 1.66 0 2 C0 1.34 0 0.68 0 0 Z " fill="#1C1151" transform="translate(150,40)"/>
<path d="M0 0 C0.33 0.66 0.66 1.32 1 2 C1.66 2.33 2.32 2.66 3 3 C0.64046906 5.35953094 -0.77895617 5.49141413 -4 6 C-4 5.01 -4 4.02 -4 3 C-2 1.3125 -2 1.3125 0 0 Z " fill="#EEEAF4" transform="translate(172,185)"/>
<path d="M0 0 C0.99 0 1.98 0 3 0 C2.67 2.31 2.34 4.62 2 7 C1.01 6.67 0.02 6.34 -1 6 C-1.042721 4.33388095 -1.04063832 2.66617115 -1 1 C-0.67 0.67 -0.34 0.34 0 0 Z " fill="#C8CFE3" transform="translate(172,105)"/>
<path d="M0 0 C0 1.65 0 3.3 0 5 C-0.639375 5.12375 -1.27875 5.2475 -1.9375 5.375 C-2.9584375 5.684375 -2.9584375 5.684375 -4 6 C-4.33 6.66 -4.66 7.32 -5 8 C-4.6875 5.125 -4.6875 5.125 -4 2 C-1 0 -1 0 0 0 Z " fill="#2B2166" transform="translate(134,104)"/>
<path d="M0 0 C0.33 0.66 0.66 1.32 1 2 C-1.475 3.485 -1.475 3.485 -4 5 C-4.12375 4.360625 -4.2475 3.72125 -4.375 3.0625 C-4.684375 2.0415625 -4.684375 2.0415625 -5 1 C-5.66 0.67 -6.32 0.34 -7 0 C-4.30234372 -1.34882814 -2.84835666 -0.80338265 0 0 Z " fill="#D2D6EB" transform="translate(79,96)"/>
<path d="M0 0 C1.98 0.66 3.96 1.32 6 2 C4.02 2.99 4.02 2.99 2 4 C2 4.99 2 5.98 2 7 C1.34 7 0.68 7 0 7 C-0.38133299 5.0085944 -0.71325582 3.00720923 -1 1 C-0.67 0.67 -0.34 0.34 0 0 Z " fill="#2B1876" transform="translate(57,96)"/>
<path d="M0 0 C0.99 0.33 1.98 0.66 3 1 C1.515 6.445 1.515 6.445 0 12 C-0.33 12 -0.66 12 -1 12 C-1.02698189 10.37509046 -1.04638757 8.75005367 -1.0625 7.125 C-1.07410156 6.22007813 -1.08570312 5.31515625 -1.09765625 4.3828125 C-1 2 -1 2 0 0 Z " fill="#48359F" transform="translate(68,64)"/>
<path d="M0 0 C1.65 1.65 3.3 3.3 5 5 C4.67 5.99 4.34 6.98 4 8 C3.01 8 2.02 8 1 8 C-0.35439668 5.29120665 -0.06501451 2.99066732 0 0 Z " fill="#312272" transform="translate(142,168)"/>
<path d="M0 0 C1.98 0.99 3.96 1.98 6 3 C5.67 4.32 5.34 5.64 5 7 C4.01 6.67 3.02 6.34 2 6 C2 5.34 2 4.68 2 4 C1.34 4 0.68 4 0 4 C0 2.68 0 1.36 0 0 Z " fill="#574B99" transform="translate(152,145)"/>
<path d="M0 0 C2.125 0.9375 2.125 0.9375 4 2 C3.67 3.98 3.34 5.96 3 8 C2.34 7.67 1.68 7.34 1 7 C0.65657551 5.66923011 0.32380126 4.33568021 0 3 C-0.66 2.34 -1.32 1.68 -2 1 C-1.34 0.67 -0.68 0.34 0 0 Z " fill="#2E2171" transform="translate(134,136)"/>
<path d="M0 0 C0.99 0 1.98 0 3 0 C3.05399736 1.45792884 3.09279177 2.91642712 3.125 4.375 C3.14820313 5.18710938 3.17140625 5.99921875 3.1953125 6.8359375 C3 9 3 9 1 11 C0.67 7.37 0.34 3.74 0 0 Z " fill="#1E1360" transform="translate(48,128)"/>
<path d="M0 0 C0.33 0.66 0.66 1.32 1 2 C1.99 1.67 2.98 1.34 4 1 C4 3.64 4 6.28 4 9 C1.47740939 7.02579865 1.0070192 6.03254358 0.3125 2.8125 C0.209375 1.884375 0.10625 0.95625 0 0 Z " fill="#291C72" transform="translate(58,122)"/>
<path d="M0 0 C1.65 0.99 3.3 1.98 5 3 C4.34 4.65 3.68 6.3 3 8 C1.10786631 5.61426621 -0.02391783 3.92824652 -1 1 C-0.67 0.67 -0.34 0.34 0 0 Z " fill="#261E68" transform="translate(140,117)"/>
<path d="M0 0 C0.99 0.33 1.98 0.66 3 1 C3 2.65 3 4.3 3 6 C1.68 6 0.36 6 -1 6 C-1.042721 4.33388095 -1.04063832 2.66617115 -1 1 C-0.67 0.67 -0.34 0.34 0 0 Z " fill="#E2EBF6" transform="translate(121,117)"/>
<path d="M0 0 C1.65 0.33 3.3 0.66 5 1 C3 4 3 4 -0.125 4.6875 C-1.07375 4.790625 -2.0225 4.89375 -3 5 C-3 4.01 -3 3.02 -3 2 C-2.01 2 -1.02 2 0 2 C0 1.34 0 0.68 0 0 Z " fill="#1D1254" transform="translate(100,104)"/>
<path d="M0 0 C3.375 4.5 3.375 4.5 3 9 C2.01 9.33 1.02 9.66 0 10 C0 6.7 0 3.4 0 0 Z " fill="#26167C" transform="translate(27,86)"/>
<path d="M0 0 C0.66 1.32 1.32 2.64 2 4 C2.99 4.66 3.98 5.32 5 6 C4.67 7.32 4.34 8.64 4 10 C3.01 9.67 2.02 9.34 1 9 C0.67 6.03 0.34 3.06 0 0 Z " fill="#1A115C" transform="translate(133,75)"/>
<path d="M0 0 C0.33 0 0.66 0 1 0 C1.33 3.63 1.66 7.26 2 11 C1.34 11 0.68 11 0 11 C-0.19491452 9.54263913 -0.38069358 8.08405407 -0.5625 6.625 C-0.66691406 5.81289062 -0.77132812 5.00078125 -0.87890625 4.1640625 C-1 2 -1 2 0 0 Z " fill="#5846AB" transform="translate(69,69)"/>
<path d="M0 0 C1.76462683 3.08809695 2 4.23312136 2 8 C0.35 7.67 -1.3 7.34 -3 7 C-2.01 4.69 -1.02 2.38 0 0 Z " fill="#D3E1E7" transform="translate(113,59)"/>
<path d="M0 0 C1.65 0 3.3 0 5 0 C3.35 1.65 1.7 3.3 0 5 C-0.99 4.67 -1.98 4.34 -3 4 C-2.67 3.01 -2.34 2.02 -2 1 C-1.34 1.33 -0.68 1.66 0 2 C0 1.34 0 0.68 0 0 Z " fill="#251D59" transform="translate(140,55)"/>
<path d="M0 0 C2.64 0 5.28 0 8 0 C8 0.66 8 1.32 8 2 C5.29120665 3.35439668 2.99066732 3.06501451 0 3 C0 2.01 0 1.02 0 0 Z " fill="#2D1A8D" transform="translate(149,192)"/>
<path d="M0 0 C1.32 0 2.64 0 4 0 C3.34 2.31 2.68 4.62 2 7 C0.4375 5.1875 0.4375 5.1875 -1 3 C-0.67 2.01 -0.34 1.02 0 0 Z " fill="#3E2A99" transform="translate(173,177)"/>
<path d="M0 0 C2.31 0 4.62 0 7 0 C6.6875 1.9375 6.6875 1.9375 6 4 C5.01 4.33 4.02 4.66 3 5 C2.01 3.35 1.02 1.7 0 0 Z " fill="#15104F" transform="translate(127,138)"/>
<path d="M0 0 C1.125 1.625 1.125 1.625 2 4 C1.125 7.25 1.125 7.25 0 10 C-1.125 8.375 -1.125 8.375 -2 6 C-1.125 2.75 -1.125 2.75 0 0 Z " fill="#31236F" transform="translate(202,134)"/>
<path d="M0 0 C1.32 0 2.64 0 4 0 C3.34 1.65 2.68 3.3 2 5 C0.68 5 -0.64 5 -2 5 C-1.34 3.35 -0.68 1.7 0 0 Z " fill="#D8E0EE" transform="translate(139,112)"/>
<path d="M0 0 C0.99 0.33 1.98 0.66 3 1 C2.67 2.98 2.34 4.96 2 7 C1.34 7 0.68 7 0 7 C-0.33 6.01 -0.66 5.02 -1 4 C-1.99 4 -2.98 4 -4 4 C-2.68 2.68 -1.36 1.36 0 0 Z " fill="#302672" transform="translate(69,102)"/>
<path d="M0 0 C0.33 1.32 0.66 2.64 1 4 C2.65 3.67 4.3 3.34 6 3 C5.34 4.32 4.68 5.64 4 7 C3.01 6.67 2.02 6.34 1 6 C0.01 6.33 -0.98 6.66 -2 7 C-1.34 4.69 -0.68 2.38 0 0 Z " fill="#B0B8CF" transform="translate(130,59)"/>
<path d="M0 0 C0.66 0.99 1.32 1.98 2 3 C0.02 3.99 -1.96 4.98 -4 6 C-4.66 5.34 -5.32 4.68 -6 4 C-4.02 2.68 -2.04 1.36 0 0 Z " fill="#3B2C82" transform="translate(68,29)"/>
<path d="M0 0 C2.00720923 0.28674418 4.0085944 0.61866701 6 1 C5.01 2.485 5.01 2.485 4 4 C2.68 4 1.36 4 0 4 C-0.33 3.01 -0.66 2.02 -1 1 C-0.67 0.67 -0.34 0.34 0 0 Z " fill="#6B57C8" transform="translate(150,162)"/>
<path d="M0 0 C2.875 0.6875 2.875 0.6875 6 2 C7.375 4.625 7.375 4.625 8 7 C6.68 6.67 5.36 6.34 4 6 C4 4.68 4 3.36 4 2 C2.68 1.67 1.36 1.34 0 1 C0 0.67 0 0.34 0 0 Z " fill="#4C3C9E" transform="translate(154,146)"/>
<path d="M0 0 C0.6875 1.8125 0.6875 1.8125 1 4 C-0.4375 5.75 -0.4375 5.75 -2 7 C-2.99 6.34 -3.98 5.68 -5 5 C-3.35 3.35 -1.7 1.7 0 0 Z " fill="#D9DAF2" transform="translate(70,133)"/>
<path d="M0 0 C0.99 0 1.98 0 3 0 C3 0.66 3 1.32 3 2 C3.66 2.33 4.32 2.66 5 3 C5 3.66 5 4.32 5 5 C3.35 4.67 1.7 4.34 0 4 C0 2.68 0 1.36 0 0 Z " fill="#CCD0E6" transform="translate(112,133)"/>
<path d="M0 0 C1.32 0.33 2.64 0.66 4 1 C4 2.98 4 4.96 4 7 C3.01 7.495 3.01 7.495 2 8 C0.23537317 4.91190305 0 3.76687864 0 0 Z " fill="#1A0F58" transform="translate(108,130)"/>
<path d="M0 0 C3.875 1.75 3.875 1.75 5 4 C4.01 4 3.02 4 2 4 C1.67 4.99 1.34 5.98 1 7 C-0.0625 4.625 -0.0625 4.625 -1 2 C-0.67 1.34 -0.34 0.68 0 0 Z " fill="#D5E3E9" transform="translate(103,126)"/>
<path d="M0 0 C0.66 0 1.32 0 2 0 C2.33 2.64 2.66 5.28 3 8 C1.68 7.01 0.36 6.02 -1 5 C-0.67 3.35 -0.34 1.7 0 0 Z " fill="#E5EDF8" transform="translate(130,124)"/>
<path d="M0 0 C2.97 0.495 2.97 0.495 6 1 C4 4 4 4 1.375 4.6875 C0.199375 4.8421875 0.199375 4.8421875 -1 5 C-0.67 3.35 -0.34 1.7 0 0 Z " fill="#291774" transform="translate(73,115)"/>
<path d="M0 0 C1.04187157 3.12561472 1.23843794 4.04680182 0 7 C-2.0625 8.25 -2.0625 8.25 -4 9 C-2.80100302 5.9168649 -1.52299523 2.93720508 0 0 Z " fill="#D1D8ED" transform="translate(109,67)"/>
<path d="M0 0 C1.65 0 3.3 0 5 0 C5 0.99 5 1.98 5 3 C3.35 3.66 1.7 4.32 0 5 C0 3.35 0 1.7 0 0 Z " fill="#2D1B8B" transform="translate(75,27)"/>
<path d="M0 0 C1.65 0 3.3 0 5 0 C5 1.33333333 5 2.66666667 5 4 C3.02 4 1.04 4 -1 4 C-0.67 2.68 -0.34 1.36 0 0 Z " fill="#3E2F81" transform="translate(123,201)"/>
<path d="M0 0 C1.32 0 2.64 0 4 0 C4 0.66 4 1.32 4 2 C4.99 2.66 5.98 3.32 7 4 C4.03 3.67 1.06 3.34 -2 3 C-1.34 2.67 -0.68 2.34 0 2 C0 1.34 0 0.68 0 0 Z " fill="#514680" transform="translate(100,201)"/>
<path d="M0 0 C0.99 0.33 1.98 0.66 3 1 C2.67 2.32 2.34 3.64 2 5 C0.35 4.67 -1.3 4.34 -3 4 C-2.67 3.01 -2.34 2.02 -2 1 C-1.34 0.67 -0.68 0.34 0 0 Z " fill="#3C2995" transform="translate(165,185)"/>
<path d="M0 0 C1.98 0.495 1.98 0.495 4 1 C2.84826645 3.46800047 1.95216435 5.04783565 0 7 C0 4.66666667 0 2.33333333 0 0 Z " fill="#251B71" transform="translate(149,131)"/>
<path d="M0 0 C0.33 0 0.66 0 1 0 C1.33 2.97 1.66 5.94 2 9 C1.01 8.67 0.02 8.34 -1 8 C-1.04241723 5.66705225 -1.04092937 3.33297433 -1 1 C-0.67 0.67 -0.34 0.34 0 0 Z " fill="#1B1257" transform="translate(127,117)"/>
<path d="M0 0 C0.33 0.66 0.66 1.32 1 2 C1.66 2 2.32 2 3 2 C2 4 2 4 0 5 C-1.13350534 7.01669827 -1.13350534 7.01669827 -2 9 C-2.125 5.625 -2.125 5.625 -2 2 C-1.34 1.34 -0.68 0.68 0 0 Z " fill="#E4ECF4" transform="translate(82,116)"/>
<path d="M0 0 C1.64284201 2.95711562 2.6442194 5.62008426 3 9 C2.34 9.66 1.68 10.32 1 11 C0.63743142 9.5437328 0.28520207 8.08488815 -0.0625 6.625 C-0.35833984 5.40683594 -0.35833984 5.40683594 -0.66015625 4.1640625 C-1 2 -1 2 0 0 Z " fill="#2C2569" transform="translate(128,114)"/>
<path d="M0 0 C0.33 1.32 0.66 2.64 1 4 C1.66 4.33 2.32 4.66 3 5 C1.68 6.32 0.36 7.64 -1 9 C-0.67 6.03 -0.34 3.06 0 0 Z " fill="#23264D" transform="translate(164,112)"/>
<path d="M0 0 C-1.36983503 3.16115776 -1.9890638 3.9927092 -5 6 C-5.66 5.34 -6.32 4.68 -7 4 C-6.01 3.67 -5.02 3.34 -4 3 C-4 2.34 -4 1.68 -4 1 C-2 0 -2 0 0 0 Z " fill="#D7DFF5" transform="translate(104,89)"/>
<path d="M0 0 C2 2 2 2 2.25 5 C2 8 2 8 0 10 C-1.125 3.375 -1.125 3.375 0 0 Z " fill="#1B1344" transform="translate(203,85)"/>
<path d="M0 0 C2.0625 0.4375 2.0625 0.4375 4 1 C4 1.99 4 2.98 4 4 C2.35 4 0.7 4 -1 4 C-1 1 -1 1 0 0 Z " fill="#130B3C" transform="translate(186,60)"/>
<path d="M0 0 C0.99 0.33 1.98 0.66 3 1 C1.875 2.5 1.875 2.5 0 4 C-3.1875 4.1875 -3.1875 4.1875 -6 4 C-4.03617993 2.49440461 -2.21736634 1.10868317 0 0 Z " fill="#3E3085" transform="translate(81,22)"/>
<path d="M0 0 C1.32 0.33 2.64 0.66 4 1 C4 2.32 4 3.64 4 5 C2.68 4.67 1.36 4.34 0 4 C0 2.68 0 1.36 0 0 Z " fill="#D8DDF0" transform="translate(87,133)"/>
<path d="M0 0 C1.10191901 4.40767604 0.58706842 5.8922935 -1 10 C-1.66 10 -2.32 10 -3 10 C-2.01 6.7 -1.02 3.4 0 0 Z " fill="#D4D5EB" transform="translate(155,126)"/>
<path d="M0 0 C0.33 0 0.66 0 1 0 C1 1.65 1 3.3 1 5 C1.99 5.33 2.98 5.66 4 6 C3.01 7.485 3.01 7.485 2 9 C0.4375 7.3125 0.4375 7.3125 -1 5 C-0.6875 2.25 -0.6875 2.25 0 0 Z " fill="#2C2164" transform="translate(125,120)"/>
<path d="M0 0 C0.99 0.66 1.98 1.32 3 2 C3 2.99 3 3.98 3 5 C1.68 5 0.36 5 -1 5 C-1.33 4.01 -1.66 3.02 -2 2 C-1.34 1.34 -0.68 0.68 0 0 Z " fill="#D9E7F1" transform="translate(160,122)"/>
<path d="M0 0 C1.32 0 2.64 0 4 0 C4 1.98 4 3.96 4 6 C2.68 5.34 1.36 4.68 0 4 C0 2.68 0 1.36 0 0 Z " fill="#1A1060" transform="translate(73,119)"/>
<path d="M0 0 C0.99 0.33 1.98 0.66 3 1 C1.02 3.31 -0.96 5.62 -3 8 C-3 4.42424104 -1.91159393 2.94704065 0 0 Z " fill="#252A48" transform="translate(118,109)"/>
<path d="M0 0 C-0.99 1.485 -0.99 1.485 -2 3 C-3.32 2.67 -4.64 2.34 -6 2 C-6 1.34 -6 0.68 -6 0 C-3.50907189 -1.24546405 -2.58919267 -0.7767578 0 0 Z " fill="#C8CCE6" transform="translate(129,108)"/>
<path d="M0 0 C1.5625 1.25 1.5625 1.25 3 3 C2.6875 5.1875 2.6875 5.1875 2 7 C1.34 7 0.68 7 0 7 C-0.66 5.35 -1.32 3.7 -2 2 C-1.34 2 -0.68 2 0 2 C0 1.34 0 0.68 0 0 Z " fill="#281977" transform="translate(72,103)"/>
<path d="M0 0 C0.33 0.99 0.66 1.98 1 3 C-0.32 3 -1.64 3 -3 3 C-3.33 4.32 -3.66 5.64 -4 7 C-4.6875 5.1875 -4.6875 5.1875 -5 3 C-3.38441968 0.84589291 -2.74502455 0 0 0 Z " fill="#2B2355" transform="translate(154,104)"/>
<path d="M0 0 C0.66 0.99 1.32 1.98 2 3 C1.67 3.99 1.34 4.98 1 6 C0.01 6.33 -0.98 6.66 -2 7 C-1.125 1.125 -1.125 1.125 0 0 Z " fill="#170F51" transform="translate(109,82)"/>
<path d="M0 0 C1.32 0.66 2.64 1.32 4 2 C1.36 3.65 -1.28 5.3 -4 7 C-2 3 -2 3 0 0 Z " fill="#D5CCF0" transform="translate(105,52)"/>
</svg>
