<?xml version="1.0" encoding="UTF-8"?>
<svg version="1.1" xmlns="http://www.w3.org/2000/svg" width="327" height="154">
<path d="M0 0 C107.91 0 215.82 0 327 0 C327 50.82 327 101.64 327 154 C219.09 154 111.18 154 0 154 C0 103.18 0 52.36 0 0 Z " fill="#FCFCFC" transform="translate(0,0)"/>
<path d="M0 0 C6.1565625 -0.0309375 6.1565625 -0.0309375 12.4375 -0.0625 C14.38160767 -0.07615601 14.38160767 -0.07615601 16.36499023 -0.09008789 C17.88394897 -0.09383423 17.88394897 -0.09383423 19.43359375 -0.09765625 C20.47572021 -0.10289307 21.51784668 -0.10812988 22.59155273 -0.11352539 C25 0 25 0 26 1 C26.125 4 26.125 4 26 7 C25 8 25 8 21.83984375 8.09765625 C19.90818359 8.08025391 19.90818359 8.08025391 17.9375 8.0625 C16.64714844 8.05347656 15.35679687 8.04445313 14.02734375 8.03515625 C13.02832031 8.02355469 12.02929688 8.01195313 11 8 C11 8.99 11 9.98 11 11 C15.95 11 20.9 11 26 11 C26.33 11.99 26.66 12.98 27 14 C29.67490781 9.24350993 29.67490781 9.24350993 30 0 C38.58 0 47.16 0 56 0 C56 2.64 56 5.28 56 8 C51.05 8 46.1 8 41 8 C41 15.92 41 23.84 41 32 C37.37 32 33.74 32 30 32 C29.34 31.34 28.68 30.68 28 30 C27.67 30.33 27.34 30.66 27 31 C25.00035018 31.08758003 22.9976389 31.10696576 20.99609375 31.09765625 C19.90224365 31.09515869 18.80839355 31.09266113 17.68139648 31.09008789 C16.28091064 31.08098389 14.8804248 31.07187988 13.4375 31.0625 C6.7859375 31.0315625 6.7859375 31.0315625 0 31 C0 20.77 0 10.54 0 0 Z " fill="#DADADA" transform="translate(241,68)"/>
<path d="M0 0 C5.99762242 0.7497028 9.65200166 1.38987567 15 3.5625 C16.134375 4.01753906 17.26875 4.47257812 18.4375 4.94140625 C19.283125 5.29074219 20.12875 5.64007813 21 6 C21 6.66 21 7.32 21 8 C21.82564453 8.12181641 21.82564453 8.12181641 22.66796875 8.24609375 C27.89152233 9.93478025 31.95487756 14.41963631 36 18 C36.69222656 18.598125 37.38445312 19.19625 38.09765625 19.8125 C45.9510045 27.54502751 48.43041169 40.36768488 49 51 C43.06 51 37.12 51 31 51 C30.62875 49.535625 30.2575 48.07125 29.875 46.5625 C26.78967093 36.48186263 20.85098541 29.65479623 12 24 C8.04936566 22.08058803 4.12548674 20.53506483 0 19 C0 12.73 0 6.46 0 0 Z " fill="#090909" transform="translate(64,28)"/>
<path d="M0 0 C0 6.27 0 12.54 0 19 C-1.505625 19.4125 -3.01125 19.825 -4.5625 20.25 C-14.18158047 23.18991614 -20.61157841 27.76460564 -25.515625 36.7890625 C-27.61777944 41.27124236 -29.02131855 45.10659275 -30 50 C-35.94 50 -41.88 50 -48 50 C-48 43.00373672 -47.84448976 39.20596783 -45.25 33.1875 C-44.99734375 32.54619141 -44.7446875 31.90488281 -44.484375 31.24414062 C-42.88183411 27.36999803 -41.09378019 24.79729292 -38 22 C-37.38125 20.8553125 -37.38125 20.8553125 -36.75 19.6875 C-34.19141668 15.75824705 -30.76776111 12.775824 -27 10 C-26.34 10 -25.68 10 -25 10 C-24.67 9.01 -24.34 8.02 -24 7 C-21.453125 5.4296875 -21.453125 5.4296875 -18.25 3.875 C-17.20328125 3.35679688 -16.1565625 2.83859375 -15.078125 2.3046875 C-9.64746724 0.00286048 -6.09824469 0 0 0 Z " fill="#080808" transform="translate(50,29)"/>
<path d="M0 0 C5.94 0 11.88 0 18 0 C17.12117928 13.84142628 10.22035864 24.49473414 0.35546875 33.99609375 C-3.15909317 36.98609419 -6.84252781 39.04056528 -11 41 C-11.73089844 41.38027344 -12.46179688 41.76054687 -13.21484375 42.15234375 C-18.83430853 44.92751001 -23.75194018 45.64799663 -30 46 C-30 40.06 -30 34.12 -30 28 C-22 25 -22 25 -19 24 C-17.97276756 23.02799511 -16.97507373 22.02431988 -16 21 C-14.75 20 -13.5 19 -12.25 18 C-6.73807388 13.23182731 -2.31249894 6.93749683 0 0 Z " fill="#080808" transform="translate(94,93)"/>
<path d="M0 0 C6.27 0 12.54 0 19 0 C22.25 6.75 22.25 6.75 23.24707031 8.85449219 C25.06973713 12.56622145 27.01658138 15.17499298 30 18 C30 18.66 30 19.32 30 20 C30.66 20.2475 31.32 20.495 32 20.75 C35.08506999 22.03544583 37.99193412 23.52391641 40.9375 25.09765625 C43.41066184 26.26704607 43.41066184 26.26704607 48 27 C48 33.27 48 39.54 48 46 C45.586875 45.71125 43.17375 45.4225 40.6875 45.125 C39.55380981 44.99569092 39.55380981 44.99569092 38.3972168 44.86376953 C34.90430033 44.42124925 32.97787925 43.98525284 30 42 C30 41.34 30 40.68 30 40 C29.27683594 39.90976563 28.55367187 39.81953125 27.80859375 39.7265625 C19.08076725 37.46873812 11.7886949 28.43950795 7.15234375 21.05859375 C3.11252741 14.03246554 0.96507469 8.04228912 0 0 Z " fill="#090909" transform="translate(2,93)"/>
<path d="M0 0 C4.76644369 -0.19065775 8.66586616 -0.11667001 13 2 C14.90800611 5.29564692 15 7.12388592 15 11 C15.99 11 16.98 11 18 11 C18 7.37 18 3.74 18 0 C20.97 0 23.94 0 27 0 C27 3.63 27 7.26 27 11 C30.11449899 10.34198878 30.11449899 10.34198878 31.09765625 7.96875 C31.57525391 6.74671875 31.57525391 6.74671875 32.0625 5.5 C33.79507389 1.10246305 33.79507389 1.10246305 36 0 C38.6723621 -0.13415472 41.32250488 -0.04318541 44 0 C44 1.65 44 3.3 44 5 C42.68 5.33 41.36 5.66 40 6 C39.34 8.31 38.68 10.62 38 13 C37.34 13 36.68 13 36 13 C36.39832031 13.42410156 36.79664063 13.84820312 37.20703125 14.28515625 C41.42858241 18.95864963 45 23.4242916 45 30 C41.37 30 37.74 30 34 30 C30 21.375 30 21.375 30 18 C29.01 18 28.02 18 27 18 C27 21.96 27 25.92 27 30 C24.03 30 21.06 30 18 30 C18 26.04 18 22.08 18 18 C15.37803569 20.62196431 14.02427165 22.4952772 12.3125 25.6875 C11.1678125 27.8221875 11.1678125 27.8221875 10 30 C6.7 30 3.4 30 0 30 C0.41722558 25.54959382 2.33597129 22.59801344 4.74609375 18.96484375 C5.99863157 17.0021443 7.12832338 15.16158191 8 13 C6.62949926 9.614057 5.61386474 8.29979441 2.3125 6.6875 C1.549375 6.460625 0.78625 6.23375 0 6 C0 4.02 0 2.04 0 0 Z " fill="#0A0A0A" transform="translate(192,69)"/>
<path d="M0 0 C5.87824292 3.81898585 5.87824292 3.81898585 7.328125 6.71875 C8.54885395 21.29774144 8.54885395 21.29774144 5.015625 25.53125 C-0.73145795 30.20910822 -4.46777613 30.21176794 -11.671875 29.71875 C-14.94817493 29.19430631 -17.71546138 28.3783456 -20.484375 26.46875 C-23.73260474 21.68188511 -24.32757909 16.36626591 -23.671875 10.71875 C-22.71799031 5.94932656 -21.45472564 3.37112553 -17.671875 0.21875 C-12.00607251 -2.4348537 -5.65796797 -2.71317762 0 0 Z " fill="#161616" transform="translate(181.671875,69.28125)"/>
<path d="M0 0 C7.26 0 14.52 0 22 0 C22 0.66 22 1.32 22 2 C23.65 2.66 25.3 3.32 27 4 C27.33292585 8.24480464 27.43885872 10.35542625 25 13.9375 C24.34 14.618125 23.68 15.29875 23 16 C23.9590625 16.2165625 23.9590625 16.2165625 24.9375 16.4375 C27 17 27 17 28 18 C28.13568319 21.66344611 28.16461426 24.50615721 27 28 C24.80580313 30.12489009 23.48225608 30.93597761 20.43457031 31.34057617 C19.02062988 31.3170105 19.02062988 31.3170105 17.578125 31.29296875 C16.65418945 31.28547607 15.73025391 31.2779834 14.77832031 31.27026367 C13.61397461 31.24295166 12.44962891 31.21563965 11.25 31.1875 C7.5375 31.125625 3.825 31.06375 0 31 C0 20.77 0 10.54 0 0 Z " fill="#191919" transform="translate(61,68)"/>
<path d="M0 0 C6.1565625 -0.0309375 6.1565625 -0.0309375 12.4375 -0.0625 C14.38160767 -0.07615601 14.38160767 -0.07615601 16.36499023 -0.09008789 C17.88394897 -0.09383423 17.88394897 -0.09383423 19.43359375 -0.09765625 C20.47572021 -0.10289307 21.51784668 -0.10812988 22.59155273 -0.11352539 C25 0 25 0 26 1 C26 2.98 26 4.96 26 7 C20.39 7 14.78 7 9 7 C9 8.65 9 10.3 9 12 C13.95 12 18.9 12 24 12 C24 13.98 24 15.96 24 18 C19.05 18 14.1 18 9 18 C9 19.98 9 21.96 9 24 C14.61 24 20.22 24 26 24 C26 26.31 26 28.62 26 31 C17.42 31 8.84 31 0 31 C0 20.77 0 10.54 0 0 Z " fill="#171717" transform="translate(241,68)"/>
<path d="M0 0 C1.51400391 0.01740234 1.51400391 0.01740234 3.05859375 0.03515625 C4.07050781 0.04417969 5.08242188 0.05320312 6.125 0.0625 C7.29869141 0.07990234 7.29869141 0.07990234 8.49609375 0.09765625 C9.16869726 1.86624316 9.8339777 3.63761641 10.49609375 5.41015625 C10.86734375 6.39628906 11.23859375 7.38242188 11.62109375 8.3984375 C12.49609375 11.09765625 12.49609375 11.09765625 12.49609375 14.09765625 C13.15609375 14.09765625 13.81609375 14.09765625 14.49609375 14.09765625 C15.63089902 17.70758797 15.59625142 21.08188895 15.55859375 24.84765625 C15.54957031 26.018125 15.54054688 27.18859375 15.53125 28.39453125 C15.51964844 29.2865625 15.50804687 30.17859375 15.49609375 31.09765625 C13.51609375 31.09765625 11.53609375 31.09765625 9.49609375 31.09765625 C9.16609375 29.77765625 8.83609375 28.45765625 8.49609375 27.09765625 C4.86609375 26.76765625 1.23609375 26.43765625 -2.50390625 26.09765625 C-3.49390625 28.57265625 -3.49390625 28.57265625 -4.50390625 31.09765625 C-7.47390625 31.09765625 -10.44390625 31.09765625 -13.50390625 31.09765625 C-11.48728416 24.17168593 -9.27056849 17.34024605 -6.87890625 10.53515625 C-6.56695312 9.63474609 -6.255 8.73433594 -5.93359375 7.80664062 C-5.63453125 6.95263672 -5.33546875 6.09863281 -5.02734375 5.21875 C-4.75841309 4.44974365 -4.48948242 3.6807373 -4.21240234 2.88842773 C-3.14091847 0.18018025 -3.02247885 0.11788139 0 0 Z " fill="#131313" transform="translate(311.50390625,67.90234375)"/>
<path d="M0 0 C9.57 0 19.14 0 29 0 C29 9.9 29 19.8 29 30 C26.36 30 23.72 30 21 30 C21 22.41 21 14.82 21 7 C17.04 7 13.08 7 9 7 C9 14.26 9 21.52 9 29 C6.03 29 3.06 29 0 29 C0 19.43 0 9.86 0 0 Z " fill="#060606" transform="translate(123,69)"/>
<path d="M0 0 C9.57 0 19.14 0 29 0 C29 2.31 29 4.62 29 7 C25.7 7 22.4 7 19 7 C19 14.59 19 22.18 19 30 C16.03 30 13.06 30 10 30 C10 22.41 10 14.82 10 7 C6.7 7 3.4 7 0 7 C0 4.69 0 2.38 0 0 Z " fill="#0D0D0D" transform="translate(28,69)"/>
<path d="M0 0 C7.59 0 15.18 0 23 0 C23 2.31 23 4.62 23 7 C18.05 7 13.1 7 8 7 C8 14.26 8 21.52 8 29 C5.36 29 2.72 29 0 29 C0 19.43 0 9.86 0 0 Z " fill="#040404" transform="translate(273,69)"/>
<path d="M0 0 C4.76644369 -0.19065775 8.66586616 -0.11667001 13 2 C14.90800611 5.29564692 15 7.12388592 15 11 C15.99 11.33 16.98 11.66 18 12 C17.34 12 16.68 12 16 12 C16.49113281 12.34675781 16.98226562 12.69351563 17.48828125 13.05078125 C19.77745767 16.00245834 19.2884377 18.52009699 19.1875 22.1875 C19.16042969 23.45980469 19.13335937 24.73210937 19.10546875 26.04296875 C19.07066406 27.01878906 19.03585938 27.99460937 19 29 C21.64 29 24.28 29 27 29 C27 29.33 27 29.66 27 30 C24.03 30 21.06 30 18 30 C18 26.04 18 22.08 18 18 C15.37803569 20.62196431 14.02427165 22.4952772 12.3125 25.6875 C11.1678125 27.8221875 11.1678125 27.8221875 10 30 C6.7 30 3.4 30 0 30 C0.41722558 25.54959382 2.33597129 22.59801344 4.74609375 18.96484375 C5.99863157 17.0021443 7.12832338 15.16158191 8 13 C6.62949926 9.614057 5.61386474 8.29979441 2.3125 6.6875 C1.549375 6.460625 0.78625 6.23375 0 6 C0 4.02 0 2.04 0 0 Z " fill="#191919" transform="translate(192,69)"/>
<path d="M0 0 C5.97873264 0.11935764 5.97873264 0.11935764 7.08984375 1.23046875 C7.1777535 3.52198292 7.19678413 5.81619399 7.1875 8.109375 C7.18608505 8.79603745 7.1846701 9.48269989 7.18321228 10.19017029 C7.17759854 12.39114676 7.16504382 14.59202284 7.15234375 16.79296875 C7.14733051 18.28189958 7.1427673 19.77083199 7.13867188 21.25976562 C7.12762468 24.9166995 7.11035088 28.57357433 7.08984375 32.23046875 C3.65045491 34.10359315 1.7526249 34.37030838 -2.16015625 33.85546875 C-3.0521875 33.74460938 -3.94421875 33.63375 -4.86328125 33.51953125 C-5.53875 33.42414063 -6.21421875 33.32875 -6.91015625 33.23046875 C-6.91015625 32.90046875 -6.91015625 32.57046875 -6.91015625 32.23046875 C-3.61015625 32.23046875 -0.31015625 32.23046875 3.08984375 32.23046875 C2.35154635 30.47549953 1.59866133 28.72666343 0.83984375 26.98046875 C0.4221875 26.0059375 0.00453125 25.03140625 -0.42578125 24.02734375 C-1.93487212 21.18389885 -3.61455704 19.44758594 -5.91015625 17.23046875 C-5.91015625 16.57046875 -5.91015625 15.91046875 -5.91015625 15.23046875 C-5.25015625 15.23046875 -4.59015625 15.23046875 -3.91015625 15.23046875 C-3.80703125 14.46734375 -3.70390625 13.70421875 -3.59765625 12.91796875 C-2.86304431 10.04630391 -2.23854975 9.00004781 0.08984375 7.23046875 C0.74984375 7.23046875 1.40984375 7.23046875 2.08984375 7.23046875 C2.08984375 5.58046875 2.08984375 3.93046875 2.08984375 2.23046875 C0.10984375 2.23046875 -1.87015625 2.23046875 -3.91015625 2.23046875 C-1.91015625 0.23046875 -1.91015625 0.23046875 0 0 Z " fill="#E4E4E4" transform="translate(233.91015625,66.76953125)"/>
<path d="M0 0 C0.99 0 1.98 0 3 0 C3 0.99 3 1.98 3 3 C4.32 3 5.64 3 7 3 C7 4.32 7 5.64 7 7 C7.66 4.69 8.32 2.38 9 0 C10.45922693 0.11409593 11.91740598 0.24165544 13.375 0.375 C14.59316406 0.47941406 14.59316406 0.47941406 15.8359375 0.5859375 C18 1 18 1 20 3 C14.555 2.505 14.555 2.505 9 2 C9 3.98 9 5.96 9 8 C10.1446875 8.1546875 10.1446875 8.1546875 11.3125 8.3125 C14.25751284 9.06587538 15.25209356 9.55293098 17 12 C18 14.3125 18 14.3125 18 17 C16.84734845 18.44904766 15.68019821 19.89117118 14.4140625 21.2421875 C11.85543912 24.42279667 10.49830878 28.23330194 9 32 C8.34 32 7.68 32 7 32 C6.34 31.34 5.68 30.68 5 30 C4.01 30.99 3.02 31.98 2 33 C0.68 32.34 -0.64 31.68 -2 31 C0.33333333 28.66666667 2.66666667 26.33333333 5 24 C5.28033623 21.50648301 5.41608386 19.18366998 5.4375 16.6875 C5.47746094 15.37136719 5.51742187 14.05523437 5.55859375 12.69921875 C4.8750205 8.17233854 3.46954731 6.86433304 0 4 C-0.66 3.34 -1.32 2.68 -2 2 C-1.34 1.34 -0.68 0.68 0 0 Z " fill="#F8F8F8" transform="translate(183,67)"/>
<path d="M0 0 C2.64 0 5.28 0 8 0 C8.3690205 12.66970387 8.3690205 12.66970387 6 18 C6.66 18.66 7.32 19.32 8 20 C8.1953125 22.1640625 8.1953125 22.1640625 8.125 24.625 C8.10695312 25.44226563 8.08890625 26.25953125 8.0703125 27.1015625 C8.03550781 28.04128906 8.03550781 28.04128906 8 29 C5.69 29 3.38 29 1 29 C1 24.38 1 19.76 1 15 C0.01 14.67 -0.98 14.34 -2 14 C-2 13.34 -2 12.68 -2 12 C-1.34 12 -0.68 12 0 12 C0 8.04 0 4.08 0 0 Z " fill="#040404" transform="translate(210,69)"/>
<path d="M0 0 C7.35678392 -0.48241206 7.35678392 -0.48241206 10 1.5 C11.42979854 5.07449634 11.68247301 8.20762158 11 12 C9.4375 14.5625 9.4375 14.5625 7 16 C3.3125 15.875 3.3125 15.875 0 15 C-1.30459914 12.39080172 -1.1326594 10.41057385 -1.125 7.5 C-1.12757813 6.5203125 -1.13015625 5.540625 -1.1328125 4.53125 C-1 2 -1 2 0 0 Z " fill="#F3F3F3" transform="translate(169,76)"/>
<path d="M0 0 C4.79872602 1.59957534 7.64525138 5.54138214 10.0546875 9.9140625 C11.32009879 12.74617349 12 14.87838737 12 18 C8.37 18 4.74 18 1 18 C-2.22265625 11.1640625 -2.22265625 11.1640625 -3 9 C-2.67 8.34 -2.34 7.68 -2 7 C-1.34 8.32 -0.68 9.64 0 11 C0.99 9.02 1.98 7.04 3 5 C1.68 4.67 0.36 4.34 -1 4 C-0.67 2.68 -0.34 1.36 0 0 Z " fill="#242424" transform="translate(225,81)"/>
<path d="M0 0 C8.58 0 17.16 0 26 0 C26 2.64 26 5.28 26 8 C25.67 8 25.34 8 25 8 C25 5.69 25 3.38 25 1 C17.41 1 9.82 1 2 1 C2 10.57 2 20.14 2 30 C4.64 30 7.28 30 10 30 C10 22.74 10 15.48 10 8 C10.33 8 10.66 8 11 8 C11 15.92 11 23.84 11 32 C7.37 32 3.74 32 0 32 C0 21.44 0 10.88 0 0 Z " fill="#919191" transform="translate(271,68)"/>
<path d="M0 0 C0.66 0.33 1.32 0.66 2 1 C2 3.97 2 6.94 2 10 C2.99 10 3.98 10 5 10 C5.95465783 12.16967689 6.14401212 13.56328793 5.3984375 15.82421875 C4.64129615 17.5684743 3.82390802 19.28627131 3 21 C2.34 21 1.68 21 1 21 C0.34 20.34 -0.32 19.68 -1 19 C-1.99 19.99 -2.98 20.98 -4 22 C-5.32 21.34 -6.64 20.68 -8 20 C-4.5 16.5 -4.5 16.5 -1 13 C-0.53513282 9.87803664 -0.53513282 9.87803664 -0.375 6.375 C-0.30023438 5.18648438 -0.22546875 3.99796875 -0.1484375 2.7734375 C-0.09945312 1.85820313 -0.05046875 0.94296875 0 0 Z " fill="#E4E4E4" transform="translate(189,78)"/>
<path d="M0 0 C0.33 0.66 0.66 1.32 1 2 C0.67 2.99 0.34 3.98 0 5 C10.23 5.33 20.46 5.66 31 6 C31 6.33 31 6.66 31 7 C21.43 7 11.86 7 2 7 C2 9.31 2 11.62 2 14 C-0.38564077 13.42415568 -2.66682784 12.77772405 -5 12 C-3.85814266 7.52040582 -2.56984833 3.85477249 0 0 Z " fill="#C5C5C5" transform="translate(26,62)"/>
<path d="M0 0 C2.73902249 2.36551942 3.93170092 4.54857221 5 8 C5.125 10.8125 5.125 10.8125 5 13 C3.865625 13.45375 2.73125 13.9075 1.5625 14.375 C-2.04721692 15.57095806 -2.04721692 15.57095806 -3 18 C-3.99 18 -4.98 18 -6 18 C-4.125 14.125 -4.125 14.125 -3 13 C-2.63239269 10.67182036 -2.29758419 8.3381615 -2 6 C-2.99 5.67 -3.98 5.34 -5 5 C-4.360625 4.731875 -3.72125 4.46375 -3.0625 4.1875 C-0.66868314 3.11332248 -0.66868314 3.11332248 0 0 Z " fill="#F9F9F9" transform="translate(90,66)"/>
<path d="M0 0 C0.66 0 1.32 0 2 0 C2 3.96 2 7.92 2 12 C4.97 12 7.94 12 11 12 C11 12.33 11 12.66 11 13 C8.87631556 13.22134176 6.75095976 13.42670007 4.625 13.625 C2.84996094 13.79902344 2.84996094 13.79902344 1.0390625 13.9765625 C0.03617188 13.98429687 -0.96671875 13.99203125 -2 14 C-2.66 13.34 -3.32 12.68 -4 12 C-4.66 11.67 -5.32 11.34 -6 11 C-4.02 7.37 -2.04 3.74 0 0 Z " fill="#EBEBEB" transform="translate(208,87)"/>
<path d="M0 0 C3.96 0 7.92 0 12 0 C12.33 0.66 12.66 1.32 13 2 C13.99 2 14.98 2 16 2 C15.60404157 3.48484412 15.18249294 4.9628831 14.75 6.4375 C14.40195313 7.67306641 14.40195313 7.67306641 14.046875 8.93359375 C13.70140625 9.61550781 13.3559375 10.29742187 13 11 C11.68 11.33 10.36 11.66 9 12 C9 8.37 9 4.74 9 1 C6.03 1 3.06 1 0 1 C0 0.67 0 0.34 0 0 Z " fill="#AFAFAF" transform="translate(210,68)"/>
<path d="M0 0 C0.99 0.33 1.98 0.66 3 1 C3 10.24 3 19.48 3 29 C2.67 29 2.34 29 2 29 C1.95101562 27.80761719 1.90203125 26.61523438 1.8515625 25.38671875 C1.77652396 23.82028932 1.7009766 22.25388421 1.625 20.6875 C1.57859375 19.50897461 1.57859375 19.50897461 1.53125 18.30664062 C1.47324219 17.1706543 1.47324219 17.1706543 1.4140625 16.01171875 C1.3826416 15.31522217 1.3512207 14.61872559 1.31884766 13.90112305 C1.07881747 11.67467261 1.07881747 11.67467261 -1 9 C-1.31254378 6.27716095 -1.13333428 3.75557514 -1 1 C-0.67 0.67 -0.34 0.34 0 0 Z " fill="#EEEEEE" transform="translate(58,67)"/>
<path d="M0 0 C1.32 0 2.64 0 4 0 C4.25494218 3.10261506 4.47447008 6.20674802 4.6875 9.3125 C4.76033203 10.19357422 4.83316406 11.07464844 4.90820312 11.98242188 C4.96298828 12.82998047 5.01777344 13.67753906 5.07421875 14.55078125 C5.13182373 15.33106689 5.18942871 16.11135254 5.2487793 16.9152832 C4.93485931 19.54586488 4.01131557 20.35646785 2 22 C1.01 21.67 0.02 21.34 -1 21 C-0.01 20.67 0.98 20.34 2 20 C2 13.73 2 7.46 2 1 C1.34 0.67 0.68 0.34 0 0 Z " fill="#BBBBBB" transform="translate(48,28)"/>
<path d="M0 0 C0 0.66 0 1.32 0 2 C0.66 2.33 1.32 2.66 2 3 C1.67 3.66 1.34 4.32 1 5 C-2.96 5 -6.92 5 -11 5 C-11.33 4.34 -11.66 3.68 -12 3 C-7.90170754 1.29237814 -4.46034635 0 0 0 Z " fill="#020202" transform="translate(177,93)"/>
<path d="M0 0 C2.64 0 5.28 0 8 0 C8.5625 1.9375 8.5625 1.9375 9 4 C8 5 8 5 6.15234375 5.09765625 C4.1015625 5.06510417 2.05078125 5.03255208 0 5 C0 3.35 0 1.7 0 0 Z " fill="#E6E6E6" transform="translate(71,87)"/>
<path d="M0 0 C0.99 0 1.98 0 3 0 C3.99 2.97 4.98 5.94 6 9 C5.01 9 4.02 9 3 9 C2.67 9.99 2.34 10.98 2 12 C1.34 12 0.68 12 0 12 C0 8.04 0 4.08 0 0 Z " fill="#CECECE" transform="translate(219,87)"/>
<path d="M0 0 C4.95 0 9.9 0 15 0 C15 0.33 15 0.66 15 1 C9.06 1.495 9.06 1.495 3 2 C3 2.66 3 3.32 3 4 C2.34 4 1.68 4 1 4 C1 10.27 1 16.54 1 23 C0.67 23 0.34 23 0 23 C0 15.41 0 7.82 0 0 Z " fill="#DCDCDC" transform="translate(282,76)"/>
<path d="M0 0 C0.66 0.33 1.32 0.66 2 1 C2.625 3.0625 2.625 3.0625 3 5 C3.66 5 4.32 5 5 5 C4.67 5.99 4.34 6.98 4 8 C0.7 7.34 -2.6 6.68 -6 6 C-6.33 5.01 -6.66 4.02 -7 3 C-3.535 2.505 -3.535 2.505 0 2 C0 1.34 0 0.68 0 0 Z " fill="#020202" transform="translate(79,79)"/>
<path d="M0 0 C1.48828125 1.14453125 1.48828125 1.14453125 3 3 C3.40199208 6.70368703 3.13187853 10.26344169 3 14 C-3.27 14 -9.54 14 -16 14 C-16 13.67 -16 13.34 -16 13 C-10.06 13 -4.12 13 2 13 C1.67 11.5975 1.34 10.195 1 8.75 C0.26483401 5.62554456 0 3.27217135 0 0 Z " fill="#989898" transform="translate(111,66)"/>
<path d="M0 0 C1.18851563 0.19464844 2.37703125 0.38929687 3.6015625 0.58984375 C4.97441406 0.82380859 4.97441406 0.82380859 6.375 1.0625 C6.375 1.3925 6.375 1.7225 6.375 2.0625 C5.55515625 2.18367188 4.7353125 2.30484375 3.890625 2.4296875 C2.81296875 2.59726563 1.7353125 2.76484375 0.625 2.9375 C-0.44234375 3.09992188 -1.5096875 3.26234375 -2.609375 3.4296875 C-5.30208871 3.99473882 -7.26072439 4.69672914 -9.625 6.0625 C-9.625 3.0625 -9.625 3.0625 -8.625 0.0625 C-5.61666904 -1.44166548 -3.27538422 -0.54589737 0 0 Z " fill="#E6E6E6" transform="translate(170.625,65.9375)"/>
<path d="M0 0 C0.66 0 1.32 0 2 0 C3.42258812 3.82320557 4.24042276 6.91281305 4 11 C2.02 11.99 2.02 11.99 0 13 C0 8.71 0 4.42 0 0 Z " fill="#F1F1F1" transform="translate(0,93)"/>
<path d="M0 0 C0.33 0.66 0.66 1.32 1 2 C2.32 1.67 3.64 1.34 5 1 C5 1.66 5 2.32 5 3 C4.01 3 3.02 3 2 3 C1.34 8.61 0.68 14.22 0 20 C-0.33 20 -0.66 20 -1 20 C-1.02888514 16.85418577 -1.04675923 13.70840531 -1.0625 10.5625 C-1.07087891 9.66466797 -1.07925781 8.76683594 -1.08789062 7.84179688 C-1.09111328 6.98779297 -1.09433594 6.13378906 -1.09765625 5.25390625 C-1.10551147 4.06776733 -1.10551147 4.06776733 -1.11352539 2.85766602 C-1 1 -1 1 0 0 Z " fill="#EDEDED" transform="translate(1,59)"/>
<path d="M0 0 C4.29 0 8.58 0 13 0 C12.67 0.99 12.34 1.98 12 3 C8.04 3 4.08 3 0 3 C0 2.01 0 1.02 0 0 Z " fill="#FAFAFA" transform="translate(252,76)"/>
<path d="M0 0 C0 3.63 0 7.26 0 11 C-0.99 11 -1.98 11 -3 11 C-4.6559633 5.68348624 -4.6559633 5.68348624 -5 3 C-3.48700594 0.5792095 -2.86258871 0 0 0 Z " fill="#D0D0D0" transform="translate(210,69)"/>
<path d="M0 0 C0.66 0 1.32 0 2 0 C2 3.96 2 7.92 2 12 C1.67 12 1.34 12 1 12 C0.67 10.02 0.34 8.04 0 6 C-2.2477975 8.05233685 -3.0022242 9.00667261 -4 12 C-4.66 11.67 -5.32 11.34 -6 11 C-4.02 7.37 -2.04 3.74 0 0 Z " fill="#CBCBCB" transform="translate(208,87)"/>
<path d="M0 0 C2.09749995 2.35968744 2.96905704 3.54616994 3.1875 6.75 C3.125625 7.4925 3.06375 8.235 3 9 C1.35 9 -0.3 9 -2 9 C-2.25 3.375 -2.25 3.375 0 0 Z " fill="#CFCFCF" transform="translate(314,78)"/>
<path d="M0 0 C2.31 0 4.62 0 7 0 C7 1.65 7 3.3 7 5 C4.69 5 2.38 5 0 5 C0 3.35 0 1.7 0 0 Z " fill="#E7E7E7" transform="translate(71,75)"/>
<path d="M0 0 C2.73902249 2.36551942 3.93170092 4.54857221 5 8 C5.125 10.8125 5.125 10.8125 5 13 C3 11 3 11 2.1875 8.9375 C1.13823654 6.71493933 1.13823654 6.71493933 -1.5625 6.375 C-2.7690625 6.189375 -2.7690625 6.189375 -4 6 C-4.33 5.34 -4.66 4.68 -5 4 C-3.35 3.67 -1.7 3.34 0 3 C0 2.01 0 1.02 0 0 Z " fill="#BABABA" transform="translate(90,66)"/>
<path d="M0 0 C0.66 0 1.32 0 2 0 C1.49701212 4.40114397 -0.08772731 6.71195019 -3 10 C-3.28875 9.195625 -3.5775 8.39125 -3.875 7.5625 C-4.73262568 4.8673532 -4.73262568 4.8673532 -7 4 C-2.25 3 -2.25 3 0 3 C0 2.01 0 1.02 0 0 Z " fill="#D6D6D6" transform="translate(92,93)"/>
<path d="M0 0 C1.45922693 0.11409593 2.91740598 0.24165544 4.375 0.375 C5.59316406 0.47941406 5.59316406 0.47941406 6.8359375 0.5859375 C9 1 9 1 11 3 C7.37 2.67 3.74 2.34 0 2 C0 3.98 0 5.96 0 8 C1.32 8.33 2.64 8.66 4 9 C2.68 9 1.36 9 0 9 C-0.33 9.66 -0.66 10.32 -1 11 C-2.60080151 6.99799622 -1.29279692 3.95443764 0 0 Z " fill="#C0C0C0" transform="translate(192,67)"/>
<path d="M0 0 C0.99 0 1.98 0 3 0 C3 0.99 3 1.98 3 3 C4.32 3 5.64 3 7 3 C6.67 4.98 6.34 6.96 6 9 C3.36 7.02 0.72 5.04 -2 3 C-1.34 2.01 -0.68 1.02 0 0 Z " fill="#E1E1E1" transform="translate(183,67)"/>
<path d="M0 0 C0.87324262 2.44507934 1.10151327 3.67700322 0.3125 6.1875 C-1 8 -1 8 -3 8.875 C-3.99 8.936875 -3.99 8.936875 -5 9 C-5.66 8.34 -6.32 7.68 -7 7 C-4.66666667 4.66666667 -2.33333333 2.33333333 0 0 Z " fill="#CBCBCB" transform="translate(188,91)"/>
<path d="M0 0 C3.63 0 7.26 0 11 0 C11 0.33 11 0.66 11 1 C9.02 1 7.04 1 5 1 C4.67 2.32 4.34 3.64 4 5 C3.34 4.34 2.68 3.68 2 3 C0.68 3.99 -0.64 4.98 -2 6 C-1.34 4.02 -0.68 2.04 0 0 Z " fill="#5E5E5E" transform="translate(309,68)"/>
<path d="M0 0 C2.64 0 5.28 0 8 0 C9.33332095 2.6666419 8.67102033 4.16680303 8 7 C7.01 7 6.02 7 5 7 C5 5.02 5 3.04 5 1 C3.35 1 1.7 1 0 1 C0 0.67 0 0.34 0 0 Z " fill="#EEEEEE" transform="translate(232,67)"/>
<path d="M0 0 C1.65 1.32 3.3 2.64 5 4 C4.34 4 3.68 4 3 4 C3 7.63 3 11.26 3 15 C2.67 15 2.34 15 2 15 C1.96261719 14.38511719 1.92523438 13.77023438 1.88671875 13.13671875 C1.82097656 12.32847656 1.75523437 11.52023438 1.6875 10.6875 C1.62949219 9.88699219 1.57148438 9.08648437 1.51171875 8.26171875 C0.91793306 5.63727666 0.04219706 4.69179328 -2 3 C-1.34 3 -0.68 3 0 3 C0 2.01 0 1.02 0 0 Z " fill="#101010" transform="translate(216,83)"/>
<path d="M0 0 C2.78388975 1.70625501 3.85384206 2.47626739 4.75 5.6875 C4.8325 6.450625 4.915 7.21375 5 8 C4.01 8.66 3.02 9.32 2 10 C0.68373308 6.38026598 0 3.90432869 0 0 Z " fill="#CECECE" transform="translate(196,76)"/>
<path d="M0 0 C-3.08809695 1.76462683 -4.23312136 2 -8 2 C-8.99 1.34 -9.98 0.68 -11 0 C-7.07632508 -2.82504594 -4.32061114 -1.49559616 0 0 Z " fill="#E4E4E4" transform="translate(32,133)"/>
<path d="M0 0 C1.65 0 3.3 0 5 0 C5 0.66 5 1.32 5 2 C6.32 2.66 7.64 3.32 9 4 C8.01 5.485 8.01 5.485 7 7 C5.83040013 6.02433888 4.66438823 5.044375 3.5 4.0625 C2.8503125 3.51722656 2.200625 2.97195312 1.53125 2.41015625 C1.0259375 1.94480469 0.520625 1.47945312 0 1 C0 0.67 0 0.34 0 0 Z " fill="#2C2C2C" transform="translate(79,53)"/>
<path d="M0 0 C0.93423645 3.01031744 1.04449911 3.86650268 0 7 C-0.66 6.67 -1.32 6.34 -2 6 C-2.33 7.32 -2.66 8.64 -3 10 C-3.66 10 -4.32 10 -5 10 C-3.84414715 6.08788267 -2.64465038 3.1254959 0 0 Z " fill="#BDBDBD" transform="translate(108,108)"/>
<path d="M0 0 C0.94875 0.04125 1.8975 0.0825 2.875 0.125 C-1.875 5 -1.875 5 -4.125 6.125 C-4.75 4.25 -4.75 4.25 -5.125 2.125 C-3.125 0.125 -3.125 0.125 0 0 Z " fill="#D9D9D9" transform="translate(20.125,38.875)"/>
<path d="M0 0 C0.33 0.66 0.66 1.32 1 2 C2.65 1.67 4.3 1.34 6 1 C5.34 1.66 4.68 2.32 4 3 C4.66 3.66 5.32 4.32 6 5 C4.02 5.33 2.04 5.66 0 6 C0 5.34 0 4.68 0 4 C-0.66 4 -1.32 4 -2 4 C-2 3.01 -2 2.02 -2 1 C-1.34 0.67 -0.68 0.34 0 0 Z " fill="#EDEDED" transform="translate(37,25)"/>
<path d="M0 0 C2.64 0 5.28 0 8 0 C7.01 0.33 6.02 0.66 5 1 C4.67 1.99 4.34 2.98 4 4 C2.35 4 0.7 4 -1 4 C-0.67 2.68 -0.34 1.36 0 0 Z " fill="#E5E5E5" transform="translate(169,76)"/>
<path d="M0 0 C0.33 0 0.66 0 1 0 C1 1.65 1 3.3 1 5 C1.66 5.33 2.32 5.66 3 6 C1.1875 8 1.1875 8 -1 10 C-1.99 10 -2.98 10 -4 10 C-3.71125 9.46375 -3.4225 8.9275 -3.125 8.375 C-1.83288192 5.64719516 -0.91441408 2.87387282 0 0 Z " fill="#C1C1C1" transform="translate(88,74)"/>
<path d="M0 0 C0.66 0 1.32 0 2 0 C2.33 1.65 2.66 3.3 3 5 C0.37684968 6.31157516 -1.23033436 5.89649988 -4.125 5.5625 C-5.03507813 5.46066406 -5.94515625 5.35882813 -6.8828125 5.25390625 C-7.58148438 5.17011719 -8.28015625 5.08632812 -9 5 C-9 4.67 -9 4.34 -9 4 C-5.7 4 -2.4 4 1 4 C0.67 2.68 0.34 1.36 0 0 Z " fill="#D1D1D1" transform="translate(236,95)"/>
<path d="M0 0 C1.65 0.99 3.3 1.98 5 3 C4.67 5.31 4.34 7.62 4 10 C1.81024227 6.71536341 1.00193437 3.79303725 0 0 Z " fill="#B5B5B5" transform="translate(107,56)"/>
<path d="M0 0 C0.66 0.33 1.32 0.66 2 1 C1.01 1.8971875 1.01 1.8971875 0 2.8125 C-2.3373846 4.87501834 -2.3373846 4.87501834 -2 8 C-3.32 8 -4.64 8 -6 8 C-5.1875 6.0625 -5.1875 6.0625 -4 4 C-3.01 3.67 -2.02 3.34 -1 3 C-0.67 2.01 -0.34 1.02 0 0 Z " fill="#B7B7B7" transform="translate(33,54)"/>
<path d="M0 0 C1.32 0 2.64 0 4 0 C4 2.97 4 5.94 4 9 C3.67 7.68 3.34 6.36 3 5 C2.34 5 1.68 5 1 5 C0.67 3.35 0.34 1.7 0 0 Z " fill="#DCDCDC" transform="translate(323,77)"/>
<path d="M0 0 C0.33 0.99 0.66 1.98 1 3 C1.66 3 2.32 3 3 3 C3 2.34 3 1.68 3 1 C5.475 1.99 5.475 1.99 8 3 C7.67 3.99 7.34 4.98 7 6 C4.69 5.34 2.38 4.68 0 4 C0 2.68 0 1.36 0 0 Z " fill="#F1F1F1" transform="translate(196,64)"/>
<path d="M0 0 C1.65 1.65 3.3 3.3 5 5 C4.34 5 3.68 5 3 5 C2.67 5.66 2.34 6.32 2 7 C0 5 0 5 -0.125 2.375 C-0.08375 1.59125 -0.0425 0.8075 0 0 Z " fill="#E9E9E9" transform="translate(15,122)"/>
<path d="M0 0 C0.66 0 1.32 0 2 0 C2.66 2.97 3.32 5.94 4 9 C0.06153846 5.67692308 0.06153846 5.67692308 -0.25 2.25 C-0.1675 1.5075 -0.085 0.765 0 0 Z " fill="#AAAAAA" transform="translate(0,93)"/>
<path d="M0 0 C0.33 1.32 0.66 2.64 1 4 C-1.97 6.475 -1.97 6.475 -5 9 C-3.50163895 5.88801935 -1.80066242 2.9465385 0 0 Z " fill="#4A4A4A" transform="translate(92,98)"/>
<path d="M0 0 C0.99 0 1.98 0 3 0 C1.63016497 3.16115776 1.0109362 3.9927092 -2 6 C-1.125 1.125 -1.125 1.125 0 0 Z " fill="#D8D8D8" transform="translate(223,70)"/>
</svg>
